<?xml version="1.0" encoding="utf-8"?>
<svg version="1.1" xmlns:xlink="http://www.w3.org/1999/xlink" width="26px" height="30px" xmlns="http://www.w3.org/2000/svg">
  <g transform="matrix(1 0 0 1 -15 -6 )">
    <path d="M 25.737109375 21.8579296875  C 25.7360546875 24.77484375  19.1340625 26.1033984375  13 26.1033984375  C 6.8659375 26.1033984375  0.263945312500001 24.77484375  0.263945312500001 21.8579296875  C 0.263945312500001 21.316875  0.702343750000001 20.878125  1.24375 20.878125  C 2.729453125 20.878125  4.52171875 18.243515625  4.836015625 13.9843359375  L 4.836015625 12.7137890625  C 4.836015625 11.0080078125  5.35703125 9.37359375  6.3424609375 7.98703125  C 6.4542578125 7.8298828125  6.571328125 7.6766015625  6.694375 7.5282421875  C 7.038203125 7.110234375  7.6558984375 7.05046875  8.073203125 7.395703125  C 8.4905078125 7.7398828125  8.5502734375 8.3572265625  8.2057421875 8.77453125  C 8.1129296875 8.8873828125  8.023984375 9.0033984375  7.9392578125 9.1229296875  C 7.1911328125 10.1755078125  6.7952734375 11.4172265625  6.7952734375 12.7137890625  L 6.7952734375 14.0201953125  C 6.7952734375 14.0433984375  6.79421875 14.066953125  6.7928125 14.0905078125  C 6.5013671875 18.155625  4.9425390625 21.32671875  2.8655078125 22.422890625  C 4.184921875 23.1608203125  7.5342578125 24.144140625  13.0003515625 24.144140625  C 18.461875 24.144140625  21.8098046875 23.162578125  23.13203125 22.421484375  C 21.05640625 21.32390625  19.498984375 18.1538671875  19.207890625 14.090859375  C 19.2061328125 14.06765625  19.2054296875 14.0441015625  19.2054296875 14.020546875  L 19.2054296875 12.714140625  C 19.2054296875 9.29273437500001  16.422109375 6.5094140625  13.000703125 6.5094140625  C 12.2360546875 6.5094140625  11.4900390625 6.6465234375  10.7833984375 6.916875  C 10.278203125 7.1091796875  9.711484375 6.8574609375  9.518125 6.3519140625  C 9.3244140625 5.84671875  9.5775390625 5.2803515625  10.0830859375 5.086640625  C 11.0140234375 4.7305078125  11.9955859375 4.549453125  13.000703125 4.549453125  C 17.5024609375 4.549453125  21.1650390625 8.2116796875  21.1650390625 12.7137890625  L 21.1650390625 13.9843359375  C 21.4793359375 18.243515625  23.2716015625 20.878125  24.7573046875 20.878125  C 25.298359375 20.878125  25.737109375 21.3165234375  25.737109375 21.8579296875  Z M 17.898671875 25.12359375  C 17.898671875 27.464296875  15.7010546875 29.3690625  13 29.3690625  C 10.2989453125 29.3690625  8.101328125 27.4646484375  8.101328125 25.12359375  C 8.101328125 24.5825390625  8.5397265625 24.1437890625  9.0811328125 24.1437890625  C 9.6221875 24.1437890625  10.0609375 24.5821875  10.0609375 25.12359375  C 10.0609375 26.3839453125  11.379296875 27.409453125  13 27.409453125  C 14.620703125 27.409453125  15.9390625 26.3839453125  15.9390625 25.12359375  C 15.9390625 24.5825390625  16.3774609375 24.1437890625  16.9188671875 24.1437890625  C 17.459921875 24.1437890625  17.898671875 24.5821875  17.898671875 25.12359375  Z M 15.938359375 4.8781640625  C 15.9390625 5.4195703125  15.5006640625 5.85796875  14.9592578125 5.85796875  C 14.418203125 5.85796875  13.979453125 5.4195703125  13.979453125 4.8781640625  L 13.979453125 3.5576953125  C 13.979453125 3.0240234375  13.54 2.5901953125  12.9996484375 2.5901953125  C 12.459296875 2.5901953125  12.01984375 3.024375  12.01984375 3.5576953125  L 12.01984375 4.856015625  C 12.01984375 5.3970703125  11.5814453125 5.8358203125  11.0400390625 5.8358203125  C 10.498984375 5.8358203125  10.060234375 5.397421875  10.060234375 4.856015625  L 10.060234375 3.5576953125  C 10.060234375 1.943671875  11.37859375 0.6305859375  12.999296875 0.6305859375  C 14.62 0.6305859375  15.938359375 1.943671875  15.938359375 3.5576953125  L 15.938359375 4.8781640625  Z " fill-rule="nonzero" fill="#000000" stroke="none" transform="matrix(1 0 0 1 15 6 )" />
  </g>
</svg>