<?xml version="1.0" encoding="utf-8"?>
<svg version="1.1" xmlns:xlink="http://www.w3.org/1999/xlink" width="131px" height="86px" xmlns="http://www.w3.org/2000/svg">
  <g transform="matrix(1 0 0 1 -138 -285 )">
    <path d="M 42.1124727021047 0.189688846982761  C 36.5259906771598 1.57977505387931  29.1239019941077 2.13580953663793  26.8893091841297 8.53020608836207  C 25.3530266272698 17.7047750538793  28.2859296903659 26.7403353987069  30.5205225003439 35.6368871228448  C 25.0737025260226 39.1121026400862  19.6268825517012 43.2736732219828  12.7834420711436 43.2736732219828  C 6.77797389432777 44.3857421875  -3.83634195306768 44.9417766702586  1.47081597063004 54.5333714978448  C 5.38135338809153 67.8781990840517  17.2526276910996 75.5236732219828  27.5876194372478 83.5861732219828  C 31.6378189053329 81.9180697737069  35.9673424746653 80.3889749461207  40.2968660439976 81.9180697737069  C 43.9280793602118 81.6400525323276  54.6733283800669 84.9762594288793  72.6897329105145 85.9493197737069  C 72.9690570117617 82.6131128771552  72.5500708598909 79.1378973599138  74.0863534167507 76.0797077047414  C 82.4660764541682 71.0753973599138  93.0803923015636 72.3264749461207  102.437749693346 71.0753973599138  C 107.744907617044 57.5915611530172  113.052065540742 43.6993871228448  122.269760881901 32.3006802262931  C 127.157932653728 26.7403353987069  129.671849564953 19.9289129849138  129.671849564953 12.7004647090517  C 108.862204022033 14.9246026400862  91.6837717953274 28.5474474676724  71.5724365055255 33.5517578125  C 68.3602093411821 28.4084388469828  65.2963731056264 23.2651198814655  62.084145941283 18.2608095366379  C 58.5925946756924 18.1218009159483  54.6820572582309 18.6778353987069  51.4698300938876 17.009731950431  C 47.5592926764261 11.8664129849138  44.4867275627063 6.16705953663793  42.1124727021047 0.189688846982761  Z " fill-rule="nonzero" fill="#b6f2b6" stroke="none" transform="matrix(1 0 0 1 138 285 )" />
  </g>
</svg>