<?xml version="1.0" encoding="utf-8"?>
<svg version="1.1" xmlns:xlink="http://www.w3.org/1999/xlink" width="117px" height="143px" xmlns="http://www.w3.org/2000/svg">
  <defs>
    <mask fill="white" id="clip76">
      <path d="M 76.0422345132743 4.7778117505995  C 80.3771017699115 7.42519784172662  84.1045353982301 3.89992206235008  86.3133849557522 0.4020803357314  C 88.9225884955752 0.511816546762563  91.5455973451327 0.539250599520361  94.1686061946903 0.498099520383679  C 94.9969247787611 2.15785971223021  95.7976327433628 3.85877098321343  96.5983407079646 5.54596522781773  C 91.7526769911505 20.3054856115108  88.2875442477876 35.4902338129496  86.8932079646018 50.9630395683453  C 89.9579867256637 53.6515767386091  94.0167477876106 55.3113369304556  98.089314159292 55.7502817745803  C 100.215331858407 54.6529196642685  99.3179867256637 51.7174760191846  99.9530309734513 49.810809352518  C 103.984181415929 45.6408333333333  107.78064159292 51.0864928057554  108.650376106195 54.9272601918465  C 104.094623893805 59.9202577937649  97.1091371681416 64.9595503597122  99.3179867256637 72.7508213429256  C 100.891792035398 73.4503896882494  102.465597345133 74.163675059952  104.039402654867 74.8906774580336  C 103.625243362832 77.3734592326139  102.493207964602 79.623051558753  101.140287610619 81.7217565947242  C 100.574269911504 82.9837230215827  100.022057522124 84.273123501199  99.4836504424779 85.5625239808154  C 99.0971017699115 87.3868884892086  98.6967477876106 89.2112529976019  98.3378097345133 91.063051558753  C 100.380995575221 92.2015647482014  102.465597345133 93.2852098321343  104.591615044248 94.3002697841726  C 108.305243362832 99.7596462829736  111.963650442478 105.301324940048  116.560818584071 110.088567146283  C 114.227721238938 111.61115707434  112.170730088496 113.476672661871  110.07232300885 115.287320143885  C 109.934269911504 116.288663069544  109.658163716814 118.263914868106  109.520110619469 119.265257793765  C 107.545951327434 118.990917266187  105.571792035398 118.675425659472  103.611438053097 118.346217026379  C 102.948783185841 120.540941247002  102.921172566372 122.80425059952  103.473384955752 125.040125899281  C 99.8425884955752 122.763099520384  98.7519690265487 128.455665467626  99.2213495575221 130.938447242206  C 99.2213495575221 130.938447242206  96.6673672566372 130.046840527578  96.6673672566372 130.046840527578  C 97.0539159292036 130.677823741007  97.8132079646018 131.953507194245  98.1997566371682 132.598207434053  C 96.8606415929204 134.49115707434  95.6319690265487 136.466408872902  94.3342699115045 138.400509592326  C 94.5965707964602 138.908039568345  95.1211725663717 139.909382494005  95.3834734513274 140.416912470024  C 91.7388716814159 140.019118705036  88.108075221239 139.539022781775  84.4358628318584 139.497871702638  C 84.8776327433629 140.348327338129  85.7473672566372 142.049238609113  86.1891371681416 142.899694244604  C 82.5169247787611 142.090389688249  78.6928539823009 142.021804556355  75.0482522123894 142.913411270983  C 75.1725 141.034178657074  75.200110619469 139.154946043165  75.144889380531 137.289430455635  C 75.144889380531 137.289430455635  77.4779867256637 138.331924460432  77.4779867256637 138.331924460432  C 77.2018805309735 137.303147482014  76.6634734513274 135.24559352518  76.3873672566372 134.216816546763  C 79.314092920354 131.349958033573  79.7006415929204 127.070245803357  79.5487831858407 123.229478417266  C 80.6117920353983 121.336528776978  81.357278761062 119.333842925659  81.8128539823009 117.221420863309  C 81.8128539823009 117.221420863309  78.3891371681416 118.963483213429  78.3891371681416 118.963483213429  C 78.3891371681416 118.963483213429  80.6117920353983 115.301037170264  80.6117920353983 115.301037170264  C 80.6117920353983 115.301037170264  77.0362168141593 117.509478417266  77.0362168141593 117.509478417266  C 77.4917920353982 116.645305755396  78.3891371681416 114.930677458034  78.8447123893805 114.066504796163  C 77.7678982300885 114.409430455635  75.6142699115044 115.081564748201  74.5512610619469 115.424490407674  C 74.1647123893805 114.574034772182  73.4054203539823 112.886840527578  73.0188716814159 112.036384892086  C 72.4804646017699 110.939022781775  71.9420575221239 109.841660671463  71.4036504424779 108.744298561151  C 71.2379867256637 111.295665467626  70.8790486725664 113.833315347722  70.437278761062 116.357248201439  C 69.5951548672566 116.247511990408  67.883296460177 116.028039568345  67.0273672566372 115.918303357314  C 67.0273672566372 115.918303357314  68.2974557522124 118.140461630695  68.2974557522124 118.140461630695  C 65.9919690265487 117.811252997602  63.6726769911504 117.71523381295  61.3533849557522 117.83868705036  C 61.3671902654867 116.988231414868  61.4086061946903 115.287320143885  61.4224115044248 114.450581534772  C 62.0574557522124 114.121372901679  63.3413495575221 113.462955635492  63.9763938053098 113.133747002398  C 61.8227654867257 111.254514388489  59.5949336283186 109.306696642686  57.7588274336283 107.098255395683  C 56.4887389380531 106.439838129496  55.2186504424779 105.76770383693  53.9761725663717 105.095569544364  C 53.4101548672566 105.315041966427  52.2919247787611 105.76770383693  51.725907079646 105.987176258993  C 51.725907079646 105.987176258993  51.0770575221239 104.53317146283  51.0770575221239 104.53317146283  C 49.3513938053098 105.040701438849  47.6119247787611 105.548231414868  45.8862610619469 106.02832733813  C 46.2866150442478 106.851348920863  47.1149336283186 108.483675059952  47.5152876106195 109.306696642686  C 47.5152876106195 109.306696642686  43.9121017699115 107.01595323741  43.9121017699115 107.01595323741  C 43.9121017699115 107.01595323741  46.1623672566372 110.609814148681  46.1623672566372 110.609814148681  C 45.2374115044248 110.157152278177  43.4013053097345 109.238111510791  42.4763495575221 108.785449640288  C 42.4763495575221 108.785449640288  44.3952876106195 111.679742206235  44.3952876106195 111.679742206235  C 41.6756415929204 112.269574340528  38.9283849557522 111.981516786571  36.4020132743363 110.829286570743  C 34.5797123893805 112.818255395683  31.9152876106195 111.99523381295  29.5269690265487 111.940365707434  C 29.5269690265487 111.940365707434  30.9765265486726 114.697488009592  30.9765265486726 114.697488009592  C 30.9765265486726 114.697488009592  27.2628982300885 112.585065947242  27.2628982300885 112.585065947242  C 27.2628982300885 112.585065947242  29.6098008849558 115.506792565947  29.6098008849558 115.506792565947  C 27.815110619469 115.520509592326  24.2257300884956 115.520509592326  22.4448451327434 115.520509592326  C 22.4448451327434 115.520509592326  24.8883849557522 112.24214028777  24.8883849557522 112.24214028777  C 21.6855530973451 113.435521582734  22.6381194690266 118.620557553957  18.8692699115045 118.744010791367  C 14.824314159292 119.429862110312  10.8483849557522 120.431205035971  6.81723451327435 121.171924460432  C 7.09334070796462 117.166552757794  3.1312168141593 117.399742206235  0.301128318584091 117.043099520384  C 0.383960176991169 114.834658273381  0.425376106194715 112.6125  0.411570796460185 110.417775779376  C 0.949977876106214 110.116001199041  2.04059734513277 109.512452038369  2.57900442477878 109.224394484412  C 1.48838495575223 104.807511990408  2.78608407079647 100.198591127098  1.44696902654868 95.8365767386091  C 2.35811946902655 96.385257793765  4.18042035398232 97.4963369304556  5.10537610619471 98.0587350119904  C 5.11918141592921 94.9861211031175  5.06396017699116 91.9272242206235  4.70502212389382 88.8820443645084  C 7.13475663716816 86.5775839328537  5.67139380530976 82.9288549160671  7.43847345132745 80.3089028776978  C 7.86643805309737 78.155329736211  9.15033185840709 76.3446822541966  10.4894469026549 74.6574880095923  C 11.2211283185841 74.9866966426858  12.698296460177 75.631396882494  13.4299778761062 75.9468884892086  C 13.4299778761062 75.9468884892086  12.8639601769912 73.7795983213429  12.8639601769912 73.7795983213429  C 13.4437831858407 73.5738429256594  14.6034292035398 73.1623321342925  15.1694469026549 72.9565767386091  C 15.1694469026549 72.9565767386091  14.0650221238938 70.8527278177457  14.0650221238938 70.8527278177457  C 14.5205973451327 70.7429916067146  15.4317477876106 70.5235191846523  15.8873230088496 70.4137829736211  C 16.356703539823 69.2615527577938  17.2954646017699 66.9845263788968  17.7648451327434 65.8460131894484  C 16.7570575221239 65.6265407673861  14.741482300885 65.2013129496403  13.7336946902655 64.9818405275779  C 14.0098008849558 64.0216486810551  14.5482079646018 62.0875479616307  14.824314159292 61.113639088729  C 17.4197123893806 60.6884112709832  20.0013053097345 60.1945983213429  22.5552876106195 59.5636151079136  C 21.0643141592921 59.0698021582734  19.5181194690266 58.7268764988009  17.9581194690266 58.5348381294964  C 16.5223672566372 55.2016007194244  16.6742256637168 51.4294184652278  19.2144026548673 48.7134472422062  C 18.8416592920354 48.4391067146283  18.0685619469027 47.8904256594724  17.6820132743363 47.6160851318945  C 18.6345796460177 46.8616486810552  20.5397123893805 45.3802098321342  21.492278761062 44.625773381295  C 21.492278761062 44.625773381295  17.9719247787611 45.6957014388489  17.9719247787611 45.6957014388489  C 18.3032522123894 43.5146942446043  18.6069690265487 41.3336870503597  18.8968805309735 39.1389628297362  C 18.4136946902655 38.6588669064748  17.4473230088496 37.698675059952  16.9641371681416 37.2185791366907  C 17.1850221238938 33.2132074340527  16.9917477876106 29.2078357314149  17.1298008849558 25.202464028777  C 18.5793584070797 25.0790107913669  19.8356415929204 25.5728237410072  20.8986504424779 26.6976199040767  C 21.1195353982301 25.7511450839328  21.5613053097345 23.8581954436451  21.7821902654867 22.9117206235012  C 26.4621902654867 24.8458213429256  25.5924557522124 18.7417446043166  27.1800663716814 16.149226618705  C 26.8625442477876 15.4770923261391  26.2413053097345 14.1191067146283  25.9237831858407 13.4469724220623  C 25.9237831858407 13.4469724220623  28.7952876106195 15.5868285371702  28.7952876106195 15.5868285371702  C 28.9885619469027 12.3770443645084  29.3889159292035 9.18097721822543  30.0515707964602 6.03977817745801  C 30.9627212389381 4.69550959232614  32.9644911504425 4.96985011990406  34.2759955752213 4.29771582733814  C 35.532278761062 6.23181654676259  36.6919247787611 8.22078537170262  37.8239601769912 10.2234712230216  C 40.239889380531 9.82567745803358  42.5729867256637 9.13982613908872  44.8508628318584 8.24821942446042  C 48.6335176991151 9.44160071942447  52.6784734513274 9.09867505995204  56.1712168141593 7.19200839328535  C 57.7450221238938 7.16457434052758  59.4482522123894 7.16457434052758  61.0358628318584 7.17829136690647  C 61.3671902654867 5.27162470023978  61.6571017699115 3.36495803357312  61.9194026548673 1.47200839328538  C 62.664889380531 1.91095323741006  63.4241814159292 2.34989808153474  64.1834734513274 2.80255995203836  C 65.9919690265487 2.25387889688249  67.8280752212389 1.78749999999998  69.6779867256637 1.36227218225419  C 69.8712610619469 2.48706834532376  70.2716150442478 4.76409472422062  70.464889380531 5.88889088729016  C 72.4114380530973 6.78049760191847  74.2337389380531 5.27162470023978  76.0422345132743 4.7778117505995  Z " fill-rule="evenodd" />
    </mask>
  </defs>
  <g>
    <path d="M 76.0422345132743 4.7778117505995  C 80.3771017699115 7.42519784172662  84.1045353982301 3.89992206235008  86.3133849557522 0.4020803357314  C 88.9225884955752 0.511816546762563  91.5455973451327 0.539250599520361  94.1686061946903 0.498099520383679  C 94.9969247787611 2.15785971223021  95.7976327433628 3.85877098321343  96.5983407079646 5.54596522781773  C 91.7526769911505 20.3054856115108  88.2875442477876 35.4902338129496  86.8932079646018 50.9630395683453  C 89.9579867256637 53.6515767386091  94.0167477876106 55.3113369304556  98.089314159292 55.7502817745803  C 100.215331858407 54.6529196642685  99.3179867256637 51.7174760191846  99.9530309734513 49.810809352518  C 103.984181415929 45.6408333333333  107.78064159292 51.0864928057554  108.650376106195 54.9272601918465  C 104.094623893805 59.9202577937649  97.1091371681416 64.9595503597122  99.3179867256637 72.7508213429256  C 100.891792035398 73.4503896882494  102.465597345133 74.163675059952  104.039402654867 74.8906774580336  C 103.625243362832 77.3734592326139  102.493207964602 79.623051558753  101.140287610619 81.7217565947242  C 100.574269911504 82.9837230215827  100.022057522124 84.273123501199  99.4836504424779 85.5625239808154  C 99.0971017699115 87.3868884892086  98.6967477876106 89.2112529976019  98.3378097345133 91.063051558753  C 100.380995575221 92.2015647482014  102.465597345133 93.2852098321343  104.591615044248 94.3002697841726  C 108.305243362832 99.7596462829736  111.963650442478 105.301324940048  116.560818584071 110.088567146283  C 114.227721238938 111.61115707434  112.170730088496 113.476672661871  110.07232300885 115.287320143885  C 109.934269911504 116.288663069544  109.658163716814 118.263914868106  109.520110619469 119.265257793765  C 107.545951327434 118.990917266187  105.571792035398 118.675425659472  103.611438053097 118.346217026379  C 102.948783185841 120.540941247002  102.921172566372 122.80425059952  103.473384955752 125.040125899281  C 99.8425884955752 122.763099520384  98.7519690265487 128.455665467626  99.2213495575221 130.938447242206  C 99.2213495575221 130.938447242206  96.6673672566372 130.046840527578  96.6673672566372 130.046840527578  C 97.0539159292036 130.677823741007  97.8132079646018 131.953507194245  98.1997566371682 132.598207434053  C 96.8606415929204 134.49115707434  95.6319690265487 136.466408872902  94.3342699115045 138.400509592326  C 94.5965707964602 138.908039568345  95.1211725663717 139.909382494005  95.3834734513274 140.416912470024  C 91.7388716814159 140.019118705036  88.108075221239 139.539022781775  84.4358628318584 139.497871702638  C 84.8776327433629 140.348327338129  85.7473672566372 142.049238609113  86.1891371681416 142.899694244604  C 82.5169247787611 142.090389688249  78.6928539823009 142.021804556355  75.0482522123894 142.913411270983  C 75.1725 141.034178657074  75.200110619469 139.154946043165  75.144889380531 137.289430455635  C 75.144889380531 137.289430455635  77.4779867256637 138.331924460432  77.4779867256637 138.331924460432  C 77.2018805309735 137.303147482014  76.6634734513274 135.24559352518  76.3873672566372 134.216816546763  C 79.314092920354 131.349958033573  79.7006415929204 127.070245803357  79.5487831858407 123.229478417266  C 80.6117920353983 121.336528776978  81.357278761062 119.333842925659  81.8128539823009 117.221420863309  C 81.8128539823009 117.221420863309  78.3891371681416 118.963483213429  78.3891371681416 118.963483213429  C 78.3891371681416 118.963483213429  80.6117920353983 115.301037170264  80.6117920353983 115.301037170264  C 80.6117920353983 115.301037170264  77.0362168141593 117.509478417266  77.0362168141593 117.509478417266  C 77.4917920353982 116.645305755396  78.3891371681416 114.930677458034  78.8447123893805 114.066504796163  C 77.7678982300885 114.409430455635  75.6142699115044 115.081564748201  74.5512610619469 115.424490407674  C 74.1647123893805 114.574034772182  73.4054203539823 112.886840527578  73.0188716814159 112.036384892086  C 72.4804646017699 110.939022781775  71.9420575221239 109.841660671463  71.4036504424779 108.744298561151  C 71.2379867256637 111.295665467626  70.8790486725664 113.833315347722  70.437278761062 116.357248201439  C 69.5951548672566 116.247511990408  67.883296460177 116.028039568345  67.0273672566372 115.918303357314  C 67.0273672566372 115.918303357314  68.2974557522124 118.140461630695  68.2974557522124 118.140461630695  C 65.9919690265487 117.811252997602  63.6726769911504 117.71523381295  61.3533849557522 117.83868705036  C 61.3671902654867 116.988231414868  61.4086061946903 115.287320143885  61.4224115044248 114.450581534772  C 62.0574557522124 114.121372901679  63.3413495575221 113.462955635492  63.9763938053098 113.133747002398  C 61.8227654867257 111.254514388489  59.5949336283186 109.306696642686  57.7588274336283 107.098255395683  C 56.4887389380531 106.439838129496  55.2186504424779 105.76770383693  53.9761725663717 105.095569544364  C 53.4101548672566 105.315041966427  52.2919247787611 105.76770383693  51.725907079646 105.987176258993  C 51.725907079646 105.987176258993  51.0770575221239 104.53317146283  51.0770575221239 104.53317146283  C 49.3513938053098 105.040701438849  47.6119247787611 105.548231414868  45.8862610619469 106.02832733813  C 46.2866150442478 106.851348920863  47.1149336283186 108.483675059952  47.5152876106195 109.306696642686  C 47.5152876106195 109.306696642686  43.9121017699115 107.01595323741  43.9121017699115 107.01595323741  C 43.9121017699115 107.01595323741  46.1623672566372 110.609814148681  46.1623672566372 110.609814148681  C 45.2374115044248 110.157152278177  43.4013053097345 109.238111510791  42.4763495575221 108.785449640288  C 42.4763495575221 108.785449640288  44.3952876106195 111.679742206235  44.3952876106195 111.679742206235  C 41.6756415929204 112.269574340528  38.9283849557522 111.981516786571  36.4020132743363 110.829286570743  C 34.5797123893805 112.818255395683  31.9152876106195 111.99523381295  29.5269690265487 111.940365707434  C 29.5269690265487 111.940365707434  30.9765265486726 114.697488009592  30.9765265486726 114.697488009592  C 30.9765265486726 114.697488009592  27.2628982300885 112.585065947242  27.2628982300885 112.585065947242  C 27.2628982300885 112.585065947242  29.6098008849558 115.506792565947  29.6098008849558 115.506792565947  C 27.815110619469 115.520509592326  24.2257300884956 115.520509592326  22.4448451327434 115.520509592326  C 22.4448451327434 115.520509592326  24.8883849557522 112.24214028777  24.8883849557522 112.24214028777  C 21.6855530973451 113.435521582734  22.6381194690266 118.620557553957  18.8692699115045 118.744010791367  C 14.824314159292 119.429862110312  10.8483849557522 120.431205035971  6.81723451327435 121.171924460432  C 7.09334070796462 117.166552757794  3.1312168141593 117.399742206235  0.301128318584091 117.043099520384  C 0.383960176991169 114.834658273381  0.425376106194715 112.6125  0.411570796460185 110.417775779376  C 0.949977876106214 110.116001199041  2.04059734513277 109.512452038369  2.57900442477878 109.224394484412  C 1.48838495575223 104.807511990408  2.78608407079647 100.198591127098  1.44696902654868 95.8365767386091  C 2.35811946902655 96.385257793765  4.18042035398232 97.4963369304556  5.10537610619471 98.0587350119904  C 5.11918141592921 94.9861211031175  5.06396017699116 91.9272242206235  4.70502212389382 88.8820443645084  C 7.13475663716816 86.5775839328537  5.67139380530976 82.9288549160671  7.43847345132745 80.3089028776978  C 7.86643805309737 78.155329736211  9.15033185840709 76.3446822541966  10.4894469026549 74.6574880095923  C 11.2211283185841 74.9866966426858  12.698296460177 75.631396882494  13.4299778761062 75.9468884892086  C 13.4299778761062 75.9468884892086  12.8639601769912 73.7795983213429  12.8639601769912 73.7795983213429  C 13.4437831858407 73.5738429256594  14.6034292035398 73.1623321342925  15.1694469026549 72.9565767386091  C 15.1694469026549 72.9565767386091  14.0650221238938 70.8527278177457  14.0650221238938 70.8527278177457  C 14.5205973451327 70.7429916067146  15.4317477876106 70.5235191846523  15.8873230088496 70.4137829736211  C 16.356703539823 69.2615527577938  17.2954646017699 66.9845263788968  17.7648451327434 65.8460131894484  C 16.7570575221239 65.6265407673861  14.741482300885 65.2013129496403  13.7336946902655 64.9818405275779  C 14.0098008849558 64.0216486810551  14.5482079646018 62.0875479616307  14.824314159292 61.113639088729  C 17.4197123893806 60.6884112709832  20.0013053097345 60.1945983213429  22.5552876106195 59.5636151079136  C 21.0643141592921 59.0698021582734  19.5181194690266 58.7268764988009  17.9581194690266 58.5348381294964  C 16.5223672566372 55.2016007194244  16.6742256637168 51.4294184652278  19.2144026548673 48.7134472422062  C 18.8416592920354 48.4391067146283  18.0685619469027 47.8904256594724  17.6820132743363 47.6160851318945  C 18.6345796460177 46.8616486810552  20.5397123893805 45.3802098321342  21.492278761062 44.625773381295  C 21.492278761062 44.625773381295  17.9719247787611 45.6957014388489  17.9719247787611 45.6957014388489  C 18.3032522123894 43.5146942446043  18.6069690265487 41.3336870503597  18.8968805309735 39.1389628297362  C 18.4136946902655 38.6588669064748  17.4473230088496 37.698675059952  16.9641371681416 37.2185791366907  C 17.1850221238938 33.2132074340527  16.9917477876106 29.2078357314149  17.1298008849558 25.202464028777  C 18.5793584070797 25.0790107913669  19.8356415929204 25.5728237410072  20.8986504424779 26.6976199040767  C 21.1195353982301 25.7511450839328  21.5613053097345 23.8581954436451  21.7821902654867 22.9117206235012  C 26.4621902654867 24.8458213429256  25.5924557522124 18.7417446043166  27.1800663716814 16.149226618705  C 26.8625442477876 15.4770923261391  26.2413053097345 14.1191067146283  25.9237831858407 13.4469724220623  C 25.9237831858407 13.4469724220623  28.7952876106195 15.5868285371702  28.7952876106195 15.5868285371702  C 28.9885619469027 12.3770443645084  29.3889159292035 9.18097721822543  30.0515707964602 6.03977817745801  C 30.9627212389381 4.69550959232614  32.9644911504425 4.96985011990406  34.2759955752213 4.29771582733814  C 35.532278761062 6.23181654676259  36.6919247787611 8.22078537170262  37.8239601769912 10.2234712230216  C 40.239889380531 9.82567745803358  42.5729867256637 9.13982613908872  44.8508628318584 8.24821942446042  C 48.6335176991151 9.44160071942447  52.6784734513274 9.09867505995204  56.1712168141593 7.19200839328535  C 57.7450221238938 7.16457434052758  59.4482522123894 7.16457434052758  61.0358628318584 7.17829136690647  C 61.3671902654867 5.27162470023978  61.6571017699115 3.36495803357312  61.9194026548673 1.47200839328538  C 62.664889380531 1.91095323741006  63.4241814159292 2.34989808153474  64.1834734513274 2.80255995203836  C 65.9919690265487 2.25387889688249  67.8280752212389 1.78749999999998  69.6779867256637 1.36227218225419  C 69.8712610619469 2.48706834532376  70.2716150442478 4.76409472422062  70.464889380531 5.88889088729016  C 72.4114380530973 6.78049760191847  74.2337389380531 5.27162470023978  76.0422345132743 4.7778117505995  Z " fill-rule="nonzero" fill="#ff0303" stroke="none" />
    <path d="M 76.0422345132743 4.7778117505995  C 80.3771017699115 7.42519784172662  84.1045353982301 3.89992206235008  86.3133849557522 0.4020803357314  C 88.9225884955752 0.511816546762563  91.5455973451327 0.539250599520361  94.1686061946903 0.498099520383679  C 94.9969247787611 2.15785971223021  95.7976327433628 3.85877098321343  96.5983407079646 5.54596522781773  C 91.7526769911505 20.3054856115108  88.2875442477876 35.4902338129496  86.8932079646018 50.9630395683453  C 89.9579867256637 53.6515767386091  94.0167477876106 55.3113369304556  98.089314159292 55.7502817745803  C 100.215331858407 54.6529196642685  99.3179867256637 51.7174760191846  99.9530309734513 49.810809352518  C 103.984181415929 45.6408333333333  107.78064159292 51.0864928057554  108.650376106195 54.9272601918465  C 104.094623893805 59.9202577937649  97.1091371681416 64.9595503597122  99.3179867256637 72.7508213429256  C 100.891792035398 73.4503896882494  102.465597345133 74.163675059952  104.039402654867 74.8906774580336  C 103.625243362832 77.3734592326139  102.493207964602 79.623051558753  101.140287610619 81.7217565947242  C 100.574269911504 82.9837230215827  100.022057522124 84.273123501199  99.4836504424779 85.5625239808154  C 99.0971017699115 87.3868884892086  98.6967477876106 89.2112529976019  98.3378097345133 91.063051558753  C 100.380995575221 92.2015647482014  102.465597345133 93.2852098321343  104.591615044248 94.3002697841726  C 108.305243362832 99.7596462829736  111.963650442478 105.301324940048  116.560818584071 110.088567146283  C 114.227721238938 111.61115707434  112.170730088496 113.476672661871  110.07232300885 115.287320143885  C 109.934269911504 116.288663069544  109.658163716814 118.263914868106  109.520110619469 119.265257793765  C 107.545951327434 118.990917266187  105.571792035398 118.675425659472  103.611438053097 118.346217026379  C 102.948783185841 120.540941247002  102.921172566372 122.80425059952  103.473384955752 125.040125899281  C 99.8425884955752 122.763099520384  98.7519690265487 128.455665467626  99.2213495575221 130.938447242206  C 99.2213495575221 130.938447242206  96.6673672566372 130.046840527578  96.6673672566372 130.046840527578  C 97.0539159292036 130.677823741007  97.8132079646018 131.953507194245  98.1997566371682 132.598207434053  C 96.8606415929204 134.49115707434  95.6319690265487 136.466408872902  94.3342699115045 138.400509592326  C 94.5965707964602 138.908039568345  95.1211725663717 139.909382494005  95.3834734513274 140.416912470024  C 91.7388716814159 140.019118705036  88.108075221239 139.539022781775  84.4358628318584 139.497871702638  C 84.8776327433629 140.348327338129  85.7473672566372 142.049238609113  86.1891371681416 142.899694244604  C 82.5169247787611 142.090389688249  78.6928539823009 142.021804556355  75.0482522123894 142.913411270983  C 75.1725 141.034178657074  75.200110619469 139.154946043165  75.144889380531 137.289430455635  C 75.144889380531 137.289430455635  77.4779867256637 138.331924460432  77.4779867256637 138.331924460432  C 77.2018805309735 137.303147482014  76.6634734513274 135.24559352518  76.3873672566372 134.216816546763  C 79.314092920354 131.349958033573  79.7006415929204 127.070245803357  79.5487831858407 123.229478417266  C 80.6117920353983 121.336528776978  81.357278761062 119.333842925659  81.8128539823009 117.221420863309  C 81.8128539823009 117.221420863309  78.3891371681416 118.963483213429  78.3891371681416 118.963483213429  C 78.3891371681416 118.963483213429  80.6117920353983 115.301037170264  80.6117920353983 115.301037170264  C 80.6117920353983 115.301037170264  77.0362168141593 117.509478417266  77.0362168141593 117.509478417266  C 77.4917920353982 116.645305755396  78.3891371681416 114.930677458034  78.8447123893805 114.066504796163  C 77.7678982300885 114.409430455635  75.6142699115044 115.081564748201  74.5512610619469 115.424490407674  C 74.1647123893805 114.574034772182  73.4054203539823 112.886840527578  73.0188716814159 112.036384892086  C 72.4804646017699 110.939022781775  71.9420575221239 109.841660671463  71.4036504424779 108.744298561151  C 71.2379867256637 111.295665467626  70.8790486725664 113.833315347722  70.437278761062 116.357248201439  C 69.5951548672566 116.247511990408  67.883296460177 116.028039568345  67.0273672566372 115.918303357314  C 67.0273672566372 115.918303357314  68.2974557522124 118.140461630695  68.2974557522124 118.140461630695  C 65.9919690265487 117.811252997602  63.6726769911504 117.71523381295  61.3533849557522 117.83868705036  C 61.3671902654867 116.988231414868  61.4086061946903 115.287320143885  61.4224115044248 114.450581534772  C 62.0574557522124 114.121372901679  63.3413495575221 113.462955635492  63.9763938053098 113.133747002398  C 61.8227654867257 111.254514388489  59.5949336283186 109.306696642686  57.7588274336283 107.098255395683  C 56.4887389380531 106.439838129496  55.2186504424779 105.76770383693  53.9761725663717 105.095569544364  C 53.4101548672566 105.315041966427  52.2919247787611 105.76770383693  51.725907079646 105.987176258993  C 51.725907079646 105.987176258993  51.0770575221239 104.53317146283  51.0770575221239 104.53317146283  C 49.3513938053098 105.040701438849  47.6119247787611 105.548231414868  45.8862610619469 106.02832733813  C 46.2866150442478 106.851348920863  47.1149336283186 108.483675059952  47.5152876106195 109.306696642686  C 47.5152876106195 109.306696642686  43.9121017699115 107.01595323741  43.9121017699115 107.01595323741  C 43.9121017699115 107.01595323741  46.1623672566372 110.609814148681  46.1623672566372 110.609814148681  C 45.2374115044248 110.157152278177  43.4013053097345 109.238111510791  42.4763495575221 108.785449640288  C 42.4763495575221 108.785449640288  44.3952876106195 111.679742206235  44.3952876106195 111.679742206235  C 41.6756415929204 112.269574340528  38.9283849557522 111.981516786571  36.4020132743363 110.829286570743  C 34.5797123893805 112.818255395683  31.9152876106195 111.99523381295  29.5269690265487 111.940365707434  C 29.5269690265487 111.940365707434  30.9765265486726 114.697488009592  30.9765265486726 114.697488009592  C 30.9765265486726 114.697488009592  27.2628982300885 112.585065947242  27.2628982300885 112.585065947242  C 27.2628982300885 112.585065947242  29.6098008849558 115.506792565947  29.6098008849558 115.506792565947  C 27.815110619469 115.520509592326  24.2257300884956 115.520509592326  22.4448451327434 115.520509592326  C 22.4448451327434 115.520509592326  24.8883849557522 112.24214028777  24.8883849557522 112.24214028777  C 21.6855530973451 113.435521582734  22.6381194690266 118.620557553957  18.8692699115045 118.744010791367  C 14.824314159292 119.429862110312  10.8483849557522 120.431205035971  6.81723451327435 121.171924460432  C 7.09334070796462 117.166552757794  3.1312168141593 117.399742206235  0.301128318584091 117.043099520384  C 0.383960176991169 114.834658273381  0.425376106194715 112.6125  0.411570796460185 110.417775779376  C 0.949977876106214 110.116001199041  2.04059734513277 109.512452038369  2.57900442477878 109.224394484412  C 1.48838495575223 104.807511990408  2.78608407079647 100.198591127098  1.44696902654868 95.8365767386091  C 2.35811946902655 96.385257793765  4.18042035398232 97.4963369304556  5.10537610619471 98.0587350119904  C 5.11918141592921 94.9861211031175  5.06396017699116 91.9272242206235  4.70502212389382 88.8820443645084  C 7.13475663716816 86.5775839328537  5.67139380530976 82.9288549160671  7.43847345132745 80.3089028776978  C 7.86643805309737 78.155329736211  9.15033185840709 76.3446822541966  10.4894469026549 74.6574880095923  C 11.2211283185841 74.9866966426858  12.698296460177 75.631396882494  13.4299778761062 75.9468884892086  C 13.4299778761062 75.9468884892086  12.8639601769912 73.7795983213429  12.8639601769912 73.7795983213429  C 13.4437831858407 73.5738429256594  14.6034292035398 73.1623321342925  15.1694469026549 72.9565767386091  C 15.1694469026549 72.9565767386091  14.0650221238938 70.8527278177457  14.0650221238938 70.8527278177457  C 14.5205973451327 70.7429916067146  15.4317477876106 70.5235191846523  15.8873230088496 70.4137829736211  C 16.356703539823 69.2615527577938  17.2954646017699 66.9845263788968  17.7648451327434 65.8460131894484  C 16.7570575221239 65.6265407673861  14.741482300885 65.2013129496403  13.7336946902655 64.9818405275779  C 14.0098008849558 64.0216486810551  14.5482079646018 62.0875479616307  14.824314159292 61.113639088729  C 17.4197123893806 60.6884112709832  20.0013053097345 60.1945983213429  22.5552876106195 59.5636151079136  C 21.0643141592921 59.0698021582734  19.5181194690266 58.7268764988009  17.9581194690266 58.5348381294964  C 16.5223672566372 55.2016007194244  16.6742256637168 51.4294184652278  19.2144026548673 48.7134472422062  C 18.8416592920354 48.4391067146283  18.0685619469027 47.8904256594724  17.6820132743363 47.6160851318945  C 18.6345796460177 46.8616486810552  20.5397123893805 45.3802098321342  21.492278761062 44.625773381295  C 21.492278761062 44.625773381295  17.9719247787611 45.6957014388489  17.9719247787611 45.6957014388489  C 18.3032522123894 43.5146942446043  18.6069690265487 41.3336870503597  18.8968805309735 39.1389628297362  C 18.4136946902655 38.6588669064748  17.4473230088496 37.698675059952  16.9641371681416 37.2185791366907  C 17.1850221238938 33.2132074340527  16.9917477876106 29.2078357314149  17.1298008849558 25.202464028777  C 18.5793584070797 25.0790107913669  19.8356415929204 25.5728237410072  20.8986504424779 26.6976199040767  C 21.1195353982301 25.7511450839328  21.5613053097345 23.8581954436451  21.7821902654867 22.9117206235012  C 26.4621902654867 24.8458213429256  25.5924557522124 18.7417446043166  27.1800663716814 16.149226618705  C 26.8625442477876 15.4770923261391  26.2413053097345 14.1191067146283  25.9237831858407 13.4469724220623  C 25.9237831858407 13.4469724220623  28.7952876106195 15.5868285371702  28.7952876106195 15.5868285371702  C 28.9885619469027 12.3770443645084  29.3889159292035 9.18097721822543  30.0515707964602 6.03977817745801  C 30.9627212389381 4.69550959232614  32.9644911504425 4.96985011990406  34.2759955752213 4.29771582733814  C 35.532278761062 6.23181654676259  36.6919247787611 8.22078537170262  37.8239601769912 10.2234712230216  C 40.239889380531 9.82567745803358  42.5729867256637 9.13982613908872  44.8508628318584 8.24821942446042  C 48.6335176991151 9.44160071942447  52.6784734513274 9.09867505995204  56.1712168141593 7.19200839328535  C 57.7450221238938 7.16457434052758  59.4482522123894 7.16457434052758  61.0358628318584 7.17829136690647  C 61.3671902654867 5.27162470023978  61.6571017699115 3.36495803357312  61.9194026548673 1.47200839328538  C 62.664889380531 1.91095323741006  63.4241814159292 2.34989808153474  64.1834734513274 2.80255995203836  C 65.9919690265487 2.25387889688249  67.8280752212389 1.78749999999998  69.6779867256637 1.36227218225419  C 69.8712610619469 2.48706834532376  70.2716150442478 4.76409472422062  70.464889380531 5.88889088729016  C 72.4114380530973 6.78049760191847  74.2337389380531 5.27162470023978  76.0422345132743 4.7778117505995  Z " stroke-width="0.25" stroke="#ff0303" fill="none" mask="url(#clip76)" />
  </g>
</svg>