<?xml version="1.0" encoding="utf-8"?>
<svg version="1.1" xmlns:xlink="http://www.w3.org/1999/xlink" width="50px" height="21px" xmlns="http://www.w3.org/2000/svg">
  <defs>
    <mask fill="white" id="clip75">
      <path d="M 49.9255952380952 4.08088235294118  C 42.6426820728291 3.65735294117647  35.639880952381 1.82205882352941  28.6370798319328 0.269117647058825  C 25.6959033613445 2.9514705882353  22.9035364145658 6.19852941176471  19.2620798319328 7.89264705882353  C 12.9595588235294 9.30441176470588  6.51698179271709 9.02205882352941  0.0744047619047614 9.72794117647059  C 2.87552521008403 12.975  4.97636554621849 17.2014705882353  8.47776610644258 19.8838235294118  C 12.6794467787115 21.8602941176471  17.5814075630252 19.7426470588235  21.3629201680672 17.4838235294118  C 27.5253851540616 13.5308823529412  35.2197128851541 14.3779411764706  42.0824579831933 12.5426470588235  C 45.7239145658263 10.9897058823529  47.5446428571429 7.04558823529412  49.9255952380952 4.08088235294118  Z " fill-rule="evenodd" />
    </mask>
  </defs>
  <g transform="matrix(1 0 0 1 -115 -314 )">
    <path d="M 49.9255952380952 4.08088235294118  C 42.6426820728291 3.65735294117647  35.639880952381 1.82205882352941  28.6370798319328 0.269117647058825  C 25.6959033613445 2.9514705882353  22.9035364145658 6.19852941176471  19.2620798319328 7.89264705882353  C 12.9595588235294 9.30441176470588  6.51698179271709 9.02205882352941  0.0744047619047614 9.72794117647059  C 2.87552521008403 12.975  4.97636554621849 17.2014705882353  8.47776610644258 19.8838235294118  C 12.6794467787115 21.8602941176471  17.5814075630252 19.7426470588235  21.3629201680672 17.4838235294118  C 27.5253851540616 13.5308823529412  35.2197128851541 14.3779411764706  42.0824579831933 12.5426470588235  C 45.7239145658263 10.9897058823529  47.5446428571429 7.04558823529412  49.9255952380952 4.08088235294118  Z " fill-rule="nonzero" fill="#81d3f8" stroke="none" transform="matrix(1 0 0 1 115 314 )" />
    <path d="M 49.9255952380952 4.08088235294118  C 42.6426820728291 3.65735294117647  35.639880952381 1.82205882352941  28.6370798319328 0.269117647058825  C 25.6959033613445 2.9514705882353  22.9035364145658 6.19852941176471  19.2620798319328 7.89264705882353  C 12.9595588235294 9.30441176470588  6.51698179271709 9.02205882352941  0.0744047619047614 9.72794117647059  C 2.87552521008403 12.975  4.97636554621849 17.2014705882353  8.47776610644258 19.8838235294118  C 12.6794467787115 21.8602941176471  17.5814075630252 19.7426470588235  21.3629201680672 17.4838235294118  C 27.5253851540616 13.5308823529412  35.2197128851541 14.3779411764706  42.0824579831933 12.5426470588235  C 45.7239145658263 10.9897058823529  47.5446428571429 7.04558823529412  49.9255952380952 4.08088235294118  Z " stroke-width="0.189075630252101" stroke="#848484" fill="none" transform="matrix(1 0 0 1 115 314 )" mask="url(#clip75)" />
  </g>
</svg>