<?xml version="1.0" encoding="utf-8"?>
<svg version="1.1" xmlns:xlink="http://www.w3.org/1999/xlink" width="27px" height="129px" xmlns="http://www.w3.org/2000/svg">
  <defs>
    <filter x="186px" y="134px" width="27px" height="129px" filterUnits="userSpaceOnUse" id="filter26">
      <feOffset dx="1" dy="1" in="SourceAlpha" result="shadowOffsetInner" />
      <feGaussianBlur stdDeviation="0.5" in="shadowOffsetInner" result="shadowGaussian" />
      <feComposite in2="shadowGaussian" operator="atop" in="SourceAlpha" result="shadowComposite" />
      <feColorMatrix type="matrix" values="0 0 0 0 0.8  0 0 0 0 0.8  0 0 0 0 0.8  0 0 0 0.349019607843137 0  " in="shadowComposite" />
    </filter>
    <g id="widget27">
      <path d="M 16.0416666666666 4.10339256865916  L 12.5 0  L 8.95833333333337 4.10339256865916  L 16.0416666666666 4.10339256865916  Z M 22.9166666666667 4  L 2.08333333333331 4  C 0.916666666666685 3.89822294022611  0 4.80096930533125  0 5.94991922455574  L 0 124.94830371567  C 0 126.097253634895  0.916666666666685 127  2.08333333333331 127  L 22.9166666666667 127  C 24.0833333333333 127  25 126.097253634895  25 124.94830371567  L 25 5.94991922455574  C 25 4.80096930533125  24.0833333333333 3.89822294022611  22.9166666666667 4  Z " fill-rule="nonzero" fill="#f2f2f2" stroke="none" transform="matrix(1 0 0 1 186 134 )" />
    </g>
  </defs>
  <g transform="matrix(1 0 0 1 -186 -134 )">
    <use xlink:href="#widget27" filter="url(#filter26)" />
    <use xlink:href="#widget27" />
  </g>
</svg>