<?xml version="1.0" encoding="utf-8"?>
<svg version="1.1" xmlns:xlink="http://www.w3.org/1999/xlink" width="22px" height="26px" xmlns="http://www.w3.org/2000/svg">
  <g transform="matrix(1 0 0 1 -10 -101 )">
    <path d="M 0.372931640625001 15.9265234375  C -0.417859374999999 19.95200390625  0.968748046875001 22.89096875  6.26601953125 25.998908203125  C 4.597779296875 22.394810546875  5.4860703125 20.325728515625  6.7643359375 18.379080078125  C 8.16178515625 16.25365625  8.5301015625 14.140166015625  8.5301015625 14.140166015625  C 8.5301015625 14.140166015625  9.626392578125 15.631865234375  9.193076171875 17.962013671875  C 11.13106640625 15.701181640625  11.500474609375 12.1187421875  11.209091796875 10.7364765625  C 15.605021484375 13.9365078125  17.4801953125 20.865203125  14.9431640625 25.998908203125  C 28.408447265625 18.064921875  18.2926953125 6.194220703125  16.53561328125 4.850955078125  C 17.11949609375 6.19424609375  17.2278125 8.458302734375  16.04811328125 9.55352734375  C 14.04403125 1.629265625  9.082576171875 0  9.082576171875 0  C 9.665392578125 4.090505859375  6.948494140625 8.555802734375  4.3366875 11.902109375  C 4.2391875 10.27609375  4.1416875 9.145119140625  3.318396484375 7.5851953125  C 3.135330078125 10.545818359375  0.956814453125 12.966966796875  0.372931640625001 15.9265234375  Z " fill-rule="nonzero" fill="#d9001b" stroke="none" transform="matrix(1 0 0 1 10 101 )" />
  </g>
</svg>