<?xml version="1.0" encoding="utf-8"?>
<svg version="1.1" xmlns:xlink="http://www.w3.org/1999/xlink" width="21px" height="29px" xmlns="http://www.w3.org/2000/svg">
  <g transform="matrix(1 0 0 1 -10 -36 )">
    <path d="M 19.7961206896552 5.29066455696202  C 21.782974137931 3.9507911392405  21.1584051724138 0.624050632911388  18.5967672413793 0.256962025316452  C 16.3338362068965 -0.376265822784812  14.1885775862069 1.96851265822785  14.8629310344827 3.93243670886076  C 15.2883620689655 5.87341772151899  18.239224137931 6.56629746835443  19.7961206896552 5.29066455696202  Z M 16.8181034482759 12.9628164556962  C 18.7778017241379 14.1283227848101  20.2532327586207 13.0408227848101  19.5426724137931 10.6409810126582  C 18.9995689655173 8.81471518987341  17.9450431034483 7.67215189873418  17.9450431034483 7.67215189873418  C 17.9450431034483 7.67215189873418  14.2790948275862 3.99667721518987  12.8398706896552 4.03338607594936  C 12.8398706896552 4.03338607594936  1.48900862068964 4.18022151898734  0.262500000000008 7.6629746835443  C -0.529525862068957 9.89762658227848  0.751293103448292 12.6920886075949  4.51228448275861 12.7655063291139  C 4.11853448275862 13.2840189873418  3.80625000000002 13.8713607594937  3.99633620689656 14.5183544303798  C 4.3584051724138 16.8677215189873  4.95129310344826 19.1849683544304  5.38125000000003 21.5251582278481  C 3.94202586206898 23.1587025316456  2.30366379310343 24.65  0.991163793103432 26.3753164556962  C -0.00452586206898198 27.5224683544304  1.28987068965517 29.3992088607595  2.85129310344828 28.8623417721519  C 4.43081896551727 28.054746835443  5.47629310344828 26.6506329113924  6.70280172413795 25.4759493670886  C 7.60344827586207 24.4939873417722  8.68060344827587 23.6083860759494  9.32327586206897 22.4658227848101  C 9.34590517241379 20.5799050632911  8.63534482758621 18.7628164556962  8.50409482758619 16.890664556962  C 9.97047413793104 17.184335443038  10.8439655172414 18.3773734177215  11.9573275862069 19.1803797468354  C 12.7538793103448 19.8870253164557  13.7405172413793 20.4514240506329  14.3605603448276 21.3003164556962  C 14.2157327586207 23.4431962025316  13.8989224137931 25.5860759493671  13.9849137931034 27.7289556962025  C 14.0844827586207 28.9908227848101  16.1844827586207 29.3395569620253  16.8950431034483 28.3208860759494  C 17.8771551724138 27.045253164557  17.45625 25.3887658227848  17.6870689655173 23.9387658227848  C 17.71875 22.4153481012658  18.2980603448276 20.7634493670886  17.6010775862069 19.3180379746835  C 16.1709051724138 17.8496835443038  13.3422413793104 15.8536392405063  11.8441810344827 14.4449367088608  C 13.1476293103448 12.9352848101266  14.3198275862069 11.2099683544304  14.3198275862069 11.2099683544304  C 14.3198275862069 11.2099683544304  15.1163793103448 11.9533227848101  16.8181034482759 12.9628164556962  Z " fill-rule="nonzero" fill="#70b603" stroke="none" transform="matrix(1 0 0 1 10 36 )" />
  </g>
</svg>