<?xml version="1.0" encoding="utf-8"?>
<svg version="1.1" xmlns:xlink="http://www.w3.org/1999/xlink" width="26px" height="20px" xmlns="http://www.w3.org/2000/svg">
  <g transform="matrix(1 0 0 1 -2 -170 )">
    <path d="M 25.715491100857 8.93829120309956  C 25.425840474621 9.82497679361791  24.4420566908372 10.4790604442172  23.2697429136454 10.4790604442172  L 22.5704680290046 10.4790604442172  C 21.1753460777851 10.4790604442172  20.0373104812129 9.54865268454119  20.0373104812129 8.40313185260921  L 20.0373104812129 7.26635545450877  C 19.5865524060646 7.60214171363997  18.9918259723138 7.81025923883067  18.3353988134476 7.81025923883067  L 17.6361239288069 7.81025923883067  C 16.2392880685564 7.81025923883067  15.1012524719842 6.88160036592092  15.1012524719842 5.73607953398894  L 15.1012524719842 5.26038233355306  C 14.6504943968359 5.59616859268427  14.055767963085 5.80253723110866  13.3993408042189 5.80253723110866  L 12.7000659195781 5.80253723110866  C 11.3220830586684 5.80253723110866  10.1994726433751 4.89486499939462  10.1703361898484 3.77033080865833  C 9.77956493078444 4.10786595455585  9.27567567567568 4.31423459298024  8.72551087673039 4.31423459298024  L 7.49835201054713 4.31423459298024  C 7.33553065260382 5.04352037453083  7.51377719182597 7.01276687339405  6.62254449571523 7.75079708877618  C 6.11694133157548 8.22999206274467  5.46394199077126 7.39052641491666  5.46394199077126 7.39052641491666  C 6.88991430454845 5.80428611787497  6.79736321687541 3.26665141996152  6.79736321687541 3.26665141996152  C 7.15557020435069 1.29915380786461  5.87870797626895 0.235830653949122  5.14515491100857 0.235830653949122  C 4.93605800922874 0.235830653949122  4.70468029004614 0.288297256938372  4.46644693473962 0.372243821721174  C 4.46644693473962 0.372243821721174  3.05761371127225 1.11377181063592  2.49545154911009 1.6314422934632  C 1.96756756756757 2.00395517468688  0.958075148319051 3.22992479786905  0.853526697429136 3.35584464504325  L 0.827818061964403 3.31911802295077  C -0.562162162162162 5.62764855447782  1.15346077785102 8.00263678312459  1.15346077785102 8.00263678312459  C 3.36783124588003 11.9551208749815  7.52577455504285 17.1772967591783  7.52577455504285 17.1772967591783  C 9.46249176005274 18.8719680357311  8.35530652603823 19.858340171929  8.35530652603823 19.858340171929  L 22.8738299274885 20  L 23.6108108108108 17.4606164153202  C 24.9767963085036 14.7988107569989  25.5235332893869 11.6263301629155  25.715491100857 8.93829120309956  Z " fill-rule="nonzero" fill="#000080" stroke="none" transform="matrix(1 0 0 1 2 170 )" />
  </g>
</svg>