<?xml version="1.0" encoding="utf-8"?>
<svg version="1.1" xmlns:xlink="http://www.w3.org/1999/xlink" width="6px" height="10px" xmlns="http://www.w3.org/2000/svg">
  <g transform="matrix(1 0 0 1 -7 -163 )">
    <path d="M 4.20406817967793 9.97678484422917  C 4.94594594594595 9.97678484422917  5.57029852151803 9.46074919033562  5.75209530087579 8.76587085494827  L 5.75209530087579 1.93259006620619  C 5.75209530087579 1.46312802728497  5.68782371221396 0.947092373391419  5.49868160843771 0.669513628156258  C 0.91887183350598 -0.630821701871543  0.391844806478952 3.89054483964346  0.391844806478952 3.89054483964346  C 0.244938318109049 4.45874294230604  0.171485073924097 5.51503252987876  0.134758451831621 6.60485512023158  C 0.373481495432714 6.54710383766587  0.610368207929182 6.51170789028689  0.838073264902532 6.51170789028689  C 1.50282512477634 6.51170789028689  2.08677841604671 6.77810896792869  2.48342593464545 7.26247456364105  C 2.98107166399849 7.87165744747929  3.1518504567285 8.74537846436044  3.01412562388172 9.97678484422917  L 4.20406817967793 9.97678484422917  Z " fill-rule="nonzero" fill="#000080" stroke="none" transform="matrix(1 0 0 1 7 163 )" />
  </g>
</svg>