<?xml version="1.0" encoding="utf-8"?>
<svg version="1.1" xmlns:xlink="http://www.w3.org/1999/xlink" width="15px" height="17px" xmlns="http://www.w3.org/2000/svg">
  <g transform="matrix(1 0 0 1 -8 -230 )">
    <path d="M 14.765428828125 9.4195493186849  C 14.765428828125 8.03999837239583  14.3765912611607 6.69585547102865  13.6399187611607 5.53264363606771  C 12.9844665401786 4.49666723860677  12.0798601674107 3.64064917220052  11.0100664285714 3.04143652571615  L 10.2983093136161 0.326497395833333  L 4.46692329241071 0.326497395833333  L 3.75536239955357 3.04143652571615  C 2.6859610546875 3.64064917220052  1.78135463169643 4.49666723860677  1.12531389508929 5.53264363606771  C 0.389426082589286 6.69585547102865  0 8.03999837239583  0 9.4195493186849  C 0 11.6302159876302  0.993085613839286 13.6153996536458  2.560010625 14.9585698196615  C 2.92981831473214 15.2752965540365  3.33121163504464 15.5568097307943  3.75928603794643 15.796494789388  C 4.83045308035714 16.3976529563802  6.06680733816964 16.7406437942708  7.382616328125 16.7406437942708  L 7.40066529575893 16.7406437942708  C 11.4632524888393 16.7311108782552  14.765428828125 13.4506162132161  14.765428828125 9.4195493186849  Z M 11.1750575223214 9.42733130110677  C 11.1750575223214 11.4946149065755  9.48551725446429 13.170659383138  7.40066529575893 13.170659383138  C 6.78817747767857 13.170659383138  6.20982577566964 13.0259145100911  5.69837300223214 12.7691090901693  C 5.25440762276786 12.5463498557943  4.86066545758929 12.2391560872396  4.53931533482143 11.8691227981771  C 3.97018431361607 11.2132962669271  3.625880625 10.3601964563802  3.625880625 9.42733130110677  C 3.625880625 7.36043676985677  5.31600950892857 5.68439229329427  7.40066529575893 5.68439229329427  C 9.48551725446429 5.68439229329427  11.1750575223214 7.36043676985677  11.1750575223214 9.42733130110677  Z " fill-rule="nonzero" fill="#0087ff" stroke="none" transform="matrix(1 0 0 1 8 230 )" />
  </g>
</svg>