<?xml version="1.0" encoding="utf-8"?>
<svg version="1.1" xmlns:xlink="http://www.w3.org/1999/xlink" width="15px" height="17px" xmlns="http://www.w3.org/2000/svg">
  <g transform="matrix(1 0 0 1 -19 -228 )">
    <path d="M 15 9.19867069270833  C 15 7.81503421809896  14.6099853515625 6.46680578841146  13.8711548102679 5.30048116048177  C 13.2137407700893 4.26119743294271  12.3063877901786 3.40284472200521  11.2336512723214 2.80188114192708  L 10.5197361662946 0.0787709554036458  L 4.67128208705357 0.0787709554036458  L 3.95736693080357 2.80188114192708  C 2.88502285714286 3.40284472200521  1.97766987723214 4.26119743294271  1.31966727120536 5.30048116048177  C 0.581425245535714 6.46680578841146  0.191018253348215 7.81503421809896  0.191018253348215 9.19867069270833  C 0.191018253348215 11.4159520716146  1.18685042410714 13.406972249349  2.75848386160714 14.7542279436849  C 3.1294686328125 15.0719274134115  3.53203908482143 15.3542187884115  3.96129061941964 15.5946820452474  C 5.0355965625 16.1975911458333  6.27567833705357 16.5415547688802  7.595411015625 16.5415547688802  L 7.61365620535714 16.5415547688802  C 11.6882106361607 16.5318273157552  15 13.2417996848958  15 9.19867069270833  Z M 11.3992309821429 9.20645267513021  C 11.3992309821429 11.2799619163411  9.70458984375 12.9610646565755  7.61365620535714 12.9610646565755  C 6.99920651785714 12.9610646565755  6.419285390625 12.8157361223958  5.90626309151786 12.5581525042318  C 5.46092440848214 12.334809608724  5.06600516183036 12.0266431048177  4.74367412946428 11.6556371302083  C 4.1729736328125 10.9976704915365  3.82768903459821 10.142236086263  3.82768903459821 9.20645267513021  C 3.82768903459821 7.13352709505208  5.52272251674107 5.45261889192708  7.61365620535714 5.45261889192708  C 9.70458984375 5.45261889192708  11.3992309821429 7.13352709505208  11.3992309821429 9.20645267513021  Z " fill-rule="nonzero" fill="#0087ff" stroke="none" transform="matrix(1 0 0 1 19 228 )" />
  </g>
</svg>