<?xml version="1.0" encoding="utf-8"?>
<svg version="1.1" xmlns:xlink="http://www.w3.org/1999/xlink" width="29px" height="29px" xmlns="http://www.w3.org/2000/svg">
  <g transform="matrix(1 0 0 1 -7 -286 )">
    <path d="M 29 23.5623583917996  C 28.9998867134397 22.1091183961748  28.4192930918637 20.3249683578918  27.484792255887 18.9063374064409  C 26.7041912120881 17.7196040439396  25.7749582011657 16.9115310092661  24.7925937934591 16.5415937465819  L 26.406870634561 14.9273735487601  C 26.5803123583918 14.7539318249293  26.6316311702111 14.4946188883854  26.5378298982765 14.2689520602528  C 26.444085269622 14.0423789396378  26.2245925590262 13.895446270919  25.9803467350032 13.895446270919  L 21.1464092066816 13.895446270919  C 21.1198435082895 13.895446270919  21.0950903948623 13.8972022126037  21.0703372814351 13.9007707392534  C 21.4296256074504 12.9175566823445  21.6420379080269 11.8776993452818  21.6420379080269 10.820112661531  C 21.6420379080269 10.7997777239558  21.6402819663422 10.7802924355829  21.6402819663422 10.7590512055253  L 21.6420379080269 10.76080714721  C 21.6402819663422 10.7510645030236  21.6402819663422 10.7431344438021  21.6402819663422 10.7333917996156  C 21.6385260246574 10.4784970389237  21.6278770879885 10.2271708048815  21.6084484428958 9.98116903917371  C 21.4066850789881 5.31189352625904  21.2048650718002 3.87734581308499  18.4968064909293 1.72325851211776  C 16.8613450630498 0.422332296826415  14.9121365063987 0.00016992984046027  13.0730991296467 0.00016992984046027  C 9.69064565526509 0.00016992984046027  6.6816413269372 1.42769387627545  6.6816413269372 1.42769387627545  L 7.97639342469178 2.33483600793787  C 7.97639342469178 2.33483600793787  3.23812639654984 5.46330101411004  4.42842828570089 13.2919687641608  C 4.43726463740488 13.3503679859993  4.47000445333375 13.3769336843915  4.52404214260043 13.3769336843915  C 4.7444411456787 13.3769336843915  5.32849000734409 12.9264496773286  6.18782521055674 12.267178539619  C 6.47987796302951 13.9318679000578  7.24631818679 15.5045119302467  8.23043853618138 16.823110848946  L 8.21627771614294 18.91704298639  C 8.21095324780849 18.9276919230589  8.2065350719565 18.9400401581324  8.20036095441974 18.9506890948013  C 8.04283599231214 19.2587152522775  7.42689696392018 19.9082437458006  5.0594910698939 20.810967701611  C 4.39217658640248 21.0641065206182  3.88510594246605 21.4517164867103  2.38592824663656 21.8534872728409  L 2.28329062299795 21.8835648546026  C 0.917734425051174 22.3349551541478  0 23.6005359626232  0 25.0288529149804  L 0 29  L 13.8501882900761 29  L 23.5625849649202 28.9997734268794  C 26.5609403565792 28.9997734268794  29 26.5607137834586  29 23.5623583917996  Z M 22.6049170273607 15.1043837992406  L 24.5200263293592 15.1043837992406  L 23.5624716783599 16.06199509352  L 22.6049170273607 15.1043837992406  Z M 20.6631853836899 14.8627435661047  C 20.6791587886932 14.8848910886448  20.6986440770661 14.9070386111849  20.7180727221589 14.9273735487601  L 22.3341055049455 16.5415937465819  C 21.349928512274 16.9115310092661  20.4225080863165 17.7196040439396  19.6400944575527 18.9063374064409  C 19.6117728174758 18.950575808241  19.5816952357142 18.9957205025236  19.5533735956373 19.0408651968061  C 19.5321323655796 19.0090316733597  19.5144030188915 18.9788974483179  19.5002421988531 18.950575808241  C 19.4931617888339 18.9399268715721  19.4895932621842 18.9275786364986  19.4843254371299 18.9169296998297  L 19.4701646170914 16.8229975623857  C 19.9215549166367 16.2176508273825  20.3286501711018 15.5592293388753  20.6631853836899 14.8627435661047  Z M 9.4223830804569 19.1806608122256  L 9.42419566542182 18.9258226948138  L 9.42952013375627 18.2019215744488  C 10.8835531353032 19.640944106755  12.5464865540572 20.5418554776005  13.8500750035158 20.5418554776005  C 15.1537200962545 20.5418554776005  16.8170500179696 19.6410007500352  18.271989311999 18.2019215744488  L 18.2755011953685 18.9258226948138  L 18.2772571370533 19.1807174555057  L 18.3781388190071 19.4037786927512  C 18.3869751707111 19.4232639811241  18.4029485757145 19.460421972905  18.424133162492 19.5029044330203  C 18.5445001328187 19.7382572620592  18.7250222666688 19.9595625576199  18.9445149772646 20.1674433957842  C 18.8383088269763 20.3975283997687  18.7427516133569 20.6312385736831  18.6560307514415 20.8666480460022  C 17.6311272403394 21.5560534087535  16.0027462224792 22.3295173992531  13.8517743019204 22.3295173992531  C 12.2508086316546 22.3295173992531  10.7808588683845 21.9109235589168  9.48253824398019 21.0869904058003  C 9.08694157538635 20.8347578792756  8.76747347531916 20.580712767786  8.52764582714815 20.3683004672094  C 8.85243839554979 20.1037197056112  9.11441356626092 19.8160851289904  9.27460076253574 19.5046037314249  C 9.29669164179571 19.4621212713096  9.31260840351892 19.4249632795287  9.32150139850306 19.4045716986734  L 9.4223830804569 19.1806608122256  Z M 20.3624095660734 9.66691212088067  C 20.4084039095583 10.0404745534947  20.4331570229855 10.4263285779021  20.4331570229855 10.820112661531  C 20.4331570229855 11.2351946184977  20.3924305045549 11.658206634686  20.3163585793084 12.082974592559  L 18.6862216197634 12.082974592559  C 19.0614267075019 11.7643561416941  19.2879431848368 11.3431000671906  19.2879431848368 10.8749433567198  C 19.2879431848368 10.406786646249  19.0614267075019 9.98553057174555  18.6862216197634 9.66691212088067  L 20.3624095660734 9.66691212088067  Z M 15.6629431848368 10.875  C 15.6629431848368 10.6280919418098  16.133818772755 10.2705595574793  16.8719373564386 10.2705595574793  C 17.6081867118771 10.2705595574793  18.0790622997953 10.6280919418098  18.0790622997953 10.875  C 18.0790622997953 11.1210017657078  17.6082433551573 11.4794404425207  16.8719373564386 11.4794404425207  C 16.133818772755 11.4794404425207  15.6629431848368 11.1210017657078  15.6629431848368 10.875  Z M 19.3462857633952 8.45803123583918  L 12.1517395346657 8.45803123583918  C 13.8173351875869 7.69340359704361  15.6417019547791 7.15178055221338  17.5072483866431 7.15087425973093  C 17.6913390471428 7.15087425973093  17.8754297076425 7.15619872806538  18.0595203681423 7.16769731393659  L 19.3462857633952 8.45803123583918  Z M 9.6206912042752 10.875  C 9.6206912042752 10.6280919418098  10.0915101489132 10.2705595574793  10.8295720893167 10.2705595574793  C 11.5667843805178 10.2705595574793  12.0376033251559 10.6280919418098  12.0376033251559 10.875  C 12.0376033251559 11.1210017657078  11.5667843805178 11.4794404425207  10.8295720893167 11.4794404425207  C 10.0915101489132 11.4794404425207  9.6206912042752 11.1210017657078  9.6206912042752 10.875  Z M 13.245634560995 10.875  C 13.245634560995 10.4068432895292  13.0199677328625 9.9855872150257  12.6437997093614 9.66696876416082  L 15.0563502976702 9.66696876416082  C 14.6801822741691 9.9855872150257  14.4545154460365 10.4068432895292  14.4545154460365 10.875  C 14.4545154460365 11.3431567104708  14.6801822741691 11.7644127849743  15.0563502976702 12.0830312358392  L 12.6437997093614 12.0830312358392  C 13.0199110895823 11.7644127849743  13.245634560995 11.3431567104708  13.245634560995 10.875  Z M 7.69748191321468 13.2919121208807  L 20.0030079534978 13.2919121208807  C 19.5888322890135 14.5096860009063  18.8878716971108 15.7114864759286  17.9498023344844 16.7823276872353  C 17.2559787958811 17.5726713752207  16.4789462787318 18.2337550978952  15.7018571183024 18.6948313983468  C 15.0085433692204 19.106401471944  14.3509148866353 19.332974592559  13.8500183602356 19.332974592559  C 13.349121833836 19.332974592559  12.691549994531 19.106401471944  11.9986327484101 18.6948313983468  C 11.2216002312608 18.2337550978952  10.4445677141116 17.5726713752207  9.75068753222807 16.7823276872353  C 8.81171187711924 15.7115431192087  8.11080792849665 14.5096860009063  7.69748191321468 13.2919121208807  Z M 5.45321851024267 11.3079245902152  C 5.42138498679626 10.3599426535619  5.486864618654 9.45455646358423  5.64880775661359 8.60145202118849  C 5.85498929637327 7.51288146319359  6.22050838320546 6.50315835117271  6.73290349547635 5.60134068784474  C 7.58515828866978 4.10391893370002  8.57726534056284 3.38885416503899  8.64540720658781 3.34104723658922  L 10.1472471365845 2.38083035142272  L 9.28524969920465 1.77638990890198  C 10.333093738769 1.48082527305968  11.6765024141757 1.20820116567964  13.0730424863665 1.20820116567964  C 14.9545623232339 1.20820116567964  16.5267532071816 1.70026134037533  17.7444704439271 2.6684649280435  C 18.4029485757145 3.19241526946576  18.8648745253684 3.64018039908121  19.1994663812366 4.08092176195759  C 19.5180281888214 4.49775966060909  19.7410894260668 4.93583878931825  19.9003703298592 5.45973248746035  C 20.0827050486742 6.05533657827711  20.1906671406472 6.77481952279013  20.2667957091739 7.66870712689657  L 18.9162499804678 6.31464951482101  L 18.5906077628639 5.9881010047346  L 18.1303811116146 5.96068565714018  C 17.9250492210572 5.9482807787865  17.7162054471303 5.94301295373221  17.5073050299233 5.94301295373221  C 16.3019926715315 5.94301295373221  15.0333531259278 6.14834484428958  13.7376947356907 6.5519282153851  C 12.656204587715 6.88912566214041  11.5269641545697 7.37495507601919  10.3782384330515 7.99446263106083  C 8.35074886322796 9.09186954075972  6.61519875931684 10.4176055127584  5.45321851024267 11.3079245902152  Z M 7.29491812116193 11.4290279231839  C 7.64978827132522 11.1661464599903  8.03207376908292 10.8909167617232  8.43741308186321 10.6121751800866  C 8.42149632014001 10.6971401003172  8.41260332515587 10.7856169039174  8.41260332515587 10.875  C 8.41260332515587 11.3431567104708  8.63827015328844 11.7644127849743  9.01443817678954 12.0830312358392  L 7.3833949247621 12.0830312358392  C 7.34442434801631 11.8635385252434  7.31434676625467 11.6458583996125  7.29491812116193 11.4290279231839  Z M 1.22383471100208 24.7702763410785  C 1.32205415878869 23.9782333546885  1.86633943778615 23.301289513571  2.64246566245293 23.0375584011751  L 2.7106075284779 23.0180731128022  C 3.83990460490335 22.7136154819757  4.46377369251684 22.4144823194837  4.96557651139897 22.1745980280326  C 5.15940981608513 22.0816464053002  5.32667742237917 22.0020059534041  5.48952685282123 21.940094848196  C 6.10552252449334 21.704685375877  6.82676141069113 21.4091207400347  7.48342695751363 21.051531712424  C 8.3489929215432 21.8905319780615  10.4773641733206 23.5374919918121  13.8518875884807 23.5374919918121  C 15.6329788896354 23.5374919918121  17.0949419504039 23.0782282763254  18.2135900901605 22.5223877681766  C 18.1569468100067 22.8808264449896  18.1251132865603 23.2304287700986  18.1251132865603 23.5622451052393  C 18.1251132865603 23.9772704189259  18.1729202150101 24.3826097317062  18.2613970186102 24.7702763410785  L 1.22383471100208 24.7702763410785  Z M 20.1499406222167 27.7916855477601  L 13.8500750035158 27.7916855477601  L 1.20786130599872 27.7916855477601  L 1.20786130599872 26  L 18.6932453865025 26  C 19.0436973608138 26.6837429879526  19.5427813022485 27.3014379580293  20.1499406222167 27.7916855477601  Z M 27.7928750566433 23.5623017485195  C 27.7928184133631 25.8942489491695  25.8953818147726 27.7916855477601  23.5624716783599 27.7916855477601  C 21.2313741269122 27.7916855477601  19.3339375283216 25.8942489491695  19.3339375283216 23.5623017485195  C 19.3339375283216 22.3330292826226  19.838402581371 20.8037740050315  20.6490812069316 19.5709896557651  C 21.5075101176618 18.2673445630264  22.5695149772646 17.5204462709189  23.5625283216401 17.5204462709189  C 24.5555416660156 17.5204462709189  25.6174898823382 18.2674012063065  26.4759754363486 19.5709896557651  C 27.2884100035939 20.8037740050315  27.7928750566433 22.3330292826226  27.7928750566433 23.5623017485195  Z " fill-rule="nonzero" fill="#000000" stroke="none" transform="matrix(1 0 0 1 7 286 )" />
  </g>
</svg>