<?xml version="1.0" encoding="utf-8"?>
<svg version="1.1" xmlns:xlink="http://www.w3.org/1999/xlink" width="13px" height="7px" xmlns="http://www.w3.org/2000/svg">
  <g transform="matrix(1 0 0 1 -14 -302 )">
    <path d="M 12.6543119208713 4.70107973811272  L 12.1729006828445 3.54000578152101  C 12.1729006828445 3.54000578152101  11.9463275622295 0.679633420316577  11.9180059221526 0.538081863212341  C 11.8896842820757 0.396473662827944  11.1675391033955 1.31687032204634  11.1675391033955 1.31687032204634  L 9.05769020422832 3.2143069206369  L 6.621745941216 3.69577480194384  C 6.621745941216 3.69577480194384  4.79511344281763 3.41255840117505  4.73847016266387 3.33291794927887  C 4.68182688251012 3.25327749738269  2.17553166554682 0.94868900104693  2.04808428520087 0.792919980624092  L 1.84983280466272 3.33291794927887  L 0.830310405175243 4.24793349688267  L 1.58077722393237 5.25335171961186  L 4.90840000312515 6.95871095520103  C 4.90840000312515 6.95871095520103  8.78863462349798 6.58435551666484  8.87359954372861 6.55603387658797  C 8.95856446395925 6.52771223651109  11.153378283357 6.03208353516571  11.153378283357 6.03208353516571  L 12.6543119208713 4.70107973811272  Z " fill-rule="nonzero" fill="#eac6bb" stroke="none" transform="matrix(1 0 0 1 14 302 )" />
  </g>
</svg>