<?xml version="1.0" encoding="utf-8"?>
<svg version="1.1" xmlns:xlink="http://www.w3.org/1999/xlink" width="19px" height="17px" xmlns="http://www.w3.org/2000/svg">
  <g transform="matrix(1 0 0 1 -10 -361 )">
    <path d="M 18.5833874863076 2.18126612746276  C 19.1687803186485 2.47283949047672  18.8760839024781 5.07919341056524  18.8760839024781 5.07919341056524  C 18.8043149627257 5.46469347929727  18.6806647110218 5.8377292304576  18.50772737345 6.18761728886603  C 18.1519087737258 6.95861731237164  17.5526809543792 7.58271773631325  16.8077533451183 7.95753420194819  C 16.883413457976 9.63040832991936  17.0247896484311 11.1568282078828  15.1077793167866 12.8880170312485  C 12.8691055372584 14.9205725774463  12.8691055372584 16.942889528228  10.6308639627243 16.942889528228  L 8.38311100064361 16.942889528228  C 8.27891617174662 16.942889528228  8.18466537810989 16.942889528228  8.09041447379326 16.9330962823683  C 6.13535792788299 16.7581523101433  6.04067470789241 14.8230846706959  3.90619564658133 12.8880170312485  C 2.75443297835254 11.9794656463576  2.105485646784 10.5491981962678  2.16860771965779 9.05660984207022  C 2.16860771965779 8.69648341616258  2.18719851111674 8.32700875207617  2.20622161824965 7.95753420194819  C 1.12493083207149 7.37483271151815  0.362709599733302 6.31403992551476  0.137891060889846 5.07919341056524  C 0.137891060889846 5.07919341056524  -0.154805465960502 2.47283949047672  0.430587477060295 2.18126612746276  C 0.931241013990967 1.94800745984328  1.48853166732631 2.47283949047672  1.66795407204722 2.6771634281979  C 1.6203963595549 1.95780081966149  1.60180556809595 1.10177709301871  1.6203963595549 0  L 17.3931462881391 0  C 17.4121692845921 1.10177709301871  17.3931462881391 1.95780081966149  17.3460207806408 2.6771634281979  C 17.5254432960416 2.47283949047672  18.0827338386971 1.94800745984328  18.5833874863076 2.18126612746276  Z " fill-rule="nonzero" fill="#dfc49c" stroke="none" transform="matrix(1 0 0 1 10 361 )" />
  </g>
</svg>