<?xml version="1.0" encoding="utf-8"?>
<svg version="1.1" xmlns:xlink="http://www.w3.org/1999/xlink" width="5px" height="8px" xmlns="http://www.w3.org/2000/svg">
  <g transform="matrix(1 0 0 1 -28 -305 )">
    <path d="M 4.37494335671985 2.750736362642  C 4.70947856930794 2.750736362642  4.9803467350032 2.47998148350704  4.9803467350032 2.14629592012125  C 4.9803467350032 1.81261035673548  4.70953521258809 1.54179883432036  4.37494335671985 1.54179883432036  L 3.16606247167836 1.54179883432036  L 3.16606247167836 0.93735839179962  C 3.16606247167836 0.603729471693981  2.89700689094801 0.332917949278873  2.56247167835992 0.332917949278873  C 2.2296924074566 0.332917949278873  1.95888088504149 0.603729471693981  1.95888088504149 0.93735839179962  L 1.95888088504149 1.54179883432036  L 0.75 1.54179883432036  C 0.505754175977 1.54179883432036  0.286204822101038 1.68873150303921  0.192403550166414 1.91530462365424  C 0.0986022782317946 2.1409714517868  0.149921090051098 2.4002843883307  0.323362813881904 2.57372611216151  L 1.95882424176133 4.20924418332109  L 1.95882424176133 5.16764848352267  L 0.74994335671985 5.16764848352267  C 0.417164085816523 5.16764848352267  0.146352563401411 5.43846000593778  0.146352563401411 5.77214556932357  C 0.146352563401411 6.10583113270935  0.417164085816523 6.37567971936185  0.74994335671985 6.37567971936185  L 1.95882424176133 6.37567971936185  L 1.95882424176133 6.97921386940013  C 1.95882424176133 7.31374908198822  2.22963576417645 7.58371095520103  2.56241503507977 7.58371095520103  C 2.89695024766786 7.58371095520103  3.16600582839821 7.31374908198822  3.16600582839821 6.97921386940013  L 3.16600582839821 6.37567971936185  L 4.37488671343969 6.37567971936185  C 4.6191325374627 6.37567971936185  4.83868189133866 6.228747050643  4.93248316327328 6.00223057330813  C 5.0262844352079 5.77741339437786  4.9749656233886 5.51725080863166  4.80152389955779 5.34375244152069  L 3.16606247167836 3.70829101364126  L 3.16606247167836 2.750736362642  L 4.37494335671985 2.750736362642  Z " fill-rule="nonzero" fill="#000000" stroke="none" transform="matrix(1 0 0 1 28 305 )" />
  </g>
</svg>