<?xml version="1.0" encoding="utf-8"?>
<svg version="1.1" xmlns:xlink="http://www.w3.org/1999/xlink" width="17px" height="17px" xmlns="http://www.w3.org/2000/svg">
  <g transform="matrix(1 0 0 1 -10 -361 )">
    <path d="M 16.5489897543427 2.18126612746276  C 17.1645410990388 2.47283949047672  16.8565382423729 5.07919341056524  16.8565382423729 5.07919341056524  C 16.7815818381792 5.46469347929727  16.651203159657 5.8377292304576  16.4694905941597 6.18761728886603  C 16.0956169615751 6.95861731237164  15.465982863979 7.58271773631325  14.6832559590256 7.95753420194819  C 14.7627552355046 9.63040832991936  14.9117595392124 11.1568282078828  12.8970215564835 12.8880170312485  C 10.6542341296115 14.8230846706959  10.5552008395635 16.7581523101433  8.50094022846887 16.9330962823683  C 6.44667973367031 16.7581523101433  6.34719207498654 14.8230846706959  4.10440476441056 12.8880170312485  C 2.89419907819877 11.9794656463576  2.21232270524429 10.5491981962678  2.27864773350277 9.05660984207022  C 2.27864773350277 8.69648341616258  2.29818186336774 8.32700875207617  2.31817024557244 7.95753420194819  C 1.18201234257876 7.37483271151815  0.381114297371591 6.31403992551476  0.144887962225147 5.07919341056524  C 0.144887962225147 5.07919341056524  -0.162660642101008 2.47283949047672  0.452436450255257 2.18126612746276  C 0.978494269221818 1.94800745984328  1.56406309875879 2.47283949047672  1.75258979824017 2.6771634281979  C 1.70261890087644 1.95780081966149  1.68308477101148 1.10177709301871  1.70261890087644 0  L 15.2988073037216 0  C 15.3183414335865 1.10177709301871  15.2988073037216 1.95780081966149  15.2488364063578 2.6771634281979  C 15.4373632221353 2.47283949047672  16.0229319353762 1.94800745984328  16.5489897543427 2.18126612746276  Z " fill-rule="nonzero" fill="#ffe0b2" stroke="none" transform="matrix(1 0 0 1 10 361 )" />
  </g>
</svg>