<?xml version="1.0" encoding="utf-8"?>
<svg version="1.1" xmlns:xlink="http://www.w3.org/1999/xlink" width="13px" height="10px" xmlns="http://www.w3.org/2000/svg">
  <g transform="matrix(1 0 0 1 -14 -348 )">
    <path d="M 11.5438552707141 0.656381203672938  C 12.450159193328 2.97952514537441  12.9247695758527 5.47168277319816  12.9407581696345 7.99148066571266  C 10.9985582354728 9.25794988921547  8.7769777215271 9.94170728937691  6.50658975689619 9.97116014834106  C 6.04544349869836 9.97387880775393  5.58471807517049 9.94080110823883  5.12820002892531 9.87192693379716  C 3.33705076648481 9.64264849003667  1.61322212567902 9.00103118076423  0.0728420711148505 7.99148066571266  C 0.0909345151074299 5.65202441953816  0.498645110667445 3.33522409379912  1.27661901750542 1.15118765668952  C 1.34099433501538 0.963143122679955  1.40536965252533 0.805004422204973  1.46974497003528 0.656381203672938  C 1.58334857290037 0.389946781281536  1.79919528908844 0.190574171055636  2.0609042595499 0.110825126965277  C 2.32261312229838 0.0306229923058738  2.60367671762333 0.0782005180192201  2.83004236172657 0.240870472180459  C 3.53228056922549 0.853035038487362  4.30436397552693 1.36551329968132  5.12820002892531 1.7651647012712  C 5.56662563117791 1.95320935127937  6.03450395153922 2.0506300875485  6.50658975689619 2.05198947525424  C 7.39564279714445 2.021630435152  8.25608446548496 1.70807169361491  8.97936031338823 1.15118765668952  C 9.45733672699473 0.83445716517051  9.85242465214174 0.478305126176758  10.1831372597788 0.240870472180459  C 10.409502796169 0.0782005180192201  10.690987226164 0.0306229923058738  10.9526960889124 0.110825126965277  C 11.2144049516609 0.190574171055636  11.430251775562 0.389946781281536  11.5438552707141 0.656381203672938  Z " fill-rule="nonzero" fill="#f57c00" stroke="none" transform="matrix(1 0 0 1 14 348 )" />
  </g>
</svg>