<?xml version="1.0" encoding="utf-8"?>
<svg version="1.1" xmlns:xlink="http://www.w3.org/1999/xlink" width="25px" height="11px" xmlns="http://www.w3.org/2000/svg">
  <g transform="matrix(1 0 0 1 -8 -353 )">
    <path d="M 24.9634050672521 5.09459661073042  C 24.9634050672521 8.44107764134046  19.6082221522854 10.964036722526  12.50686966369 10.964036722526  C 5.40595588515595 10.964036722526  0.0503343724161973 8.44107764134046  0.0503343724161973 5.09459661073042  C 0.0503343724161973 2.97287490762454  2.14915901323106 1.15208123807837  5.80729856151045 0.0983852250661745  C 6.12354776776807 0.00927120586944663  6.46304411574486 0.0903247100583071  6.70779739346449 0.313333820465973  C 6.95255067118413 0.538134283807886  7.06703198868772 0.875782645095444  7.01088788051269 1.2067139487562  C 6.87798422137006 1.98545482616653  6.7963997580341 2.77270399949866  6.7670119106274 3.56264008759292  C 8.53204231137995 4.53662593915807  10.5010337020401 5.06235432142045  12.50686966369 5.09459661073042  C 14.5131443354013 5.06593679801045  16.4825743238344 4.540656196662  18.2467275290409 3.56398354497398  C 18.2173395693459 2.77359967596579  18.1357552182982 1.98590260708046  18.0024129613825 1.2067139487562  C 17.9462688532075 0.875334864181508  18.0607501707111 0.538134283807886  18.3050647383694 0.313333820465973  C 18.5493793060278 0.0885334717633097  18.8901916719002 0.00703207202125888  19.2068794759309 0.0983852250661745  C 22.8654576219833 1.15208123807837  24.9634050672521 2.97287490762454  24.9634050672521 5.09459661073042  Z M 4.84144439441775 4.11658050166134  C 4.84144439441775 3.57652221303897  4.86644603951739 3.02616427556055  4.91644944200489 2.46550668922608  C 3.08694101394803 3.20797490518325  1.96669066166221 4.18240853766234  1.96669066166221 5.09459661073042  C 1.96669066166221 6.94225896934081  6.47444844386202 9.00755672347387  12.50686966369 9.00755672347387  C 18.5397295935793 9.00755672347387  23.047048778006 6.94225896934081  23.047048778006 5.09459661073042  C 23.047048778006 4.18240853766234  21.9272369112051 3.20797490518325  20.0977285954364 2.46550668922608  C 20.1472932878626 3.02526859909343  20.1722949329623 3.57562653657185  20.1727335307353 4.11658050166134  C 20.1727335307353 4.44348154781816  20.0126351253395 4.748887734435  19.7459506115081 4.93025058314376  C 17.5646643118112 6.29159168734248  15.0631810890344 7.02465593091073  12.50686966369 7.05107672442177  C 9.95055823834562 7.02465593091073  7.44907501556884 6.29159168734248  5.26822742593318 4.93025058314376  C 5.00154291210178 4.748887734435  4.84144439441775 4.44348154781816  4.84144439441775 4.11658050166134  Z " fill-rule="nonzero" fill="#000000" stroke="none" transform="matrix(1 0 0 1 8 353 )" />
  </g>
</svg>