<?xml version="1.0" encoding="utf-8"?>
<svg version="1.1" xmlns:xlink="http://www.w3.org/1999/xlink" width="10px" height="7px" xmlns="http://www.w3.org/2000/svg">
  <g transform="matrix(1 0 0 1 -10 -360 )">
    <path d="M 9.71461140185745 5.73012136226696  C 9.50617640025764 5.93031591031514  8.30899991153538 6.92789552262305  5.1736428959451 6.92789552262305  C 3.05661445452743 6.8850572010336  1.13300668552585 5.73521105416649  0.157954813635238 3.92964277137312  C 0.10363803707461 3.82191101378978  0.0714012960217589 3.70527221394719  0.0630109887953267 3.58566450859828  C 0.00913578355198586 2.80397263388375  -0.00587865868122052 1.9480560584894  0.0166429481438438 0.969562872239806  C 0.0241502257851922 0.665453699807809  0.186217186733516 0.384248303793842  0.45073536321259 0.217136698802558  C 0.715253539691662 0.0496010885447614  1.04866125059779 0.0173662646009769  1.34232494280972 0.131036158937242  C 3.80424262767995 0.996283781857362  6.41144654599614 1.41575919543194  9.0323399664947 1.36867951821626  C 9.56535068740742 1.36867951821626  9.99723513284023 1.78348946231802  9.99723513284023 2.29542755777735  L 9.99723513284023 5.07482355734748  C 9.99723513284023 5.32082522391135  9.89566717299355 5.55622350140963  9.71461140185745 5.73012136226696  Z M 1.93980914582814 2.29457933008414  C 1.94510834078407 2.63177144557303  1.95747312901456 2.95242192666334  1.97557868351828 3.25907589075505  C 2.63930288001053 4.35802522720695  3.85105212659923 5.04598186133672  5.1736428959451 5.07482355734748  C 6.16547549533807 5.12020656201656  7.15465855377782 4.94927782382574  8.06788648451594 4.57476130107363  L 8.06788648451594 3.20648240779324  C 5.9928100314284 3.15728205276445  3.93274802057407 2.85062808867274  1.93980914582814 2.29457933008414  Z " fill-rule="nonzero" fill="#000000" stroke="none" transform="matrix(1 0 0 1 10 360 )" />
  </g>
</svg>