<?xml version="1.0" encoding="utf-8"?>
<svg version="1.1" xmlns:xlink="http://www.w3.org/1999/xlink" width="11px" height="10px" xmlns="http://www.w3.org/2000/svg">
  <g transform="matrix(1 0 0 1 -14 -348 )">
    <path d="M 9.70845367216762 1.23814417842865  C 10.5163874402735 3.87031583997818  10.9408257064706 6.60443925948587  10.9685756547515 9.35668757773998  C 10.9685756547515 9.35668757773998  8.75449136360324 9.58279415551994  5.54459233896625 9.95888345553628  C 3.60800788000281 9.7296050117758  1.74421024699484 9.08798770250336  0.0787565982566596 8.07843718745179  C 0.165645900855753 5.35156368104322  0.668329888496105 2.65323662046349  1.56906697615418 0.0767988108617379  C 2.29466056005375 0.552121209423379  2.55123412154685 1.3477991720522  3.59845463821088 1.23180056246622  C 6.57953004963557 0.901929516456094  5.04827725682647 1.71029482700838  5.54459233896625 1.85212122301033  C 6.01861660123083 2.0401658730185  6.52448504162146 2.13758660928763  7.03490260040486 2.13894599699337  C 7.9961437080237 2.10858695689114  8.92645029815254 1.79502821535404  9.70845367216762 1.23814417842865  Z " fill-rule="nonzero" fill="#ff9801" stroke="none" transform="matrix(1 0 0 1 14 348 )" />
  </g>
</svg>