<?xml version="1.0" encoding="utf-8"?>
<svg version="1.1" xmlns:xlink="http://www.w3.org/1999/xlink" width="22px" height="18px" xmlns="http://www.w3.org/2000/svg">
  <g transform="matrix(1 0 0 1 -9 -360 )">
    <path d="M 15.797338320838 15.835825821285  C 14.9971472150947 16.8878592956022  14.1700090052126 17.9770730675022  12.1900841822899 17.9770730675022  L 9.82467905223464 17.9770730675022  C 7.84475411238904 17.9770730675022  7.01715920165452 16.8878592956022  6.21742491368657 15.835825821285  C 5.71273808407296 15.1247527111371  5.11396503270721 14.4749424561232  4.43526407063014 13.9016053943034  C 2.85726160398894 12.7359185373703  2.03880129491816 10.9009863239491  2.26944995769678 9.04492899552723  C 1.14361033187199 8.30385811824404  0.373106652305093 7.18718165357892  0.120078244681044 5.93065665071783  C -0.277733687005402 2.76357130208513  0.650798542882681 2.36177055912313  1.00065384506524 2.21009181808089  C 1.21120638418364 2.1184086113093  1.44048494440487 2.06939821904124  1.67296052751624 2.06601819198827  C 1.67022008855567 1.7161853920059  1.67387392922116 1.35114247028516  1.6830086478078 0.966241862588006  C 1.69077302999125 0.663306965005805  1.85839299975154 0.383187195950717  2.13197423188827 0.216298333170118  C 2.4055555809479 0.0498320548917869  2.74993012213222 0.0177217978885743  3.05365559822073 0.130952704163064  C 5.59992584121799 0.992437126328955  8.29646025235298 1.41029294371213  11.0071532083746 1.36339504131196  C 13.7183029821716 1.41029294371213  16.4148373933066 0.992437126328955  18.9611076363038 0.130530227821657  C 19.2648331123923 0.0172992133863036  19.6092076535767 0.0494095785503824  19.8827890026363 0.216298333170118  C 20.156370234773 0.382764719609312  20.3244469053858 0.662884380503536  20.3317545867168 0.965819386246602  C 20.3408891883805 1.35071999394376  20.344543029046 1.71703034468871  20.3418027070083 2.06644066832968  C 20.5742782901197 2.06982069538265  20.8035568503409 2.1184086113093  21.0141093894593 2.20966934173949  C 21.363964574719 2.36134808278172  22.2924968046071 2.76357130208513  21.8987955313615 5.89896887005602  C 21.6530746881455 7.16774655210478  20.8798306865409 8.29667558779669  19.7453131599049 9.04492899552723  C 19.9759618226835 10.9005638476077  19.1579583313881 12.7354960610288  17.5794991638944 13.901182917962  C 16.9007982018173 14.4749424561232  16.3020251504516 15.1247527111371  15.797338320838 15.835825821285  Z M 2.09771944641854 5.68644964206033  C 2.28452213813412 6.52004878695879  2.85041062351042 7.23914959655855  3.65105854702909 7.65954038015102  C 3.71682767900799 7.682355616839  3.77985637202633 7.71193090763291  3.8387746404496 7.7478436680305  C 4.13564913605958 7.92656251733563  4.30783634819029 8.23794759071112  4.2909373643431 8.56538763034692  L 4.28317298215965 8.71495388152127  C 4.20552880955644 10.1637179500602  4.1498077978691 11.2115263364809  5.75247363054094 12.514949349903  C 6.55129451680396 13.1833496455473  7.25557236353949 13.9421657189391  7.84932147168236 14.7736523739696  C 8.63261359357849 15.8049831014668  8.92400732819022 16.1311557120784  9.82467905223464 16.1311557120784  L 12.1900841822899 16.1311557120784  C 13.0902992054819 16.1311557120784  13.3816929400936 15.8049831014668  14.1649850619897 14.7736523739696  C 14.7587341701326 13.9421657189391  15.4634686007977 13.1833496455473  16.2618329031312 12.514949349903  C 17.8649554366555 11.2115263364809  17.8092343080452 10.1641404264016  17.7315902523649 8.71495388152127  L 17.723369169329 8.56538763034692  C 17.7069267694114 8.23794759071112  17.8786572806896 7.92656251733563  18.1755318932225 7.7478436680305  C 18.2344500447229 7.71193090763291  18.2974788546641 7.682355616839  18.3637046874955 7.65954038015102  C 19.1757707169402 7.2319670661112  19.7453131599049 6.49723365843168  19.9225244321814 5.64842428363399  C 19.9814427006046 5.16001048264072  20.0001686047846 4.66821643827275  19.9782455607916 4.17726756290931  C 19.6809142474063 4.44090967304096  19.2387995268814 4.50808773775895  18.866107779001 4.34711386824062  C 18.4929593302681 4.18614010688314  18.2650509895271 3.82912477645342  18.2924547945183 3.44929420933572  C 18.3189451978046 3.0825612740885  18.3363008825043 2.69639323736714  18.3431518629828 2.28571995043131  C 15.9590208287476 2.91905254652174  13.4881110202454 3.23043751173637  11.0071532083746 3.20931228857487  C 8.52665221427915 3.23043751173637  6.05574240577699 2.91905254652174  3.67161137154178 2.28571995043131  C 3.67800565116784 2.69639323736714  3.69581803671995 3.0825612740885  3.72185173915378 3.44929420933572  C 3.74971224499745 3.82912477645342  3.5218039042565 4.18614010688314  3.14865545552359 4.34711386824062  C 2.77550700679068 4.50808773775895  2.3338489871183 4.44090967304096  2.03651767373295 4.17726756290931  C 2.01459462973998 4.68131407014322  2.03514745425267 5.18578316187939  2.09771944641854 5.68644964206033  Z " fill-rule="nonzero" fill="#000000" stroke="none" transform="matrix(1 0 0 1 9 360 )" />
  </g>
</svg>