<?xml version="1.0" encoding="utf-8"?>
<svg version="1.1" xmlns:xlink="http://www.w3.org/1999/xlink" width="16px" height="11px" xmlns="http://www.w3.org/2000/svg">
  <g transform="matrix(1 0 0 1 -13 -348 )">
    <path d="M 15.5262857499206 8.95704401914784  C 13.2606087015796 10.2197372172452  10.6623467836266 10.8996808634534  8.00713544084262 10.92418710671  C 5.35192409805866 10.8996808634534  2.75366218010561 10.2197372172452  0.488440814870926 8.95704401914784  C 0.211438670668344 8.78882340585275  0.0451461775460526 8.50554810232409  0.0451461775460526 8.20233553777284  C 0.0633700028225387 5.76375937869634  0.609173628169522 3.35259690035988  1.65203200045829 1.10716282452466  C 1.8925864941079 0.619115262492827  2.35683847218449 0.252768144368765  2.92132137264928 0.105730791161135  C 3.48534882327274 -0.0413064557144371  4.09220220497972 0.046334447447046  4.57923390633567 0.344562590410592  C 4.7377811862411 0.440926018686443  4.90954082694634 0.555980602587958  5.09679054418787 0.681003923332827  C 5.90501725351624 1.34433318535557  6.92509590252565 1.75429314171559  8.00713544084262 1.85065656999144  C 9.08963066226586 1.75429314171559  10.1092537448015 1.34433318535557  10.9170247710236 0.681003923332827  C 11.1047301713714 0.555980602587958  11.2769453785504 0.440926018686443  11.4345814088758 0.34414725738897  C 11.9225243598118 0.0459190080933644  12.5293777415188 -0.0413064557144371  13.0938606419835 0.105730791161135  C 13.6587992255546 0.253183477390388  14.1235068867375 0.619530595514449  14.3640613803871 1.1079934905679  C 15.4060085030958 3.35342756640313  15.9513564453365 5.76417471171797  15.969580270613 8.20233553777284  C 15.969580270613 8.50554810232409  15.8032878941232 8.78882340585275  15.5262857499206 8.95704401914784  Z M 3.47213657910542 1.85273334143161  C 2.61607235758438 3.703991072717  2.13314098775751 5.68068745776889  2.04657775937797 7.6881204003979  C 3.87898344924483 8.59194290008864  5.92369664526652 9.07957502276679  8.00713544084262 9.10948091430068  C 10.091029919525 9.08289789960389  12.1366542484943 8.59568110994736  13.9681486887811 7.68978183881645  C 13.8797631945064 5.68442566762761  13.4000209066285 3.70897538797265  12.5512463318505 1.85688688431195  C 12.4063668625862 1.93580526235907  12.2573871784253 2.03507612811834  12.0961062664122 2.14306973165609  C 10.9534724215766 3.04606145897153  9.51652385684191 3.58104462974436  8.00713544084262 3.66536265606875  C 6.49774714147582 3.58104462974436  5.06079846010869 3.04606145897153  3.91816473190552 2.14306973165609  C 3.75688381989238 2.03507612811834  3.60835970220527 1.93580526235907  3.47213657910542 1.85273334143161  Z " fill-rule="nonzero" fill="#000000" stroke="none" transform="matrix(1 0 0 1 13 348 )" />
  </g>
</svg>