<?xml version="1.0" encoding="utf-8"?>
<svg version="1.1" xmlns:xlink="http://www.w3.org/1999/xlink" width="10px" height="7px" xmlns="http://www.w3.org/2000/svg">
  <g transform="matrix(1 0 0 1 -19 -360 )">
    <path d="M 9.77305516036799 3.92964277137312  C 8.80663497441999 5.73521105416649  6.89919186448699 6.8850572010336  4.79951582950476 6.92789552262305  C 1.69094421249457 6.92789552262305  0.503390169766276 5.93031591031514  0.297144583435715 5.73012136226696  C 0.117610289367983 5.55622350140963  0.016895841788917 5.32082522391135  0.016895841788917 5.07482355734748  L 0.016895841788917 2.29542755777735  C 0.016895841788917 1.78348946231802  0.445151006167678 1.36867951821626  0.973244672658608 1.36867951821626  C 3.57255175143264 1.41575919543194  6.15784639312433 0.996283781857362  8.59907569408809 0.131036158937242  C 8.89027162418058 0.0173662646009769  9.22043972898297 0.0496010885447614  9.48273506364289 0.217136698802558  C 9.74503028620331 0.384248303793842  9.90617331265022 0.665453699807809  9.91317953119139 0.969562872239806  C 9.93551188081624 1.9480560584894  9.920623722466 2.80439674773036  9.86763911067378 3.58566450859828  C 9.85931919813127 3.70527221394719  9.82735335406206 3.82191101378978  9.77305516036799 3.92964277137312  Z M 1.93003147626175 3.20648240779324  L 1.93003147626174 4.57815442900664  C 2.8360230833419 4.94970193767234  3.81689367910569 5.11935833432335  4.79951582950476 5.07482355734748  C 6.11099227860538 5.04555774749012  7.31255875841602 4.35760111336034  7.97114330128599 3.25907589075505  C 7.98909682037236 2.95242192666334  8.00091984218546 2.63177144557303  8.00661236672528 2.29457933008414  C 6.02998290474798 2.85062808867274  3.98767019999696 3.15728205276445  1.93003147626175 3.20648240779324  Z " fill-rule="nonzero" fill="#000000" stroke="none" transform="matrix(1 0 0 1 19 360 )" />
  </g>
</svg>