<?xml version="1.0" encoding="utf-8"?>
<svg version="1.1" xmlns:xlink="http://www.w3.org/1999/xlink" width="16px" height="6px" xmlns="http://www.w3.org/2000/svg">
  <g transform="matrix(1 0 0 1 -13 -361 )">
    <path d="M 15.9692719756797 0.0146585821183074  C 15.988478439996 1.24812319645573  15.9692719756797 2.2178502643983  15.9216919648024 3.03276388355625  C 15.1145792849737 4.79672906641859  13.5474972275434 5.9207652080947  11.8210880310875 5.97421876498806  C 8.96061776481799 5.97421876498806  8.00683657421047 4.87237086541774  8.00683657421047 4.87237086541774  C 8.00683657421047 4.87237086541774  7.05349198050581 5.97421876498806  4.19258522908081 5.97421876498806  C 2.46661240603305 5.9207652080947  0.899093863447212 4.79672906641859  0.0924176687740423 3.03276388355625  C 0.0444012844886023 2.2178502643983  0.0256311935804732 1.24812319645573  0.0444012844886023 0.0146585821183074  C 2.59276466178698 1.09633548159678  5.29259822181695 1.62280182428428  8.00683657421047 1.5678355295233  C 10.7215115235068 1.62280182428428  13.4209084866339 1.09633548159678  15.9692719756797 0.0146585821183074  Z " fill-rule="nonzero" fill="#707070" stroke="none" transform="matrix(1 0 0 1 13 361 )" />
  </g>
</svg>