<?xml version="1.0" encoding="utf-8"?>
<svg version="1.1" xmlns:xlink="http://www.w3.org/1999/xlink" width="30px" height="25px" xmlns="http://www.w3.org/2000/svg">
  <g transform="matrix(1 0 0 1 0 -6 )">
    <path d="M 26.8467196918121 7.83693107284592  C 27.3578201019544 9.69950849343274  30.1653853179018 8.64791690882221  29.6572737990469 6.79580060774123  C 28.9284824734736 4.142163293094  27.287083008153 1.96874117861946  24.8312106670209 0.698960530030054  C 24.6538697839696 0.60730119721701  24.4830048320409 0.56246782790628  24.3176195141391 0.541047440346711  C 23.8603191471697 0.395588064360791  23.351211331219 0.336806535708948  22.8376201783372 0.380643607923883  C 21.4642246317852 0.498704813775467  20.3777626488219 1.14978496587682  19.9124919050861 2.05492087740564  C 19.8103714527672 2.18742839114624  19.7117380402836 2.32940072729688  19.6240638958537 2.49428789665078  C 18.7069724191754 4.12173920263023  16.8583431579297 5.55590887202564  15.2403566743603 6.58906896036398  C 15.1462065988078 6.55170781927171  15.0440861464889 6.5203244607542  14.9310064261163 6.49990037029042  C 12.9887252378659 6.14222971290039  11.3094664829052 5.29936236985869  10.2324693223519 3.59220729621573  C 10.0815303123391 3.35309599322518  9.89522275542567 3.18820882387128  9.69297444497949 3.07463095495077  C 9.12907028876011 2.46539528087276  8.23240290254554 2.04794679773508  7.16038722747123 1.95628746492204  C 6.64729422313734 1.91245039270711  6.13918270428242 1.97123192135895  5.68188233731299 2.11619314879697  C 5.51699516795909 2.13711538780864  5.34662836457832 2.18244690566727  5.16928748152699 2.27410623848031  C 2.71192069475117 3.54338873852183  1.07101937797851 5.71730900154426  0.342726200953124 8.37094631619149  C -0.165883466449696 10.2230626172725  2.6416817494977 11.274654201883  3.1532803081879 9.41307307839197  C 3.32763229995185 8.77892997691912  3.55827507762815 8.18264616508643  3.84819753250419 7.62970127692078  C 3.81830861963037 9.18442289490726  3.78841970675655 10.7396426614416  3.75853079388274 12.2938661308802  C 3.75803264533484 12.319271706823  3.7640104279096 12.343182837122  3.7640104279096 12.3680902645169  L 3.747571525829 13.2398502233366  L 3.56524915729871 17.5881888979294  L 3.17320625010378 23.029963635156  C 3.1707155073643 23.1664563372798  3.2025970144297 23.2949786626372  3.25838965179417 23.4140361655846  L 3.25639705760258 23.4324676618568  C 3.24543778954884 24.0133088687046  3.81581787689089 24.4900370290421  4.53165734021885 24.5  C 5.24550420935523 24.5089666738621  5.83481394151736 24.045688524318  5.84676950666689 23.4663417631138  L 6.61092937914086 16.3119323182173  L 6.74343689288146 15.2503777626488  L 7.05926307224814 15.2553592481278  L 7.42789299769191 19.4995848762101  L 7.67945801437989 23.1838915364562  C 7.67646912309251 23.3428009232353  7.72080434385534 23.4932417847002  7.79702107168358 23.6302326353719  C 7.91956561446624 24.0979941218471  8.42568453912957 24.4536721850456  9.04139614433024 24.461144413264  C 9.75673745911031 24.4701110871262  10.3445527456287 24.0078292346778  10.3565083107783 23.4279843249257  L 10.1721933480564 17.9792355080285  L 10.1577470401674 13.6284060906962  L 10.1711970509606 12.9065888447935  C 10.1726914966043 12.8836740115903  10.1776729820833 12.8622536240307  10.1781711306312 12.8393387908274  C 10.2100526376966 11.1675522640851  10.241934144762 9.49576573734287  10.2738156518274 7.8239792106006  C 11.4110887866762 8.5990983511283  12.7157398336184 9.1281321089949  14.134466898029 9.38916194809292  C 14.5469338956877 9.46488052737326  14.903110107434 9.38119157132657  15.1955233050496 9.20883217375421  C 15.6463477408963 9.45740829915481  16.2122444913073 9.5072231539445  16.7607060425419 9.16599139863507  C 17.7196419972436 8.57020573535028  18.7826909984557 7.8737940653903  19.7406306560616 7.07376749746774  C 19.7675306776481 8.47057602577088  19.7939325506866 9.86738455407402  19.8208325722731 11.2641930823772  C 19.8213307208209 11.2866097670325  19.8263122062999 11.30852830314  19.8278066519436 11.3309449877954  L 19.8412566627368 12.0552529764376  L 19.8273085033957 16.4040897995782  L 19.6434916892217 21.8533367650233  C 19.6544509572755 22.4331816747754  20.2427643923418 22.8969579728675  20.9581057071219 22.8864968533617  C 21.5738173123225 22.8790246251432  22.0799362369859 22.5233465619448  22.2034770768643 22.0545887783737  C 22.2781993590489 21.9185942247978  22.3230327283596 21.767655214785  22.3200438370722 21.608247679458  L 22.5721070023081 17.9239410192119  L 22.940238779204 13.6792172425817  L 23.2570612556664 13.6752320541986  L 23.3900669179549 14.736786609767  L 24.1532304933331 21.8906979061156  C 24.1646879099347 22.4700446673198  24.753499493549 22.9328246683161  25.4683426597812 22.9243561430018  C 26.184680271657 22.913895023496  26.7550603589991 22.4366687146107  26.7436029423974 21.8573219534065  L 26.7416103482058 21.8393886056822  C 26.7974029855703 21.7198329541869  26.8302807897315 21.5898161831858  26.8272918984441 21.4548179267057  L 26.4352489912492 16.0120468923833  L 26.252428474171 11.6637082177905  L 26.2359895720904 10.7834797336566  C 26.2359895720904 10.7610630490012  26.2414692061173 10.7396426614416  26.2409710575694 10.7172259767863  C 26.2110821446955 9.16200621025189  26.1811932318217 7.60728459226541  26.1513043189479 6.05206482573103  C 26.4407286252761 6.60550786244458  26.6723677000482 7.20228982282516  26.8467196918121 7.83693107284592  Z " fill-rule="nonzero" fill="#666666" stroke="none" transform="matrix(1 0 0 1 0 6 )" />
  </g>
</svg>