<?xml version="1.0" encoding="utf-8"?>
<svg version="1.1" xmlns:xlink="http://www.w3.org/1999/xlink" width="26px" height="26px" xmlns="http://www.w3.org/2000/svg">
  <g transform="matrix(1 0 0 1 -2 -2 )">
    <path d="M 0.0145089285714286 6.00669642857143  L 0.0145089285714286 0.0145089285714286  L 6.00669642857143 0.0145089285714286  L 6.00669642857143 6.00669642857143  L 0.0145089285714286 6.00669642857143  Z M 10.0024553571429 6  L 10.0024553571429 0  L 25.9854910714286 0  L 25.9854910714286 6  L 10.0024553571429 6  Z M 0.0145089285714286 15.9946428571429  L 0.0145089285714286 10.0024553571429  L 6.00669642857143 10.0024553571429  L 6.00669642857143 15.9946428571429  L 0.0145089285714286 15.9946428571429  Z M 10.0024553571429 16  L 10.0024553571429 10  L 25.9854910714286 10  L 25.9854910714286 16  L 10.0024553571429 16  Z M 0.0145089285714286 25.9854910714286  L 0.0145089285714286 19.9933035714286  L 6.00669642857143 19.9933035714286  L 6.00669642857143 25.9854910714286  L 0.0145089285714286 25.9854910714286  Z M 10.0024553571429 26  L 10.0024553571429 20  L 25.9854910714286 20  L 25.9854910714286 26  L 10.0024553571429 26  Z " fill-rule="nonzero" fill="#555555" stroke="none" transform="matrix(1 0 0 1 2 2 )" />
  </g>
</svg>