<?xml version="1.0" encoding="utf-8"?>
<svg version="1.1" xmlns:xlink="http://www.w3.org/1999/xlink" width="33px" height="33px" xmlns="http://www.w3.org/2000/svg">
  <g transform="matrix(1 0 0 1 -329 -364 )">
    <path d="M 32.9888206054688 14.7606602666016  C 32.9888205732422 6.65221679589844  25.6480965791016 0.0802346015625002  16.5265799853516 0.0802346015625002  C 7.405063359375 0.0802346015625002  0.0111794267578126 6.652183828125  0.0111794267578126 14.7606602666016  C 0.0111794267578126 19.5234231005859  2.33676267773438 23.7563341962891  6.28989145898437 26.4387025546875  C 6.31330557128906 26.4543339521484  5.8829473828125 32.9197324306641  5.8829473828125 32.9197324306641  L 12.5222369443359 29.0437053779297  C 13.7399033642578 29.2982268046875  15.1144774042969 29.4411518994141  16.4190069462891 29.4411518994141  C 25.5405235722656 29.4411518994141  32.9888206054688 22.8692026728516  32.9888206054688 14.7606602666016  Z M 10.5516249931641 14.8254943417969  C 10.5516249931641 15.9637835478516  9.62891060742187 16.8865969013672  8.49052243359375 16.8865969013672  C 7.35236509863281 16.8865969013672  6.42941987402344 15.9637505800781  6.42941987402344 14.8254943417969  C 6.42941987402344 13.6871721357422  7.35236513085937 12.7643917822266  8.49052243359375 12.7643917822266  C 9.62891060742187 12.7643917822266  10.5516249931641 13.6871721357422  10.5516249931641 14.8254943417969  Z M 18.5611025595703 14.8254943417969  C 18.5611025595703 15.9637835478516  17.6381243671875 16.8865969013672  16.5 16.8865969013672  C 15.3616118261719 16.8865969013672  14.4388974404297 15.9637505800781  14.4388974404297 14.8254943417969  C 14.4388974404297 13.6871721357422  15.3616118261719 12.7643917822266  16.5 12.7643917822266  C 17.6381573349609 12.7643917822266  18.5611025595703 13.6871721357422  18.5611025595703 14.8254943417969  Z M 26.5703163193359 14.8254943417969  C 26.5703163193359 15.9637835478516  25.6476019335937 16.8865969013672  24.5092137597656 16.8865969013672  C 23.3708255859375 16.8865969013672  22.4481112001953 15.9637505800781  22.4481112001953 14.8254943417969  C 22.4481112001953 13.6871721357422  23.3708255859375 12.7643917822266  24.5092137597656 12.7643917822266  C 25.6476019335937 12.7643917822266  26.5703163193359 13.6871721357422  26.5703163193359 14.8254943417969  Z " fill-rule="nonzero" fill="#aaaaaa" stroke="none" transform="matrix(1 0 0 1 329 364 )" />
  </g>
</svg>