<?xml version="1.0" encoding="utf-8"?>
<svg version="1.1" xmlns:xlink="http://www.w3.org/1999/xlink" width="28px" height="28px" xmlns="http://www.w3.org/2000/svg">
  <g transform="matrix(1 0 0 1 -183 -10 )">
    <path d="M 14 11.5592105352193  L 14 11.5580592102193  L 24.8661184207456 0.690789465394737  C 25.189522883912 0.366183319713716  25.6288753330455 0.183720128217898  26.0870888167077 0.183720128217898  C 26.5453022996188 0.183720128217898  26.9846547480959 0.366183319117279  27.3080592111404 0.690789463859649  C 27.632381918131 1.01434469592975  27.8146491731903 1.45364065337982  27.8146491731903 1.91175985890351  C 27.8146491731903 2.36987906442719  27.632381918131 2.80917502187728  27.3080592111404 3.13273025394737  L 16.4407894647807 14  L 27.3069078858333 24.8661184207456  C 27.9815789473684 25.5407894822807  27.9861841930263 26.6287829036404  27.3069078858333 27.3080592111404  C 26.9833526537386 27.6323819183192  26.5440566961568 27.814649173498  26.0859374904825 27.814649173498  C 25.6278182848081 27.814649173498  25.1885223272263 27.6323819183192  24.8649670951316 27.3080592111404  L 14 16.4407894647807  L 3.13388157925439 27.3092105346053  C 2.81047711608801 27.6338166802863  2.37112466695448 27.8162798717821  1.91291118329231 27.8162798717821  C 1.45469770038117 27.8162798717821  1.01534525190408 27.6338166808827  0.691940788859649 27.3092105361404  C 0.367618081869038 26.9856553040703  0.185350826809734 26.5463593466202  0.185350826809734 26.0882401410965  C 0.185350826809734 25.6301209355728  0.367618081869038 25.1908249781227  0.691940788859649 24.8672697460526  L 11.5592105352193 14  L 0.690789465394737 3.13388157925439  C 0.366183319713721 2.81047711608801  0.183720128217898 2.37112466695448  0.183720128217898 1.91291118329232  C 0.183720128217898 1.45469770038117  0.366183319117279 1.01534525190407  0.690789463859649 0.691940788859649  C 1.01434469592974 0.367618081869038  1.45364065337983 0.185350826809734  1.91175985890351 0.185350826809734  C 2.36987906442719 0.185350826809734  2.80917502187727 0.367618081869038  3.13273025394737 0.691940788859649  L 14 11.5592105352193  Z " fill-rule="nonzero" fill="#ffffff" stroke="none" transform="matrix(1 0 0 1 183 10 )" />
  </g>
</svg>