<?xml version="1.0" encoding="utf-8"?>
<svg version="1.1" xmlns:xlink="http://www.w3.org/1999/xlink" width="32px" height="32px" xmlns="http://www.w3.org/2000/svg">
  <g transform="matrix(1 0 0 1 -329 -431 )">
    <path d="M 18.4298181875 20.363636375  L 11.636363625 20.363636375  L 11.636363625 14.54545453125  L 13.69309090625 14.54545453125  L 17.32945453125 10.90909090625  L 21.09090909375 10.90909090625  L 21.09090909375 17.70254546875  C 19.848276271193 18.1433783916532  18.8706511104032 19.121003552443  18.4298181875 20.363636375  Z M 8.72727271875 14.54545453125  L 8.72727271875 20.363636375  L 2.90909090625 20.363636375  L 2.90909090625 23.27272728125  L 8.72727271875 23.27272728125  L 8.72727271875 29.09090909375  L 11.636363625 29.09090909375  L 11.636363625 23.27272728125  L 18.4298181875 23.27272728125  C 19.0469394221799 25.0149541625879  20.6947446491655 26.1794029584265  22.5430393021765 26.1794029584265  C 24.953009125896 26.1794029584265  26.9066756771765 24.225736407146  26.9066756771765 21.8157665834265  C 26.9066756771765 19.9674719304155  25.7422268813379 18.3196667034299  24 17.70254546875  L 24 10.90909090625  L 29.09090909375 10.90909090625  L 29.09090909375 8  L 24 8  L 24 2.90909090625  L 21.09090909375 2.90909090625  L 21.09090909375 8  L 16.12509090625 8  L 12.48872728125 11.636363625  L 5.8181818125 11.636363625  L 5.8181818125 14.54545453125  L 8.72727271875 14.54545453125  Z M 0 32  L 0 0  L 32 0  L 32 32  L 0 32  Z M 23.9997867992813 21.818181828125  C 23.9997867992813 22.6214218496548  23.3486945441513 23.2726095459481  22.54545453125 23.27272728125  C 21.7419180502052 23.272727296875  21.0906958617813 22.6215051084511  21.0906958617813 21.818181828125  C 21.0906958617813 21.0148585477989  21.7419180502052 20.363636359375  22.5452413305313 20.363636359375  C 23.3486945441513 20.3637541103019  23.9997867992813 21.0149418065952  23.9997867992813 21.818181828125  Z " fill-rule="nonzero" fill="#5c646f" stroke="none" transform="matrix(1 0 0 1 329 431 )" />
  </g>
</svg>