<?xml version="1.0" encoding="utf-8"?>
<svg version="1.1" xmlns:xlink="http://www.w3.org/1999/xlink" width="16px" height="28px" xmlns="http://www.w3.org/2000/svg">
  <g transform="matrix(1 0 0 1 -168 -182 )">
    <path d="M 10.5952653061224 25.4709677419355  L 11.0247183673469 22.9628903225806  C 10.0594887373963 23.3475540462995  9.01887473931514 23.5453711562109  7.96734693877551 23.5440860215054  C 6.88117551020408 23.5440860215054  5.84724897959184 23.3369462365591  4.90997551020408 22.9628903225806  L 5.33942857142857 25.4709677419355  L 10.5952653061224 25.4709677419355  Z M 2.93851428571429 26.8930064516129  L 1.89779591836734 20.8173075268817  C 0.834935450515232 19.5684111497436  0.258511137346299 18.0262051610796  0.261224489795917 16.4387096774194  L 0.261224489795915 11.3806451612903  C 0.258486661766685 9.76692117418368  0.85409152066104 8.20081694594161  1.94925714285714 6.94207311827957  L 2.93851428571429 1.16720860215054  C 3.03568979591837 0.599260215053764  3.57198367346939 0.180645161290323  4.20205714285714 0.180645161290323  L 11.7326367346939 0.180645161290323  C 12.3627102040816 0.180645161290323  12.8990040816327 0.599260215053764  12.9961795918367 1.16720860215054  L 13.9854367346939 6.94207311827957  C 15.08060235689 8.20081694594162  15.6762072157843 9.76692117418368  15.6734693877551 11.3806451612903  L 15.6734693877551 16.4387096774194  C 15.6734693877551 18.0905290322581  15.0622040816327 19.6105978494624  14.0368979591837 20.8173075268817  L 12.9961795918367 26.8930064516129  C 12.8990040816327 27.4609548387097  12.3627102040816 27.8795698924731  11.7326367346939 27.8795698924731  L 4.20205714285714 27.8795698924731  C 3.57198367346939 27.8795698924731  3.03568979591837 27.4609548387097  2.93851428571429 26.8930064516129  Z M 7.96734693877551 4.2752688172043  C 9.03653877551021 4.2752688172043  10.0547918367347 4.47614623655914  10.9805714285714 4.83888172043011  L 10.5952653061224 2.58924731182796  L 5.33942857142857 2.58924731182796  L 4.95412244897959 4.83888172043011  C 5.90707316423939 4.46569614791239  6.93200847274683 4.27398565080115  7.96734693877551 4.2752688172043  Z M 8.09795918367347 10.5376344086022  C 8.81931069365655 10.5376344086022  9.40408163265306 9.99845045140913  9.40408163265306 9.33333333333333  C 9.40408163265306 8.66821621525754  8.81931069365655 8.12903225806452  8.09795918367347 8.12903225806452  C 7.37660767369039 8.12903225806452  6.79183673469388 8.66821621525754  6.79183673469388 9.33333333333333  C 6.79183673469388 9.99845045140913  7.37660767369039 10.5376344086022  8.09795918367347 10.5376344086022  Z M 8.09795918367347 14.9420043010753  C 8.81931069365655 14.9420043010753  9.40408163265306 14.4028203438822  9.40408163265306 13.7377032258065  C 9.40408163265306 13.0725861077307  8.81931069365655 12.5334021505376  8.09795918367347 12.5334021505376  C 7.37660767369039 12.5334021505376  6.79183673469388 13.0725861077307  6.79183673469388 13.7377032258065  C 6.79183673469388 14.4028203438822  7.37660767369039 14.9420043010753  8.09795918367347 14.9420043010753  Z M 8.09795918367347 19.3461333333333  C 8.81931069365655 19.3461333333333  9.40408163265306 18.8069493761403  9.40408163265306 18.1418322580645  C 9.40408163265306 17.4767151399887  8.81931069365655 16.9375311827957  8.09795918367347 16.9375311827957  C 7.37660767369039 16.9375311827957  6.79183673469388 17.4767151399887  6.79183673469388 18.1418322580645  C 6.79183673469388 18.8069493761403  7.37660767369039 19.3461333333333  8.09795918367347 19.3461333333333  Z " fill-rule="nonzero" fill="#5c646f" stroke="none" transform="matrix(1 0 0 1 168 182 )" />
  </g>
</svg>