<?xml version="1.0" encoding="utf-8"?>
<svg version="1.1" xmlns:xlink="http://www.w3.org/1999/xlink" width="28px" height="34px" xmlns="http://www.w3.org/2000/svg">
  <g transform="matrix(1 0 0 1 -123 -52 )">
    <path d="M 27.8197615931954 3.40515861282198  C 27.8197615931954 1.59365485799607  26.3390386030915 0.119878033691724  24.5182557045882 0.119878033691724  L 3.41009548540116 0.119878033691724  C 1.590622188599 0.119878033691724  0.111427067146479 1.59235005337075  0.111427067146479 3.40515861282198  L 0.111427067146479 30.7147194208697  C 0.111427067146479 32.5262231756957  1.590622188599 34  3.41009548540116 34  L 24.5182557045882 34  C 26.3392568700417 34  27.8197615931954 32.527527980321  27.8197615931954 30.7147194208697  L 27.8197615931954 3.40515861282198  Z M 26 3.40515861282198  L 26 30.7147194208697  C 26.498591743682 31.8005343365775  25.6109000572503 32.6862792097355  24.5182557045882 32.6862792097355  L 3.41009548540116 32.6862792097355  C 2.31766939968921 32.6862792097355  1.43041424715793 31.8018391412028  1.43041424715793 30.7147194208697  L 1.43041424715793 3.40515861282198  C 1.43041424715793 2.31847382736399  2.31745113273902 1.43338135651868  3.41009548540116 2  L 24.5182557045882 2  C 25.6109000572503 1.43338135651868  26.498591743682 2.31847382736399  26 3.40515861282198  Z " fill-rule="nonzero" fill="#5c646f" stroke="none" transform="matrix(1 0 0 1 123 52 )" />
  </g>
</svg>