<?xml version="1.0" encoding="utf-8"?>
<svg version="1.1" xmlns:xlink="http://www.w3.org/1999/xlink" width="17px" height="18px" xmlns="http://www.w3.org/2000/svg">
  <g transform="matrix(1 0 0 1 -129 -61 )">
    <path d="M 16.8278690817991 15.7935243495724  C 16.8256371791505 13.4806430213644  14.1455684787334 10.3577765055478  10.5263151437931 9.44646002017393  C 12.038875568737 8.43780340412384  13.0811741056247 6.44244159101442  13.0811741056247 4.64730332688131  C 13.0811741056247 2.11291222522105  11.0162177751568 0.0574611742682407  8.46381390623857 0.0574611742682407  C 5.91274917890949 0.0574611742682407  3.84712327764697 2.11313395672601  3.84712327764697 4.64730332688131  C 3.84712327764697 6.44244159101442  4.8894218145347 8.43780340412384  6.39796481471119 9.44646002017393  C 2.78563037798143 10.3577765055478  0.103552965180598 13.4806430213644  0.103552965180598 15.7935243495724  C 0.103552965180598 18.5261434166644  16.8278690817991 18.5261434166644  16.8278690817991 15.7935243495724  Z M 10.8084276385738 15.5145861163363  L 8.46403709650342 17.8405496033369  L 6.11897698363845 15.5156947738611  L 8.09086297366053 10.7792880964714  L 8.06988308876386 10.7792880964714  L 7.30478686083 9.90455730941542  C 7.67706822261346 10.0369310178748  8.06050909763982 10.1178630171842  8.46269795491428 10.1178630171842  C 8.86577957324816 10.1178630171842  9.24765811642052 10.0382614069046  9.61860033661483 9.9087702080096  L 8.85194177682695 10.7781794389466  L 8.83497931669774 10.7781794389466  L 10.8084276385738 15.5145861163363  Z " fill-rule="nonzero" fill="#5c646f" stroke="none" transform="matrix(1 0 0 1 129 61 )" />
  </g>
</svg>