<?xml version="1.0" encoding="utf-8"?>
<svg version="1.1" xmlns:xlink="http://www.w3.org/1999/xlink" width="23px" height="23px" xmlns="http://www.w3.org/2000/svg">
  <g transform="matrix(1 0 0 1 -6 -16 )">
    <path d="M 23 11.5  C 23 8.4282421875  21.803775390625 5.540349609375  19.6317578125 3.368287109375  C 17.459650390625 1.196224609375  14.5717578125 0  11.5 0  C 8.4282421875 0  5.540349609375 1.196224609375  3.3682421875 3.368287109375  C 1.196224609375 5.540349609375  0 8.4282421875  0 11.5  C 0 14.5717578125  1.196224609375 17.4596953125  3.3682421875 19.6317578125  C 5.540349609375 21.803775390625  8.4282421875 23  11.5 23  C 14.5717578125 23  17.459650390625 21.803775390625  19.6317578125 19.6317578125  C 21.803775390625 17.4596953125  23 14.5717578125  23 11.5  Z M 11.467162109375 13.756380859375  L 7.70185546875 17.61737109375  L 3.876802734375 13.760423828125  L 4.83368359375 12.81144921875  L 6.996177734375 14.991912109375  L 6.996177734375 6.34359765625  L 8.343833984375 6.34359765625  L 8.343833984375 15.028837890625  L 10.50228515625 12.8154921875  L 11.467162109375 13.756380859375  Z M 19.127150390625 9.243619140625  L 18.16236328125 10.1845078125  L 16.0038671875 7.971162109375  L 16.0038671875 16.65640234375  L 14.6562109375 16.65640234375  L 14.6562109375 8.008087890625  L 12.49376171875 10.18855078125  L 11.536880859375 9.239576171875  L 15.361888671875 5.38262890625  L 19.127150390625 9.243619140625  Z " fill-rule="nonzero" fill="#ffffff" stroke="none" transform="matrix(1 0 0 1 6 16 )" />
  </g>
</svg>