<?xml version="1.0" encoding="utf-8"?>
<svg version="1.1" xmlns:xlink="http://www.w3.org/1999/xlink" width="26px" height="20px" xmlns="http://www.w3.org/2000/svg">
  <g transform="matrix(1 0 0 1 -54 -18 )">
    <path d="M 9.51939574074074 9.99848811160659  C 9.51939574074074 8.01035483587266  11.0738804074074 6.39868177009786  12.9914670185185 6.39868177009786  C 14.9090536296296 6.39868177009786  16.4635382962963 8.01035483587266  16.4635382962963 9.99848811160659  C 16.4635382962963 11.9866213873405  14.9090536296296 13.5982944531153  12.9914670185185 13.5982944531153  C 11.0738804074074 13.5982944531153  9.51939574074074 11.9866213873405  9.51939574074074 9.99848811160659  Z M 25.982934037037 9.99697620401338  C 25.9843922592593 6.40321743527809  24.6326030740741 3.01961115322681  22.1783838518519 0.476614817911557  C 21.7861170925926 0.0684049516908218  21.1503241111111 0.0684049516908218  20.7595155925926 0.476614817911557  C 20.3657905925926 0.881800907345473  20.3657905925926 1.53947237767868  20.7595155925926 1.94768224389942  C 22.833133962963 4.10061137371485  23.9763947222222 6.956568606466  23.9763947222222 9.99697622321318  C 23.9763947222222 13.0419195051406  22.833133962963 15.9009005146786  20.7595155925926 18.0508058485074  C 20.3657905925926 18.4590157147281  20.3657905925926 19.1181990734547  20.7595155925926 19.5248970512821  C 20.9549198518519 19.727490095999  21.2115702222222 19.8287866183575  21.4696788518518 19.8287866183575  C 21.7263292222222 19.8287866183575  21.9844378518518 19.727490095999  22.1769256296296 19.5248970512821  C 24.6326030925926 16.97887693918  25.982934037037 13.5982944339155  25.982934037037 9.99697620401338  Z M 5.22050196296296 18.0523177561006  C 3.14980005555556 15.902412403072  2.0065392962963 13.043431393534  2.0065392962963 9.99697622321318  C 2.0065392962963 6.95505671807259  3.14980005555556 4.09607570853462  5.22341842592593 1.94617037470581  C 5.61860166666667 1.53796050848507  5.61860166666667 0.880289038151864  5.22341842592593 0.473591060324539  C 4.83260990740741 0.0668930824972135  4.19535868518519 0.0668930824972135  3.80455016666667 0.473591060324539  C 1.35033094444445 3.0180992648334  0 6.40170554688468  0 9.99697622321318  C 0 13.5982944531153  1.35178918518519 16.9788769583798  3.80455016666667 19.5248970704819  C 4.00141266666667 19.7290020035922  4.2566047962963 19.8302985259507  4.51179694444444 19.8302985259507  C 4.76990555555556 19.8302985259507  5.02655594444444 19.7290020035922  5.22050196296296 19.5248970704819  C 5.6156852037037 19.1197109810479  5.6156852037037 18.4620395107147  5.22050196296296 18.0523177561006  Z M 21.7161215555555 9.99999996160039  C 21.7161215555555 7.58249036293819  20.8105540185185 5.31163399603617  19.1612837037037 3.60320007308312  C 18.7690169444444 3.19650209525579  18.1346822037037 3.19650209525579  17.7424154444444 3.60320007308312  C 17.3501486851852 4.01140993930385  17.3501486851852 4.66908140963706  17.7424154444444 5.0772912758578  C 19.0110849074074 6.391122308931  19.708124 8.13886533011272  19.708124 9.99848809240679  C 19.708124 11.8596227430943  19.0096266666667 13.6088776526694  17.7424154444444 14.9257324625294  C 17.3501486851852 15.3339423287502  17.3501486851852 15.9916137990834  17.7424154444444 16.3967998885173  C 17.9378197037037 16.6039285984145  18.1959283148148 16.7022013439861  18.451120462963 16.7022013439861  C 18.7063126111111 16.7022013439861  18.965879462963 16.6039285984145  19.1598254814815 16.3967998885173  C 20.8090957962963 14.6868540771708  21.7161215555555 12.4175095602626  21.7161215555555 9.99999996160039  Z M 8.23906035185185 5.07124374148396  C 8.63424359259259 4.66605765205004  8.63424359259259 4.00989807011024  8.24051859259259 3.60320007308312  C 7.84679359259259 3.19650209525579  7.21245885185185 3.19650209525579  6.82019209259259 3.60320007308312  C 5.17383824074074 5.31163399603617  4.26535424074074 7.58097853214418  4.26535424074074 9.99697622321318  C 4.26535424074074 12.415997691069  5.17383824074074 14.6883660039638  6.82165031481482 16.3937761501301  C 7.01705457407407 16.6009048600272  7.27662142592593 16.7006894939923  7.53035533333333 16.7006894939923  C 7.7870057037037 16.7006894939923  8.04657257407407 16.6009048600272  8.23906035185185 16.3937761501301  C 8.63278535185185 15.9885900606962  8.63278535185185 15.3309185903629  8.23906035185185 14.9227087241422  C 6.97039087037037 13.6088776718692  6.27043531481482 11.8581108739007  6.27043531481482 9.99546433481977  C 6.27043531481482 8.13735346091911  6.96893264814815 6.38658666295058  8.23906035185185 5.07124374148396  Z " fill-rule="nonzero" fill="#ffffff" stroke="none" transform="matrix(1 0 0 1 54 18 )" />
  </g>
</svg>