<?xml version="1.0" encoding="utf-8"?>
<svg version="1.1" xmlns:xlink="http://www.w3.org/1999/xlink" width="24px" height="21px" xmlns="http://www.w3.org/2000/svg">
  <g transform="matrix(1 0 0 1 -110 -16 )">
    <path d="M 21.7263925107422 20.7102404443359  L 20.7025356708984 20.7102404443359  L 3.29756326464844 20.7102404443359  L 2.27370645703125 20.7102404443359  C 1.14280422363281 20.7102404443359  0.225992809570311 19.7960012900391  0.225992809570311 18.6681989619141  L 0.22599277734375 4.88430343945312  C 0.22599277734375 3.75650107910156  1.14280419140625 2.84226195703125  2.27370642480469 2.84226195703125  L 3.29743132910156 2.84226195703125  L 6.62494127636719 2.84226195703125  L 7.904638640625 0.800220474609374  C 7.904638640625 0.518261642578125  8.64584409960938 0.289726587890625  8.92862738378906 0.289726587890625  L 15.0714715195313 0.289726587890625  C 15.3540899003906 0.289726587890625  16.095328359375 0.518261642578125  16.095328359375 0.800220474609374  L 17.3751246591797 2.84226195703125  L 20.7025356708984 2.84226195703125  L 21.7263925107422 2.84226195703125  C 22.8572947441406 2.84226195703125  23.7739742548828 3.75650111132813  23.7739742548828 4.88430343945312  L 23.7739742548828 18.6681989619141  C 23.7739742548828 19.7960013222656  22.8572947441406 20.7102404443359  21.7263925107422 20.7102404443359  Z M 12.0000329677734 4.88430343945312  C 8.32470782226563 4.88430343945312  5.34511200878906 7.85565486035156  5.34511200878906 11.5210537089844  C 5.34511200878906 15.1864855576172  8.32470785449219 18.1576720751953  12.0000329677734 18.1576720751953  C 15.6752591777344 18.1576720751953  18.6546901201172 15.1864855253906  18.6548220234375 11.521317515625  C 18.6546901201172 7.85552295703125  15.6752591777344 4.88430343945312  12.0000329677734 4.88430343945312  Z M 12.0000329677734 16.1156305927734  C 9.45547818457031 16.1156305927734  7.39282565625 14.0586502294922  7.39282565625 11.5210537089844  C 7.39282565625 8.98358912402344  9.45547818457031 6.92647682519531  12.0000329677734 6.92647682519531  C 14.5444888154297 6.92647682519531  16.6072402792969 8.98358909179688  16.6072402792969 11.5210537089844  C 16.6072402792969 14.0586502294922  14.5444888476563 16.1156305927734  12.0000329677734 16.1156305927734  Z " fill-rule="nonzero" fill="#ffffff" stroke="none" transform="matrix(1 0 0 1 110 16 )" />
  </g>
</svg>