<?xml version="1.0" encoding="utf-8"?>
<svg version="1.1" xmlns:xlink="http://www.w3.org/1999/xlink" width="16px" height="24px" xmlns="http://www.w3.org/2000/svg">
  <g transform="matrix(1 0 0 1 -8 -5 )">
    <path d="M 15.9142857142857 8.24732142857143  C 15.9142857142857 3.79821428571428  12.3974025974026 0.190178571428571  8.05974025974026 0.190178571428571  C 3.72207792207792 0.190178571428571  0.205194805194806 3.79821428571429  0.205194805194806 8.25  C 0.205194805194806 12.7017857142857  8.05974025974026 22.3526785714286  8.05974025974026 22.3526785714286  C 8.05974025974026 22.3526785714286  15.9142857142857 12.6964285714286  15.9142857142857 8.24732142857143  Z M 11.4935064935065 8.24732142857143  C 11.4935064935065 10.1946428571429  9.95844155844156 11.7723214285714  8.05974025974026 11.7723214285714  C 6.16103896103896 11.7723214285714  4.62337662337662 10.1946428571429  4.62337662337662 8.24732142857143  C 4.62337662337662 6.3  6.16103896103896 4.72232142857143  8.05974025974026 4.72232142857143  C 9.95844155844156 4.72232142857143  11.4935064935065 6.3  11.4935064935065 8.24732142857143  Z M 15.4207792207792 21.3455357142857  C 15.4207792207792 20.38125  13.8467532467532 19.5482142857143  11.5324675324675 19.1223214285714  C 11.3194805194805 19.425  11.1090909090909 19.7169642857143  10.9064935064935 19.9928571428571  C 13.0025974025974 20.2419642857143  14.4415584415584 20.7535714285714  14.4415584415584 21.3482142857143  C 14.4415584415584 22.18125  11.5844155844156 22.8589285714286  8.06233766233766 22.8589285714286  C 4.53766233766234 22.8589285714286  1.68051948051948 22.18125  1.68051948051948 21.3482142857143  C 1.68051948051948 20.7535714285714  3.11948051948052 20.2419642857143  5.21558441558441 19.9928571428571  C 5.0051948051948 19.7035714285714  4.79480519480519 19.4142857142857  4.58701298701299 19.1223214285714  C 2.27012987012987 19.5455357142857  0.696103896103895 20.38125  0.696103896103895 21.3455357142857  C 0.696103896103895 22.7330357142857  3.99220779220779 23.8633928571429  8.05974025974026 23.8633928571429  C 12.1272727272727 23.8633928571429  15.4207792207792 22.7330357142857  15.4207792207792 21.3455357142857  Z " fill-rule="nonzero" fill="#ffffff" stroke="none" transform="matrix(1 0 0 1 8 5 )" />
  </g>
</svg>