<?xml version="1.0" encoding="utf-8"?>
<svg version="1.1" xmlns:xlink="http://www.w3.org/1999/xlink" width="21px" height="21px" xmlns="http://www.w3.org/2000/svg">
  <g transform="matrix(1 0 0 1 -248 -6 )">
    <path d="M 0.220564746093749 0.191844228515626  L 0.22056474609375 5.33329318359375  L 5.36216361328125 5.33329318359375  L 5.36216361328125 0.191844228515626  L 0.220564746093749 0.191844228515626  Z M 7.93180880859375 15.6142424414062  L 7.93180880859375 20.7556913964844  L 13.0733776757812 20.7556913964844  L 13.0733776757812 15.6142424414062  L 7.93180880859375 15.6142424414062  Z M 0.220564746093749 15.6142424414062  L 0.22056474609375 20.7556913964844  L 5.36216361328125 20.7556913964844  L 5.36216361328125 15.6142424414062  L 0.220564746093749 15.6142424414062  Z M 0.220564746093749 7.90299837890625  L 0.22056474609375 13.0445672460938  L 5.36216361328125 13.0445672460938  L 5.36216361328125 7.90299837890625  L 0.220564746093749 7.90299837890625  Z M 7.93180880859375 7.90299837890625  L 7.93180880859375 13.0445672460938  L 13.0733776757812 13.0445672460938  L 13.0733776757812 7.90299837890625  L 7.93180880859375 7.90299837890625  Z M 15.6430828417969 0.191844228515626  L 15.6430828417969 5.33329318359375  L 20.7846517089844 5.33329318359375  L 20.7846517089844 0.191844228515626  L 15.6430828417969 0.191844228515626  Z M 7.93180880859375 0.191844228515626  L 7.93180880859375 5.33329318359375  L 13.0733776757812 5.33329318359375  L 13.0733776757812 0.191844228515626  L 7.93180880859375 0.191844228515626  Z M 15.6430828417969 7.90299837890625  L 15.6430828417969 13.0445672460938  L 20.7846517089844 13.0445672460938  L 20.7846517089844 7.90299837890625  L 15.6430828417969 7.90299837890625  Z M 15.6430828417969 15.6142424414062  L 15.6430828417969 20.7556913964844  L 20.7846517089844 20.7556913964844  L 20.7846517089844 15.6142424414062  L 15.6430828417969 15.6142424414062  Z " fill-rule="nonzero" fill="#ffffff" stroke="none" transform="matrix(1 0 0 1 248 6 )" />
  </g>
</svg>