<?xml version="1.0" encoding="utf-8"?>
<svg version="1.1" xmlns:xlink="http://www.w3.org/1999/xlink" width="30px" height="21px" xmlns="http://www.w3.org/2000/svg">
  <g transform="matrix(1 0 0 1 -61 -6 )">
    <path d="M 24.8653125 4.5538828125  C 25.26375 5.170265625  25.663125 5.791296875  26.0634375 6.40675  C 26.326875 6.7962890625  26.596875 7.182109375  26.8621875 7.5735078125  L 26.8940625 7.5893125  C 27.2128125 7.0863515625  27.526875 6.583390625  27.8446875 6.0795  C 28.3359375 5.3459765625  28.8759375 4.77421875  29.1675 3.8101328125  C 29.73375 1.9470390625  28.3903125 0.566453125  26.61375 0.5980625  L 26.2359375 0.6622109375  C 25.809375 0.785859375  25.3725 1.0526796875  25.123125 1.358546875  C 24.91875 1.6095625  24.714375 1.8782421875  24.5840625 2.202703125  C 24.249375 3.0273359375  24.5090625 3.980265625  24.8653125 4.5538828125  Z M 26.9428125 4.458125  C 26.1440625 4.58084375  25.425 3.574921875  25.68375 2.7558671875  C 25.861875 2.19340625  26.2415625 2.0809140625  26.7796875 1.8615078125  C 28.4803125 1.83640625  28.5140625 4.22384375  26.9428125 4.458125  Z M 6.5175 18.6163359375  C 6.991875 17.862359375  7.434375 17.096296875  7.951875 16.3795078125  C 8.94 15.00821875  9.87375 13.927921875  10.456875 12.0973671875  C 11.7525 8.007671875  9.12375 4.6524296875  5.0925 4.720296875  C 4.7784375 4.8439453125  4.3096875 4.8011796875  3.9965625 4.8969375  C 3.0571875 5.187  2.1609375 5.737375  1.610625 6.423484375  C 1.1296875 7.0175546875  0.6928125 7.606046875  0.3853125 8.3879140625  C -0.3328125 10.21846875  0.1903125 12.150359375  0.99 13.4454140625  C 1.90026821303877 14.9411453035341  2.85984839580598 16.4068136193507  3.8671875 17.840046875  C 4.4015625 18.62284375  4.9359375 19.409359375  5.4703125 20.190296875  L 5.5190625 20.2228359375  C 5.8528125 19.6873359375  6.1828125 19.1518359375  6.5175 18.6163359375  Z M 5.6971875 13.247390625  C 3.871875 13.54303125  2.2640625 11.3368828125  2.8359375 9.521203125  C 3.09375002347438 8.69636706635494  3.71205492207562 8.03029788482492  4.5196875 7.7073828125  C 4.768125 7.606046875  5.075625 7.632078125  5.356875 7.5307421875  C 7.2196875 7.5140078125  8.80125 9.3938359375  8.0184375 11.3852265625  C 7.6359375 12.369765625  6.8896875 13.0605234375  5.6971875 13.247390625  Z M 29.9540625 16.6342421875  C 29.1234375 16.10153125  28.2975 15.560453125  27.466875 15.019375  L 23.3578125 12.3595390625  C 22.8890625 12.0378671875  22.4184375 11.7217734375  21.950625 11.40103125  C 21.020625 10.8980703125  20.0971875 10.395109375  19.1690625 9.89121875  C 18.673125 9.6020859375  18.09 9.361296875  17.69625 8.96525  L 17.6634375 8.9494453125  C 19.5159375 8.5682734375  21.448125 8.5422421875  23.390625 8.2205703125  C 24.388125 8.108078125  25.3875 7.996515625  26.386875 7.8784453125  L 26.386875 7.8617109375  C 26.235 7.658109375  25.798125 7.074265625  25.5871875 6.96828125  L 24.8353125 7.0315  C 23.930625 7.0863515625  23.0278125 7.13934375  22.1203125 7.1923359375  C 21.4134375 7.3001796875  20.690625 7.2090703125  19.9453125 7.3215625  C 17.8471875 7.51865625  15.74625 7.7073828125  13.64625 7.899828125  C 14.5959375 8.6221953125  15.5465625 9.350140625  16.490625 10.0725078125  C 17.5059375 10.740953125  18.6009375 11.2718046875  19.5834375 11.968140625  C 20.8359375 12.9378046875  22.0940625 13.905609375  23.3465625 14.868765625  L 23.379375 14.9161796875  C 20.3559375 15.10490625  17.3390625 15.2973515625  14.315625 15.4851484375  L 12.485625 15.56603125  C 11.74125 15.67759375  11.0503125 15.709203125  10.359375 15.8421484375  L 9.3609375 15.9871796875  C 8.37291967652607 17.6346012036858  7.38698140446964 19.2832483280215  6.40312499999999 20.9331171875  L 6.3703125 20.9814609375  C 9.72187499999999 20.2479375  13.1878125 19.6966328125  16.59375 18.9538125  C 18.435 18.6265625  20.281875 18.304890625  22.12125 17.9785703125  C 24.7340625 17.5341796875  27.3459375 17.0897890625  29.9540625 16.65190625  L 29.9540625 16.6342421875  Z " fill-rule="nonzero" fill="#ffffff" stroke="none" transform="matrix(1 0 0 1 61 6 )" />
  </g>
</svg>