<?xml version="1.0" encoding="utf-8"?>
<svg version="1.1" xmlns:xlink="http://www.w3.org/1999/xlink" width="23px" height="26px" xmlns="http://www.w3.org/2000/svg">
  <g transform="matrix(1 0 0 1 -127 -3 )">
    <path d="M 22.5079069851017 18.143478252038  C 22.5079185376942 16.5558616168374  21.2930997092574 15.2670954942001  19.7906976660611 15.2608695563859  C 19.7871317973239 15.2608547794644  19.7835659045948 15.2608473909824  19.7800000084382 15.2608473909824  C 18.2734185862254 15.2608473909824  17.052093031694 16.5514352642962  17.052093031694 18.1434560866345  C 17.052093031694 19.7354769089729  18.2734185862254 21.0260647822867  19.7800000084382 21.0260647822867  C 21.286581430651 21.0260647822867  22.5079069851824 19.7354769089729  22.5079069851824 18.1434560866345  Z M 8.51534884556686 3.45913042595109  C 8.51533729292028 5.04674705085379  9.73015610613788 6.33551316923735  11.2325581395349 6.34173912160326  C 11.2396829359358 6.34179788602421  11.2468079222323 6.34182726857031  11.253932935657 6.34182726857031  C 12.7664225249257 6.34182726857031  13.9925375951774 5.0461782623875  13.9925375951774 3.44791421626052  C 13.9925375951774 1.84965017013355  12.7664225249257 0.55400116395074  11.253932935657 0.55400116395074  C 9.74144334638839 0.55400116395074  8.51532827613668 1.84965017013355  8.51532827613668 3.44791421626052  C 8.51532827613668 3.45165296335474  8.51533513262628 3.45539170693828  8.51534884556686 3.45913042595109  Z M 15.1906976827762 5.34695653057065  C 18.1708055071829 6.88504252652413  20.1280175573829 10.0089870921924  20.3041860381541 13.5086956521739  C 20.898271566452 13.5858073513874  21.4704397215434 13.7937645334717  21.9837209302326 14.1191304347826  L 21.9837209302326 13.9947826175272  C 21.9753474672297 9.48459656252893  19.4624312800466 5.39966682281472  15.5651162790698 3.56086955638587  C 15.5567751707443 4.17697055845314  15.4293617958043 4.78476988137671  15.1906976827762 5.34695653057065  Z M 5.43441861300872 18.1095652085598  C 5.42834164946559 16.5283525728277  4.21359734768161 15.2499216639208  2.71723172650456 15.2499216639208  C 1.21655847134753 15.2499216639208  2.24325365398641E-05 16.5354484043657  2.24325365398641E-05 18.1212260029154  C 2.24325365398641E-05 19.6893638215733  1.19062267722087 20.9674658839073  2.67441861300872 20.992173904212  C 2.6851158268753 20.992306900045  2.69581368856191 20.9923733996874  2.70651164279726 20.9923733996874  C 4.2130930650101 20.9923733996874  5.43441861954144 19.7017855263736  5.43441861954144 18.1097647040352  Z M 0.534883712572675 14.1304347914402  C 1.02929905142581 13.8042414456076  1.58346383921978 13.5923496379815  2.1609302409157 13.5086956521739  C 2.32944553977425 10.0162870305918  4.26801322258594 6.89166809755941  7.2316279153343 5.33565217391304  C 6.99206471511575 4.7777680476175  6.86457485571685 4.17345305509257  6.85720929396802 3.56086955638587  C 2.95989429299116 5.39966682281472  0.44697810580809 9.48459656252893  0.438604642805233 13.9947826175272  C 0.462530434158991 14.0458716649213  0.495169585621033 14.0918585223058  0.534883712572675 14.1304347914402  Z M 11.2325581395349 23.6600000088315  L 11.2325581395349 23.6826086956522  C 9.19152310069941 23.6816939400172  7.21129215745465 22.9483115122085  5.61627906976744 21.6026086868207  C 5.16969702436466 22.0245367784066  4.64516472190553 22.3440170044009  4.07581395348837 22.5408695740489  C 8.14430750515418 26.4105376957705  14.3208087739156 26.4105376957705  18.3893023255814 22.5408695740489  C 17.8199515571642 22.3440170044009  17.2954192547051 22.0245367784066  16.8488372093023 21.6026086868207  C 15.2509880938502 22.9401996725067  13.2710280987068 23.6655112998909  11.2325581395349 23.6600000088315  Z " fill-rule="nonzero" fill="#ffffff" stroke="none" transform="matrix(1 0 0 1 127 3 )" />
  </g>
</svg>