<?xml version="1.0" encoding="utf-8"?>
<svg version="1.1" xmlns:xlink="http://www.w3.org/1999/xlink" width="27px" height="30px" xmlns="http://www.w3.org/2000/svg">
  <g transform="matrix(1 0 0 1 -9 -17 )">
    <path d="M 26.7269981971154 21.8579296875  C 26.7259029447115 24.77484375  19.8699879807692 26.1033984375  13.5 26.1033984375  C 7.13001201923077 26.1033984375  0.274097055288462 24.77484375  0.274097055288462 21.8579296875  C 0.274097055288462 21.316875  0.729356971153847 20.878125  1.29158653846154 20.878125  C 2.83443209134615 20.878125  4.69563100961539 18.243515625  5.02201622596154 13.9843359375  L 5.02201622596154 12.7137890625  C 5.02201622596154 11.0080078125  5.56307091346154 9.37359375  6.58640174278846 7.98703125  C 6.70249849759616 7.8298828125  6.82407151442308 7.6766015625  6.95185096153846 7.5282421875  C 7.30890324519231 7.110234375  7.95035606971154 7.05046875  8.3837109375 7.395703125  C 8.81706580528846 7.7398828125  8.87913010817308 8.3572265625  8.52134765625 8.77453125  C 8.42496544471154 8.8873828125  8.33259915865385 9.0033984375  8.24461388221154 9.1229296875  C 7.46771484375 10.1755078125  7.05663010817308 11.4172265625  7.05663010817308 12.7137890625  L 7.05663010817308 14.0201953125  C 7.05663010817308 14.0433984375  7.05553485576923 14.066953125  7.05407451923077 14.0905078125  C 6.75141977163462 18.155625  5.13263671875 21.32671875  2.97571965144231 22.422890625  C 4.34588040865385 23.1608203125  7.82403695913462 24.144140625  13.5003650841346 24.144140625  C 19.1719471153846 24.144140625  22.6486433293269 23.162578125  24.0217247596154 22.421484375  C 21.8662680288462 21.32390625  20.2489453125 18.1538671875  19.9466556490385 14.090859375  C 19.9448302283654 14.06765625  19.9441000600962 14.0441015625  19.9441000600962 14.020546875  L 19.9441000600962 12.714140625  C 19.9441000600962 9.29273437500001  17.0537289663462 6.5094140625  13.5007301682692 6.5094140625  C 12.7066721754808 6.5094140625  11.9319636418269 6.6465234375  11.19814453125 6.916875  C 10.6735186298077 7.1091796875  10.0850030048077 6.8574609375  9.88420673076923 6.3519140625  C 9.68304537259615 5.84671875  9.94590594951923 5.2803515625  10.4708969350962 5.086640625  C 11.4376397235577 4.7305078125  12.4569546274038 4.549453125  13.5007301682692 4.549453125  C 18.1756325120192 4.549453125  21.9790790264423 8.2116796875  21.9790790264423 12.7137890625  L 21.9790790264423 13.9843359375  C 22.3054642427885 18.243515625  24.1666631610577 20.878125  25.7095087139423 20.878125  C 26.2713731971154 20.878125  26.7269981971154 21.3165234375  26.7269981971154 21.8579296875  Z M 18.5870823317308 25.12359375  C 18.5870823317308 27.464296875  16.30494140625 29.3690625  13.5 29.3690625  C 10.69505859375 29.3690625  8.41291766826923 27.4646484375  8.41291766826923 25.12359375  C 8.41291766826923 24.5825390625  8.86817758413462 24.1437890625  9.43040715144231 24.1437890625  C 9.99227163461538 24.1437890625  10.4478966346154 24.5821875  10.4478966346154 25.12359375  C 10.4478966346154 26.3839453125  11.8169621394231 27.409453125  13.5 27.409453125  C 15.1830378605769 27.409453125  16.5521033653846 26.3839453125  16.5521033653846 25.12359375  C 16.5521033653846 24.5825390625  17.00736328125 24.1437890625  17.5695928485577 24.1437890625  C 18.1314573317308 24.1437890625  18.5870823317308 24.5821875  18.5870823317308 25.12359375  Z M 16.5513731971154 4.8781640625  C 16.5521033653846 5.4195703125  16.0968434495192 5.85796875  15.5346138822115 5.85796875  C 14.9727493990385 5.85796875  14.5171243990385 5.4195703125  14.5171243990385 4.8781640625  L 14.5171243990385 3.5576953125  C 14.5171243990385 3.0240234375  14.0607692307692 2.5901953125  13.4996349158654 2.5901953125  C 12.9385006009615 2.5901953125  12.4821454326923 3.024375  12.4821454326923 3.5576953125  L 12.4821454326923 4.856015625  C 12.4821454326923 5.3970703125  12.0268855168269 5.8358203125  11.4646559495192 5.8358203125  C 10.9027914663462 5.8358203125  10.4471664663462 5.397421875  10.4471664663462 4.856015625  L 10.4471664663462 3.5576953125  C 10.4471664663462 1.943671875  11.8162319711538 0.6305859375  13.4992698317308 0.6305859375  C 15.1823076923077 0.6305859375  16.5513731971154 1.943671875  16.5513731971154 3.5576953125  L 16.5513731971154 4.8781640625  Z " fill-rule="nonzero" fill="#000000" stroke="none" transform="matrix(1 0 0 1 9 17 )" />
  </g>
</svg>