<?xml version="1.0" encoding="utf-8"?>
<svg version="1.1" xmlns:xlink="http://www.w3.org/1999/xlink" width="19px" height="23px" xmlns="http://www.w3.org/2000/svg">
  <g transform="matrix(1 0 0 1 -55 -317 )">
    <path d="M 18.303351064686 8.35996551402418  C 18.1065714391356 7.50380624272184  17.935053765961 6.76354257013819  17.935053765961 5.69481164022627  C 17.935053765961 3.34482261146607  18.7673362456277 2.19734495996793  18.7748489305951 2.18880294271112  C 18.9191715628642 1.99994427992384  18.9023009720601 1.73131563306645  18.735484218719 1.56238834387839  L 17.3296016517145 0.138718801076736  C 17.1824672543114 -0.0102771145121003  16.9556368888913 -0.0425766172644129  16.7737947656153 0.0580590235423792  C 16.7569241748112 0.0666010407991892  15.1382700680566 0.949276157336217  13.2487638980025 0.949276157336217  C 11.3695821780498 0.949276157336217  9.73968101075916 0.0666010407991892  9.7237330303897 0.0580590235423793  C 9.58406738412385 -0.0178848486314466  9.41443886564871 -0.0188191317689102  9.27573976364767 0.0580590235423793  C 9.25886917284361 0.0666010407991892  7.64021506608898 0.949276157336217  5.75070889603489 0.949276157336217  C 3.87152717608223 0.949276157336217  2.24162600879157 0.0666010407991892  2.22567802842211 0.0580590235423793  C 2.04383590514612 -0.0415978444537367  1.8170494735562 -0.00934283137463667  1.67083768658773 0.139697573887412  L 0.26495511958319 1.56336711668907  C 0.0999835871112515 1.7304258396022  0.0831129963071973 1.99807571364891  0.223701253007651 2.18693437643619  C 0.232136548409678 2.19832373277861  1.06441902807636 3.34580138427674  1.06441902807636 5.69579041303694  C 1.06441902807636 6.76354257013818  0.893823965336406 7.50385073239505  0.696077795521175 8.36089979716164  C 0.428960107790313 9.51785374905405  0.127178628016746 10.8295427843797  0.127178628016746 13.2887094712035  C 0.127178628016746 17.796981526851  3.58938411841651 19.8632154198616  9.2916438101869 22.7304858790641  C 9.35723701870371 22.7618066090057  9.42849769131875 22.7788906435194  9.49971443010357 22.7788906435194  C 9.57093116888839 22.7788906435194  9.64219184150344 22.7618066090057  9.70778505002025 22.7295515959266  C 15.4100447417906 19.8622811367241  18.8722502321904 17.7960472437136  18.8722502321904 13.2877751880661  C 18.8722502321904 10.8276742181048  18.569502208152 9.51696395558981  18.303351064686 8.35996551402418  Z M 14.6302192554053 9.33940566979851  C 14.6865424257459 9.51118029807217  14.6424767940364 9.70008345053266  14.5178365177054 9.82723493657414  L 12.362135270355 12.0102097320944  L 13.2047422001231 15.4232350125953  C 13.2450295224339 15.4934842065979  13.2675236435059 15.5741439841323  13.2675236435059 15.6604984398379  C 13.2675236435059 15.9262352579364  13.0097638616117 16.1540223847847  12.7895235707244 16.1350697839962  L 12.7801656648878 16.1350697839962  C 12.7005136307009 16.1350697839962  12.6198950522493 16.1142041272595  12.5477117691996 16.0724283241129  L 9.49975836393379 14.308991146987  L 6.45180495866796 16.0724283241129  C 6.28872258089543 16.1663905139378  6.08627549124678 16.1530881016472  5.9363293287097 16.0382602550856  C 5.78638316617262 15.923432408524  5.71890080295641 15.729813350703  5.76481165553515 15.5447363101388  L 6.63738145751256 12.0083411658195  L 4.4816802101622 9.82536637029921  C 4.35607338956638 9.69817039458452  4.31205169168706 9.5102460149347  4.36828699436724 9.33940566979851  C 4.42452229704742 9.16856532466231  4.57073408401589 9.0451954608439  4.74598613275905 9.01956940907347  L 7.76582188668479 8.5829922458387  L 9.06859175416559 5.50595297743898  C 9.21572615156866 5.15666455304724  9.78278009820389 5.15666455304724  9.92991449560696 5.50595297743898  L 11.2326843630878 8.5829922458387  L 14.2525201170135 9.01956940907347  C 14.4287387100215 9.0451954608439  14.5749504969899 9.16856532466231  14.6302192554053 9.33940566979851  Z " fill-rule="nonzero" fill="#666666" stroke="none" transform="matrix(1 0 0 1 55 317 )" />
  </g>
</svg>