<?xml version="1.0" encoding="utf-8"?>
<svg version="1.1" xmlns:xlink="http://www.w3.org/1999/xlink" width="28px" height="14px" xmlns="http://www.w3.org/2000/svg">
  <g transform="matrix(1 0 0 1 -55 -145 )">
    <path d="M 26.0133481937293 7.77192621937065  C 25.5588468193171 5.53654211333478  25.68012125525 4.73584647175003  23.8757901126041 4.53539285863787  C 22.0711171110832 4.33531218248034  19.1383098218148 4.20180075272377  16.8140967948986 1.96604370973327  C 14.4898837679825 -0.269247162063939  14.0032476593132 0.131007424489781  14.0032476593132 0.131007424489781  C 14.0032476593132 0.131007424489781  13.5115691322366 -0.269153927825282  11.1872706406017 1.96604370973327  C 8.86305761368552 4.20180075272377  5.92418232938451 4.33531218248034  4.11968025730113 4.53539285863787  C 2.31517818521774 4.73575323751137  2.43841830968228 5.53644887909612  1.98391693527007 7.77192621937065  C 1.52941556085786 10.0074035596452  -0.00689822372919196 10.6084846962657  0.484780303347426 11.1424371810533  C 0.826040925391045 11.5127635769982  2.40038650983019 12.9253555268876  3.33391763294124 13.7566319987518  C 5.72855358812285 12.1774304643826  9.58087578662425 11.1269602974363  14.003333124032 11.1269602974363  C 18.4254486025646 11.1269602974363  22.2773434774722 12.177057527428  24.6724067562476 13.7561658275585  C 25.6035448672332 12.9247961214557  27.1745573276403 11.5127635769982  27.5153906260901 11.1424371810533  C 28.0070691531667 10.6084846962657  26.4678495681415 10.0074035596452  26.0133481937293 7.77192621937065  Z M 15.391451086274 7.00927014715788  L 16.2489186096809 9.90689705037313  L 14.003333124032 8.13600592132553  L 11.7578331031018 9.9201363122624  L 12.6157279501026 7.00731222814608  L 10.3698006055786 5.19446569170291  L 13.14552374175 5.19446569170291  L 14.0034185887508 2.31464652807112  L 14.8612279710327 5.19446569170291  L 17.6369511072042 5.19446569170291  L 15.391451086274 7.00927014715788  Z " fill-rule="nonzero" fill="#5c646f" stroke="none" transform="matrix(1 0 0 1 55 145 )" />
  </g>
</svg>