<?xml version="1.0" encoding="utf-8"?>
<svg version="1.1" xmlns:xlink="http://www.w3.org/1999/xlink" width="20px" height="19px" xmlns="http://www.w3.org/2000/svg">
  <g transform="matrix(1 0 0 1 -79 -66 )">
    <path d="M 4.8125 11.4461805555556  L 4.1875 13.2956018518518  L 2.0625 13.2956018518518  L 2.0625 10.5533564814815  L 0 10.1707175925926  L 0 18.971412037037  L 2.0625 18.2699074074074  L 2.0625 15.2087962962963  L 5.375 15.2087962962963  L 7.1875 12.7216435185185  L 4.8125 11.4461805555556  Z M 14.9375 13.9333333333333  L 14.9375 13.8695601851852  L 19.75 10.7446759259259  L 4.75 0.668518518518517  L 3 0.668518518518517  L 0.625 4.49490740740741  L 0.625 5.77037037037037  L 13.8125 13.9333333333333  L 14.9375 13.9333333333333  Z M 14.375 15.2087962962963  C 13.6875 14.7623842592593  13.125 14.5072916666667  13.125 14.5072916666667  L 1.75 6.98206018518519  L 0.5625 8.25752314814815  L 13.75 16.4204861111111  L 14.9375 16.4204861111111  L 15.5625 15.7827546296296  L 16.1875 13.9333333333333  C 16.1875 13.9333333333333  14.4375 15.2087962962963  14.375 15.2087962962963  Z " fill-rule="nonzero" fill="#666666" stroke="none" transform="matrix(1 0 0 1 79 66 )" />
  </g>
</svg>