<?xml version="1.0" encoding="utf-8"?>
<svg version="1.1" xmlns:xlink="http://www.w3.org/1999/xlink" width="18px" height="35px" xmlns="http://www.w3.org/2000/svg">
  <g>
    <path d="M 11.9196734693878 31.8387096774194  L 12.4028081632653 28.7036129032258  C 11.3169248295708 29.1844425578744  10.1462340817295 29.4317139452637  8.96326530612245 29.4301075268817  C 7.74132244897959 29.4301075268817  6.57815510204082 29.1711827956989  5.52372244897959 28.7036129032258  L 6.00685714285714 31.8387096774194  L 11.9196734693878 31.8387096774194  Z M 3.30582857142857 33.6162580645161  L 2.13502040816326 26.0216344086022  C 0.939302381829636 24.4605139371795  0.290825029514587 22.5327564513495  0.293877551020407 20.5483870967742  L 0.293877551020405 14.2258064516129  C 0.29079749448752 12.2086514677296  0.96085296074367 10.251021182427  2.19291428571429 8.67759139784946  L 3.30582857142857 1.45901075268817  C 3.41515102040816 0.749075268817205  4.01848163265306 0.225806451612904  4.72731428571429 0.225806451612904  L 13.1992163265306 0.225806451612904  C 13.9080489795918 0.225806451612904  14.5113795918367 0.749075268817205  14.6207020408163 1.45901075268817  L 15.7336163265306 8.67759139784947  C 16.9656776515012 10.251021182427  17.6357331177574 12.2086514677296  17.6326530612245 14.2258064516129  L 17.6326530612245 20.5483870967742  C 17.6326530612245 22.6131612903226  16.9449795918367 24.513247311828  15.7915102040816 26.0216344086022  L 14.6207020408163 33.6162580645161  C 14.5113795918367 34.3261935483871  13.9080489795918 34.8494623655914  13.1992163265306 34.8494623655914  L 4.72731428571429 34.8494623655914  C 4.01848163265306 34.8494623655914  3.41515102040816 34.3261935483871  3.30582857142857 33.6162580645161  Z M 8.96326530612245 5.34408602150538  C 10.166106122449 5.34408602150538  11.3116408163265 5.59518279569893  12.3531428571429 6.04860215053763  L 11.9196734693878 3.23655913978495  L 6.00685714285714 3.23655913978495  L 5.57338775510204 6.04860215053764  C 6.64545730976931 5.58212018489048  7.79850953184018 5.34248206350144  8.96326530612245 5.34408602150538  Z M 9.11020408163265 13.1720430107527  C 9.92172453036361 13.1720430107527  10.5795918367347 12.4980630642614  10.5795918367347 11.6666666666667  C 10.5795918367347 10.8352702690719  9.92172453036361 10.1612903225806  9.11020408163265 10.1612903225806  C 8.29868363290169 10.1612903225806  7.64081632653061 10.8352702690719  7.64081632653061 11.6666666666667  C 7.64081632653061 12.4980630642614  8.29868363290169 13.1720430107527  9.11020408163265 13.1720430107527  Z M 9.11020408163265 18.6775053763441  C 9.92172453036361 18.6775053763441  10.5795918367347 18.0035254298528  10.5795918367347 17.1721290322581  C 10.5795918367347 16.3407326346633  9.92172453036361 15.666752688172  9.11020408163265 15.666752688172  C 8.29868363290169 15.666752688172  7.64081632653061 16.3407326346633  7.64081632653061 17.1721290322581  C 7.64081632653061 18.0035254298528  8.29868363290169 18.6775053763441  9.11020408163265 18.6775053763441  Z M 9.11020408163265 24.1826666666667  C 9.92172453036361 24.1826666666667  10.5795918367347 23.5086867201754  10.5795918367347 22.6772903225806  C 10.5795918367347 21.8458939249859  9.92172453036361 21.1719139784946  9.11020408163265 21.1719139784946  C 8.29868363290169 21.1719139784946  7.64081632653061 21.8458939249859  7.64081632653061 22.6772903225806  C 7.64081632653061 23.5086867201754  8.29868363290169 24.1826666666667  9.11020408163265 24.1826666666667  Z " fill-rule="nonzero" fill="#5c646f" stroke="none" />
  </g>
</svg>