<?xml version="1.0" encoding="utf-8"?>
<svg version="1.1" xmlns:xlink="http://www.w3.org/1999/xlink" width="36px" height="17px" xmlns="http://www.w3.org/2000/svg">
  <g>
    <path d="M 33.4457333919377 9.43733898066436  C 32.8613744819792 6.72294399476366  33.01729875675 5.75067071569646  30.697444430491 5.50726275691741  C 28.3771505713927 5.26430765015469  24.6063983423333 5.10218662830744  21.618124450584 2.3873387903904  C 18.6298505588346 -0.326942982506212  18.0041755619741 0.159080444023305  18.0041755619741 0.159080444023305  C 18.0041755619741 0.159080444023305  17.3720174557328 -0.326829769502129  14.3836336807736 2.3873387903904  C 11.3953597890242 5.10218662830744  7.6168058520658 5.26430765015469  5.29673175938717 5.50726275691741  C 2.97665766670853 5.75055750269238  3.13510925530579 6.72283078175958  2.55075034534723 9.43733898066436  C 1.96639143538867 12.1518471795691  -0.00886914479467538 12.881731416894  0.623288961446691 13.530102291279  C 1.06205261835991 13.9797843434978  3.08621122692453 15.6950745683635  4.28646552806731 16.7044817127701  C 7.36528318472937 14.7868798496075  12.3182688685169 13.5113089326012  18.004285445184 13.5113089326012  C 23.6898624890117 13.5113089326012  28.64229875675 14.7864269975911  31.7216658294613 16.7039156477496  C 32.9188434007284 15.694395290339  34.938716564109 13.9797843434978  35.376930804973 13.530102291279  C 36.0090889112144 12.8817314168941  34.0300923018963 12.1518471795691  33.4457333919377 9.43733898066436  Z M 19.7890085394952 8.51125660726314  L 20.8914667838754 12.0298035611674  L 18.004285445184 9.87943576160957  L 15.1172139897024 12.0458798077472  L 16.2202216501319 8.50887913417739  L 13.332600778601 6.30756548278211  L 16.9013876679643 6.30756548278211  L 18.0043953283938 2.81064221265778  L 19.1072931056135 6.30756548278211  L 22.6760799949768 6.30756548278211  L 19.7890085394952 8.51125660726314  Z " fill-rule="nonzero" fill="#5c646f" stroke="none" />
  </g>
</svg>