<?xml version="1.0" encoding="utf-8"?>
<svg version="1.1" xmlns:xlink="http://www.w3.org/1999/xlink" width="26px" height="32px" xmlns="http://www.w3.org/2000/svg">
  <g>
    <path d="M 25.0466909306229 11.631256367338  C 24.7774135482908 10.4400782507434  24.5427051534203 9.41014618454009  24.5427051534203 7.92321619509741  C 24.5427051534203 4.65366624203975  25.6816180203326 3.05717559647712  25.6918985366038 3.04529105072852  C 25.889392664972 2.78253117206795  25.8663065933454 2.40878696774463  25.6380310361418 2.17375769583081  L 23.714191733925 0.193000071063284  C 23.5128499269524 -0.0142985941037918  23.2024504795354 -0.0592370327157049  22.9536138897893 0.0807777718850494  C 22.9305278181627 0.0926623176336545  20.7155274615511 1.32073204498952  18.1298874393718 1.32073204498952  C 15.5583756120682 1.32073204498952  13.3279845410389 0.0926623176336546  13.3061609889543 0.0807777718850494  C 13.1150395782747 -0.0248832676611431  12.8829163424667 -0.0261831398523968  12.6931175713073 0.0807777718850494  C 12.6700314996807 0.0926623176336546  10.4550311430691 1.32073204498952  7.86939112088984 1.32073204498952  C 5.29787929358621 1.32073204498952  3.06748822255688 0.0926623176336546  3.04566467047236 0.0807777718850494  C 2.79682808072626 -0.0578752618486772  2.48648875328743 -0.012998721912538  2.28640946585689 0.194361841930312  L 0.362570163640155 2.17511946669784  C 0.13681964552066 2.40754899422915  0.11373357389406 2.77993142768544  0.306117504115733 3.04269130634601  C 0.317660539929033 3.05853736734415  1.45657340684134 4.65502801290677  1.45657340684134 7.92457796596444  C 1.45657340684134 9.41014618454008  1.22312753151298 10.4401401494192  0.952527509660555 11.6325562395292  C 0.586998042239376 13.2422313030317  0.174033912022915 15.0671899608761  0.174033912022915 18.4886392642832  C 0.174033912022915 24.7610177764884  4.91178879362259 27.6357779754596  12.7148810034137 31.6250238317414  C 12.8046401308577 31.6686004994863  12.9021547354888 31.6923695909835  12.9996092201417 31.6923695909835  C 13.0970637047946 31.6923695909835  13.1945783094258 31.6686004994863  13.2843374368698 31.6237239595501  C 21.0874296466609 27.6344781032683  25.8251845282606 24.7597179042971  25.8251845282606 18.4873393920919  C 25.8251845282606 15.0645902164936  25.4108977585238 13.2409933295163  25.0466909306229 11.631256367338  Z M 20.0203000337125 12.9939557145023  C 20.0973738457576 13.2329465016656  20.0370735076287 13.495768279002  19.8665131294916 13.672674694364  L 16.9166061594332 16.7098570185661  L 18.0696472212212 21.4584139305674  C 18.1247772412253 21.5561519396145  18.1555586700608 21.6683742387928  18.1555586700608 21.7885195684701  C 18.1555586700608 22.1582403588681  17.802834757995 22.4751615788309  17.5014533073071 22.4487927429512  L 17.4886477519517 22.4487927429512  C 17.3796502314855 22.4487927429512  17.269330071499 22.4197622640132  17.1705529473258 22.3616394074614  L 12.9996693401199 19.908161595808  L 8.82878573291405 22.3616394074614  C 8.60562037385691 22.4923694106961  8.3285875143377 22.4738617066396  8.12339802876065 22.314101224467  C 7.91820854318359 22.1543407422943  7.82586425667719 21.8849577053259  7.8886896338902 21.6274592141062  L 9.08273252080666 16.7072572741836  L 6.13282555074827 13.6700749499815  C 5.96094253309084 13.4931066359437  5.90070231494018 13.2316466294744  5.97765588702885 12.9939557145023  C 6.05460945911752 12.7562647995302  6.25468874654806 12.5846197716089  6.49450733956502 12.5489661343631  L 10.6269141607266 11.941554428993  L 12.4096518741213 7.66045631643685  C 12.6109936810939 7.17448981293529  13.3869622396474 7.17448981293529  13.58830404662 7.66045631643685  L 15.3710417600148 11.941554428993  L 19.5034485811764 12.5489661343631  C 19.7445898137136 12.5846197716089  19.9446691011441 12.7562647995302  20.0203000337125 12.9939557145023  Z " fill-rule="nonzero" fill="#666666" stroke="none" />
  </g>
</svg>