<?xml version="1.0" encoding="utf-8"?>
<svg version="1.1" xmlns:xlink="http://www.w3.org/1999/xlink" width="29px" height="27px" xmlns="http://www.w3.org/2000/svg">
  <g>
    <path d="M 6.978125 16.265625  L 6.071875 18.89375  L 2.990625 18.89375  L 2.990625 14.996875  L 0 14.453125  L 0 26.959375  L 2.990625 25.9625  L 2.990625 21.6125  L 7.79375 21.6125  L 10.421875 18.078125  L 6.978125 16.265625  Z M 21.659375 19.8  L 21.659375 19.709375  L 28.6375 15.26875  L 6.8875 0.949999999999997  L 4.35 0.949999999999997  L 0.90625 6.3875  L 0.90625 8.2  L 20.028125 19.8  L 21.659375 19.8  Z M 20.84375 21.6125  C 19.846875 20.978125  19.03125 20.615625  19.03125 20.615625  L 2.5375 9.921875  L 0.815625 11.734375  L 19.9375 23.334375  L 21.659375 23.334375  L 22.565625 22.428125  L 23.471875 19.8  C 23.471875 19.8  20.934375 21.6125  20.84375 21.6125  Z " fill-rule="nonzero" fill="#ffffff" stroke="none" />
  </g>
</svg>