<?xml version="1.0" encoding="utf-8"?>
<svg version="1.1" xmlns:xlink="http://www.w3.org/1999/xlink" width="26px" height="30px" xmlns="http://www.w3.org/2000/svg">
  <g transform="matrix(1 0 0 1 -228 -60 )">
    <path d="M 25.9285 7.23650000976563  C 25.9270223319156 6.82974825187569  25.6793187858861 6.46442011125484  25.3020000097656 6.31250000976562  C 21.5735000195313 4.79000000976563  18.2825000195313 2.95250000976562  15.5575 0.867500009765625  C 14.0483192124995 -0.2875843606608  11.9521807972661 -0.2875843606608  10.4430000097656 0.867500009765625  C 7.71800001953125 2.952  4.42700001953125 4.79000000976563  0.697999990234377 6.31250000976563  C 0.320681214113936 6.46442011125484  0.072977668084385 6.82974825187569  0.0715000000000026 7.23650000976563  L 0.0715000000000026 15.4524999902344  C 0.0715000000000026 22.5634999804687  11.1060000097656 29.9989999804687  13 29.9990000097656  C 14.8939999902344 29.9990000097656  25.9285 22.563  25.9285 15.4524999902344  L 25.9285 7.23650000976563  Z M 19.6637757975874 11.223  C 19.6637757975874 11.4881620751044  19.5584647651462 11.7424689681651  19.3710000097656 11.9300000097656  L 11.8189999902344 19.4814999902344  C 11.6234999804688 19.677  11.368 19.7745  11.1120000097656 19.7745  C 10.8560000195312 19.7745  10.6005000097656 19.677  10.405 19.4814999902344  L 6.62899999023437 15.7055000097656  C 6.43389801162825 15.5170637021466  6.32371276329699 15.2574562310292  6.32371276329699 14.9862127535314  C 6.32371276329699 14.433928009094  6.77142800909398 13.986212763297  7.32371275353136 13.986212763297  C 7.59495623102916 13.986212763297  7.85456370214665 14.0963980116283  8.04300000976562 14.2914999902344  L 11.1120000097656 17.3604999902344  L 17.9565000097656 10.5159999902344  C 18.1440513769595 10.3283823061952  18.3984654254029 10.2229742121782  18.6637500097656 10.2229742121782  C 19.2160490018171 10.2229742121782  19.6637757975874 10.6707010079485  19.6637757975874 11.223  Z " fill-rule="nonzero" fill="#ffffff" stroke="none" transform="matrix(1 0 0 1 228 60 )" />
  </g>
</svg>