<?xml version="1.0" encoding="utf-8"?>
<svg version="1.1" xmlns:xlink="http://www.w3.org/1999/xlink" width="62px" height="63px" xmlns="http://www.w3.org/2000/svg">
  <g transform="matrix(1 0 0 1 -51 -44 )">
    <path d="M 61.8985234375 31.5359024752103  C 61.8985234375 14.5166810584435  48.05484375 0.720174429086538  30.97735546875 0.720174429086538  C 13.8998671875 0.720174429086538  0.056126953125 14.5166810584435  0.056126953125 31.5359024752103  C 0.056126953125 48.5551842322716  13.8998671875 62.3516305213341  30.97735546875 62.3516305213341  C 48.05484375 62.3516305213341  61.8985234375 48.5551238919772  61.8985234375 31.5359024752103  Z M 4.272671875 31.5359024752103  C 4.272671875 16.8379721867488  16.2304375 4.92233287635217  30.97735546875 4.92233287635216  C 45.7269375 4.92233287635216  57.6820390625 16.8379721867488  57.6820390625 31.5359024752103  C 57.6820390625 36.8064461763822  56.1446328125 41.7190512507512  53.49255859375 45.8529044846755  C 49.047267578125 41.1699545710637  43.14243359375 37.8756761944111  36.503287109375 36.6914979154147  C 40.741810546875 34.6547112755409  43.672279296875 30.3458711876502  43.672279296875 25.3435400954026  C 43.672279296875 18.3809941969651  38.00902734375 12.7371250939002  31.02264453125 12.7371250939002  C 24.03626171875 12.7371250939002  18.3730703125 18.3809941969651  18.3730703125 25.3434797551082  C 18.3730703125 30.3458108473558  21.303478515625 34.6546509352464  25.542001953125 36.6914375751202  C 18.87621484375 37.8803827373798  12.950673828125 41.196504300631  8.499328125 45.9096243614784  C 5.824548828125 41.7640047701322  4.272671875 36.8305219538762  4.272671875 31.5359024752103  Z " fill-rule="nonzero" fill="#ffffff" stroke="none" transform="matrix(1 0 0 1 51 44 )" />
  </g>
</svg>