<?xml version="1.0" encoding="utf-8"?>
<svg version="1.1" xmlns:xlink="http://www.w3.org/1999/xlink" width="21px" height="21px" xmlns="http://www.w3.org/2000/svg">
  <g transform="matrix(1 0 0 1 -271 -72 )">
    <path d="M 281.5 72  C 287.38 72  292 76.62  292 82.5  C 292 88.38  287.38 93  281.5 93  C 275.62 93  271 88.38  271 82.5  C 271 76.62  275.62 72  281.5 72  Z " fill-rule="nonzero" fill="#ffffff" stroke="none" />
    <path d="M 281.5 72.5  C 287.1 72.5  291.5 76.9  291.5 82.5  C 291.5 88.1  287.1 92.5  281.5 92.5  C 275.9 92.5  271.5 88.1  271.5 82.5  C 271.5 76.9  275.9 72.5  281.5 72.5  Z " stroke-width="1" stroke="#797979" fill="none" />
  </g>
</svg>