<?xml version="1.0" encoding="utf-8"?>
<svg version="1.1" xmlns:xlink="http://www.w3.org/1999/xlink" width="23px" height="11px" xmlns="http://www.w3.org/2000/svg">
  <g transform="matrix(1 0 0 1 -152 -111 )">
    <path d="M 21.3681074448491 6.10651345807694  C 20.9947670301533 4.3501402319059  21.0943853168125 3.72102222780359  19.6122561639248 3.56352296035832  C 18.1298461983898 3.40631671480598  15.7207544964907 3.30141487714011  13.8115795100953 1.54474862907614  C 11.9024045236999 -0.211551341621667  11.5026677201501 0.102934404956256  11.5026677201501 0.102934404956256  C 11.5026677201501 0.102934404956256  11.0987889300515 -0.211478086148436  9.18954374049423 1.54474862907614  C 7.28036875409882 3.30141487714011  4.86629262770871 3.40631671480598  3.38402306849736 3.56352296035832  C 1.901753509286 3.72094897233036  2.00298646866759 4.35006697643267  1.62964605397184 6.10651345807694  C 1.2563056392761 7.86295993972121  -0.00566639806326482 8.33523797563732  0.398212392035386 8.75477207082758  C 0.678533617285501 9.04574281049856  1.97174606164623 10.1556364854117  2.73857519848745 10.8087822847336  C 4.70559759024377 9.56798107915778  7.87000511044135 8.74261166227134  11.502737923312 8.74261166227134  C 15.1351899235352 8.74261166227134  18.2992464279236 9.56768805726485  20.2666198354891 10.8084160073674  C 21.0314832837987 10.1551969525723  22.3219578048474 9.04574281049856  22.6019280142883 8.75477207082758  C 23.005806804387 8.33523797563733  21.7414478595448 7.86295993972121  21.3681074448491 6.10651345807694  Z M 12.6429776780108 5.50728368705262  L 13.3473260008093 7.78399053957888  L 11.502737923312 6.39257608104148  L 9.65822004897652 7.7943928167776  L 10.3629193875842 5.50574532211478  L 8.51805049743955 4.08136590062372  L 10.7981087878661 4.08136590062372  L 11.5028081264738 1.81865084348445  L 12.2074372619197 4.08136590062372  L 14.4874955523463 4.08136590062372  L 12.6429776780108 5.50728368705262  Z " fill-rule="nonzero" fill="#ffffff" stroke="none" transform="matrix(1 0 0 1 152 111 )" />
  </g>
</svg>