<?xml version="1.0" encoding="utf-8"?>
<svg version="1.1" xmlns:xlink="http://www.w3.org/1999/xlink" width="26px" height="26px" xmlns="http://www.w3.org/2000/svg">
  <g transform="matrix(1 0 0 1 -328 -431 )">
    <path d="M 1.06020096 24.971744  L 1.06020096 21.035968  L 5.20336128 21.035968  L 5.20336128 24.971744  L 1.06020096 24.971744  Z M 8.19842816 24.971776  L 8.19842816 17.714208  L 12.34158848 17.714208  L 12.34158848 24.971776  L 8.19842816 24.971776  Z M 14.63777536 25.019776  L 14.63777536 13.900864  L 18.78093568 13.900864  L 18.78093568 25.019776  L 14.63777536 25.019776  Z M 21.80096256 25.019744  L 21.80096256 9.967968  L 26 9.967968  L 26 25.019744  L 21.80096256 25.019744  Z M 10.78132224 8.965632  L 1.8097664 17.714208  L 0.38794496 16.366144  L 12.08909312 4.955776  L 13.1923584 11.113344  L 23.26435072 2.221728  L 24.61478656 3.636064  L 11.84608256 14.908352  L 10.78132224 8.965632  Z M 22.83164416 3.43296  L 19.70102784 2.928896  L 25.96229376 0.936992  L 23.93956864 7.026208  L 22.83164416 3.43296  Z " fill-rule="nonzero" fill="#5c646f" stroke="none" transform="matrix(1 0 0 1 328 431 )" />
  </g>
</svg>