<?xml version="1.0" encoding="utf-8"?>
<svg version="1.1" xmlns:xlink="http://www.w3.org/1999/xlink" width="143px" height="170px" xmlns="http://www.w3.org/2000/svg">
  <defs>
    <mask fill="white" id="clip3">
      <path d="M 20.8674954263875 10.7415266074373  C 25.6935641120852 7.68397638456372  31.4138749366034 8.08216897172864  36.8644936875091 8.09639013555596  C 39.7175519399362 5.59346530194785  41.1653725456456 0.573394470904315  45.6365832397479 0.672942617695546  C 49.0006370000725 1.02847171337852  52.4214680390523 2.59279973438359  54.5790046279525 5.23793620626488  C 55.0332228571946 7.98262082493741  52.9324635469497 11.7796715668315  56.0268252336618 13.4435477346278  C 57.9146697489494 15.1643085577334  60.427064329445 13.7564133388288  62.4000747627155 13.0453551474629  C 64.3446965566585 12.604499068816  66.2751240309375 12.1636429901691  68.2055515052166 11.7227869115223  C 70.2353392171425 11.9076620412774  72.3981986759165 12.0925371710325  74.4421807075062 12.2774123007877  C 72.824028265831 20.411918010014  70.4908369710911 28.4326544086219  68.021025349587 36.3538426604384  C 69.1565709226924 37.4204299474873  70.4109939229822 38.4727960707089  71.5323451764237 39.5536045215852  C 75.4783660429648 39.9233547810954  79.8502164994204 40.4922013341882  82.7174690715114 37.0791220156317  C 84.9601715783944 37.4630934389693  87.2028740852775 37.8755071899615  89.4455765921605 38.2310362856445  C 90.9785631158528 36.6524871008121  92.5399382788727 35.0739379159797  94.1013134418925 33.523831058802  C 94.2290623188668 31.5897527782866  94.3426168761774 29.641453333944  94.4561714334879 27.6931538896013  C 96.9685660139835 23.6543433626427  100.034539061368 19.9710619313672  102.248852928923 15.7331551108262  C 106.862006819664 15.2069720492154  112.383597168889 14.5385773493314  113.888195053253 9.27674673322342  C 117.536135206854 10.5424303138548  116.32961803543 14.9652122641509  116.92577946131 17.8805508487513  C 117.479357928199 18.4778397294987  118.572320542313 19.6581963271661  119.111704689538 20.2554852079135  C 123.299028990364 20.411918010014  127.528936250181 20.2270428802589  131.50334575605 18.7764841698724  C 132.383393575206 22.1895634884289  132.922777722432 25.716412117604  134.214460811839 29.0157221255419  C 136.371997400739 32.5141284270623  139.948965956021 34.8463992947426  142.262640061223 38.2452574494718  C 142.95816172475 41.6014521127191  141.737450233662 44.7727716462111  139.693468202072 47.4036869542651  C 137.550125932836 46.5646382884533  135.420977983263 45.6971472949869  133.36280163201 44.6874446632472  C 132.965360681423 41.8147695701288  132.09950718193 38.1883727941625  128.877396618244 37.3208818006961  C 124.335214325822 36.1974098583379  119.778837713737 34.6046395096782  115.037934946022 34.9459474415339  C 110.325420817635 35.5858998137632  106.393594270758 31.0635697166758  101.681080142371 32.4856860994077  C 98.1892775050717 33.9931294651035  93.8742043272714 35.8703230903096  93.2780429013911 40.1508934023325  C 91.1063119928271 44.1470404378091  96.0601295554992 46.2659938480796  99.1119082832198 47.1477060053734  C 94.0729248025648 48.8542456646517  93.1928769834082 54.5142688679245  91.0495347141719 58.6952910331563  C 97.2524524072598 63.6442560450632  91.816027976018 71.4943384777432  92.4405780412259 77.8938622000366  C 90.8366199192146 76.7703902576784  89.2326617972033 75.6611394791476  87.6003150358644 74.5803310282714  C 86.9189876920012 75.27716805581  85.5705273239386 76.6850632747145  84.8891999800754 77.3819003022532  C 82.745857710839 75.4762643493924  80.3186290483263 73.9119363283874  77.635902631865 72.9022336966477  C 75.9183899525431 70.4277511906943  74.2292659125489 67.9532686847408  72.5543361922185 65.46456501496  C 70.2264677673526 65.2654687213775  67.7797219153021 65.0379301001404  65.4518534904362 64.8246126427307  C 62.3149088447327 69.745135326983  59.0786039613824 76.1304378854491  62.0310224514563 81.8900092355132  C 61.5484155828865 82.6721732460158  60.5548132064194 84.3840458417293  60.0580120181858 85.1662098522318  C 60.9238655176786 89.4894436557367  62.5846009183452 93.6420234933138  62.8542929919577 98.0932477712646  C 64.8840807038835 101.56321174513  67.0842002517751 105.033175718996  67.5242241613534 109.143092065091  C 65.8634887606869 111.318930130671  63.7059521717867 113.025469789949  61.7613303778438 114.945326906637  C 63.2233453032169 119.012579761251  63.6491748931314 123.534909858338  60.2283438541516 126.763114047139  C 56.7933184955079 135.35269699884  58.6243857321403 144.596453486597  57.8011151916389 153.541565533981  C 55.9274649960151 155.105893554986  53.5428192924938 155.888057565488  51.3143111052746 156.840875541919  C 47.4676504763803 155.646297780424  43.9900421587451 158.163443777859  40.668571357412 159.727771798864  C 32.29392275576 163.894572800269  24.2457435063759 170.663846782072  14.2529424630488 168.971528286621  C 12.3934865870888 164.235880732124  10.0656181622229 159.685108307382  8.34810548290103 154.892576097576  C 7.42547470475293 147.625561381816  11.527633087596 141.126489512731  12.5496241033908 134.115455745863  C 11.5702160465874 133.063089622642  10.6050023094479 132.01072349942  9.62559425264454 130.958357376198  C 8.94426690878134 130.773482246443  7.55322358172729 130.41795315076  6.87189623786408 130.233078021005  C 4.94146876358499 128.185230429871  2.69876625670193 126.49291193442  0.115400077887263 125.369439992062  C 1.12319677401826 121.814149035232  3.0110412893059 118.628608337913  5.793127943414 116.196789323441  C 8.7455464334879 113.836076128106  7.32611446710622 109.555505816084  8.95846122844515 106.49795559321  C 10.051423842559 104.265232872321  10.7753341454137 101.876077349331  11.0024432600348 99.3731525157233  C 13.074813930952 100.553509113391  14.8916868479206 102.772010670452  17.5034416660629 102.587135540697  C 20.4842487954644 102.94266463638  21.6197943685698 99.7002392837516  23.2947240889002 97.8941514776821  C 24.2173548670483 97.8941514776821  26.0626164233444 97.9083726415094  26.9852472014925 97.9083726415094  C 29.1853667493841 96.1733906545766  31.3854862972758 94.4384086676437  33.5430228861759 92.6607631892288  C 33.5004399271845 87.7544616688038  33.6565774434865 82.3735288056421  30.3209123224895 78.3773817701655  C 31.2577374203014 73.6417342156683  27.3117165537603 70.5415205013128  23.0960036136067 69.7593564908103  C 21.4636568522678 64.4690835470477  16.0130381013621 63.50204440679  11.2011637353282 63.2033999664163  C 9.49784537567019 61.0560042284912  7.72355541769309 58.99393547353  5.8782938613969 56.9745302100507  C 4.7001653293001 57.3158381419063  3.50784247753949 57.657146073762  2.31551962577887 57.9842328417903  C 1.5774150032604 54.8697979636075  0.0728171188958123 51.7553630854247  0.512841028474134 48.4987165689687  C 1.64838660157948 46.2091091927703  4.10400390341979 45.0714160865848  6.00604273837125 43.5070880655798  C 5.99184841870743 42.5827124168041  5.97765409904362 40.7481822830799  5.9634597793798 39.8238066343042  C 5.33890971417186 39.2549600812115  4.10400390341979 38.0888246473713  3.47945383821185 37.5057569304512  C 1.22255701166498 31.8599548910057  1.32191724931169 25.5457581516761  4.5298334933343 20.2554852079135  C 4.31691869837705 19.3311095591378  3.89108910846254 17.4965794254137  3.67817431350529 16.572203776638  C 7.65258381937401 15.4913953257617  11.7689365218809 15.1358662300788  15.871094904724 15.3065201960066  C 16.5950052075786 13.9555096324113  17.2905268711056 12.604499068816  17.957659895305 11.2392673413934  C 18.6815701981597 11.1254980307749  20.1435851235328 10.8695170818831  20.8674954263875 10.7415266074373  Z " fill-rule="evenodd" />
    </mask>
  </defs>
  <g transform="matrix(1 0 0 1 -5 -315 )">
    <path d="M 20.8674954263875 10.7415266074373  C 25.6935641120852 7.68397638456372  31.4138749366034 8.08216897172864  36.8644936875091 8.09639013555596  C 39.7175519399362 5.59346530194785  41.1653725456456 0.573394470904315  45.6365832397479 0.672942617695546  C 49.0006370000725 1.02847171337852  52.4214680390523 2.59279973438359  54.5790046279525 5.23793620626488  C 55.0332228571946 7.98262082493741  52.9324635469497 11.7796715668315  56.0268252336618 13.4435477346278  C 57.9146697489494 15.1643085577334  60.427064329445 13.7564133388288  62.4000747627155 13.0453551474629  C 64.3446965566585 12.604499068816  66.2751240309375 12.1636429901691  68.2055515052166 11.7227869115223  C 70.2353392171425 11.9076620412774  72.3981986759165 12.0925371710325  74.4421807075062 12.2774123007877  C 72.824028265831 20.411918010014  70.4908369710911 28.4326544086219  68.021025349587 36.3538426604384  C 69.1565709226924 37.4204299474873  70.4109939229822 38.4727960707089  71.5323451764237 39.5536045215852  C 75.4783660429648 39.9233547810954  79.8502164994204 40.4922013341882  82.7174690715114 37.0791220156317  C 84.9601715783944 37.4630934389693  87.2028740852775 37.8755071899615  89.4455765921605 38.2310362856445  C 90.9785631158528 36.6524871008121  92.5399382788727 35.0739379159797  94.1013134418925 33.523831058802  C 94.2290623188668 31.5897527782866  94.3426168761774 29.641453333944  94.4561714334879 27.6931538896013  C 96.9685660139835 23.6543433626427  100.034539061368 19.9710619313672  102.248852928923 15.7331551108262  C 106.862006819664 15.2069720492154  112.383597168889 14.5385773493314  113.888195053253 9.27674673322342  C 117.536135206854 10.5424303138548  116.32961803543 14.9652122641509  116.92577946131 17.8805508487513  C 117.479357928199 18.4778397294987  118.572320542313 19.6581963271661  119.111704689538 20.2554852079135  C 123.299028990364 20.411918010014  127.528936250181 20.2270428802589  131.50334575605 18.7764841698724  C 132.383393575206 22.1895634884289  132.922777722432 25.716412117604  134.214460811839 29.0157221255419  C 136.371997400739 32.5141284270623  139.948965956021 34.8463992947426  142.262640061223 38.2452574494718  C 142.95816172475 41.6014521127191  141.737450233662 44.7727716462111  139.693468202072 47.4036869542651  C 137.550125932836 46.5646382884533  135.420977983263 45.6971472949869  133.36280163201 44.6874446632472  C 132.965360681423 41.8147695701288  132.09950718193 38.1883727941625  128.877396618244 37.3208818006961  C 124.335214325822 36.1974098583379  119.778837713737 34.6046395096782  115.037934946022 34.9459474415339  C 110.325420817635 35.5858998137632  106.393594270758 31.0635697166758  101.681080142371 32.4856860994077  C 98.1892775050717 33.9931294651035  93.8742043272714 35.8703230903096  93.2780429013911 40.1508934023325  C 91.1063119928271 44.1470404378091  96.0601295554992 46.2659938480796  99.1119082832198 47.1477060053734  C 94.0729248025648 48.8542456646517  93.1928769834082 54.5142688679245  91.0495347141719 58.6952910331563  C 97.2524524072598 63.6442560450632  91.816027976018 71.4943384777432  92.4405780412259 77.8938622000366  C 90.8366199192146 76.7703902576784  89.2326617972033 75.6611394791476  87.6003150358644 74.5803310282714  C 86.9189876920012 75.27716805581  85.5705273239386 76.6850632747145  84.8891999800754 77.3819003022532  C 82.745857710839 75.4762643493924  80.3186290483263 73.9119363283874  77.635902631865 72.9022336966477  C 75.9183899525431 70.4277511906943  74.2292659125489 67.9532686847408  72.5543361922185 65.46456501496  C 70.2264677673526 65.2654687213775  67.7797219153021 65.0379301001404  65.4518534904362 64.8246126427307  C 62.3149088447327 69.745135326983  59.0786039613824 76.1304378854491  62.0310224514563 81.8900092355132  C 61.5484155828865 82.6721732460158  60.5548132064194 84.3840458417293  60.0580120181858 85.1662098522318  C 60.9238655176786 89.4894436557367  62.5846009183452 93.6420234933138  62.8542929919577 98.0932477712646  C 64.8840807038835 101.56321174513  67.0842002517751 105.033175718996  67.5242241613534 109.143092065091  C 65.8634887606869 111.318930130671  63.7059521717867 113.025469789949  61.7613303778438 114.945326906637  C 63.2233453032169 119.012579761251  63.6491748931314 123.534909858338  60.2283438541516 126.763114047139  C 56.7933184955079 135.35269699884  58.6243857321403 144.596453486597  57.8011151916389 153.541565533981  C 55.9274649960151 155.105893554986  53.5428192924938 155.888057565488  51.3143111052746 156.840875541919  C 47.4676504763803 155.646297780424  43.9900421587451 158.163443777859  40.668571357412 159.727771798864  C 32.29392275576 163.894572800269  24.2457435063759 170.663846782072  14.2529424630488 168.971528286621  C 12.3934865870888 164.235880732124  10.0656181622229 159.685108307382  8.34810548290103 154.892576097576  C 7.42547470475293 147.625561381816  11.527633087596 141.126489512731  12.5496241033908 134.115455745863  C 11.5702160465874 133.063089622642  10.6050023094479 132.01072349942  9.62559425264454 130.958357376198  C 8.94426690878134 130.773482246443  7.55322358172729 130.41795315076  6.87189623786408 130.233078021005  C 4.94146876358499 128.185230429871  2.69876625670193 126.49291193442  0.115400077887263 125.369439992062  C 1.12319677401826 121.814149035232  3.0110412893059 118.628608337913  5.793127943414 116.196789323441  C 8.7455464334879 113.836076128106  7.32611446710622 109.555505816084  8.95846122844515 106.49795559321  C 10.051423842559 104.265232872321  10.7753341454137 101.876077349331  11.0024432600348 99.3731525157233  C 13.074813930952 100.553509113391  14.8916868479206 102.772010670452  17.5034416660629 102.587135540697  C 20.4842487954644 102.94266463638  21.6197943685698 99.7002392837516  23.2947240889002 97.8941514776821  C 24.2173548670483 97.8941514776821  26.0626164233444 97.9083726415094  26.9852472014925 97.9083726415094  C 29.1853667493841 96.1733906545766  31.3854862972758 94.4384086676437  33.5430228861759 92.6607631892288  C 33.5004399271845 87.7544616688038  33.6565774434865 82.3735288056421  30.3209123224895 78.3773817701655  C 31.2577374203014 73.6417342156683  27.3117165537603 70.5415205013128  23.0960036136067 69.7593564908103  C 21.4636568522678 64.4690835470477  16.0130381013621 63.50204440679  11.2011637353282 63.2033999664163  C 9.49784537567019 61.0560042284912  7.72355541769309 58.99393547353  5.8782938613969 56.9745302100507  C 4.7001653293001 57.3158381419063  3.50784247753949 57.657146073762  2.31551962577887 57.9842328417903  C 1.5774150032604 54.8697979636075  0.0728171188958123 51.7553630854247  0.512841028474134 48.4987165689687  C 1.64838660157948 46.2091091927703  4.10400390341979 45.0714160865848  6.00604273837125 43.5070880655798  C 5.99184841870743 42.5827124168041  5.97765409904362 40.7481822830799  5.9634597793798 39.8238066343042  C 5.33890971417186 39.2549600812115  4.10400390341979 38.0888246473713  3.47945383821185 37.5057569304512  C 1.22255701166498 31.8599548910057  1.32191724931169 25.5457581516761  4.5298334933343 20.2554852079135  C 4.31691869837705 19.3311095591378  3.89108910846254 17.4965794254137  3.67817431350529 16.572203776638  C 7.65258381937401 15.4913953257617  11.7689365218809 15.1358662300788  15.871094904724 15.3065201960066  C 16.5950052075786 13.9555096324113  17.2905268711056 12.604499068816  17.957659895305 11.2392673413934  C 18.6815701981597 11.1254980307749  20.1435851235328 10.8695170818831  20.8674954263875 10.7415266074373  Z " fill-rule="nonzero" fill="#42c8a0" stroke="none" transform="matrix(1 0 0 1 5 315 )" />
    <path d="M 20.8674954263875 10.7415266074373  C 25.6935641120852 7.68397638456372  31.4138749366034 8.08216897172864  36.8644936875091 8.09639013555596  C 39.7175519399362 5.59346530194785  41.1653725456456 0.573394470904315  45.6365832397479 0.672942617695546  C 49.0006370000725 1.02847171337852  52.4214680390523 2.59279973438359  54.5790046279525 5.23793620626488  C 55.0332228571946 7.98262082493741  52.9324635469497 11.7796715668315  56.0268252336618 13.4435477346278  C 57.9146697489494 15.1643085577334  60.427064329445 13.7564133388288  62.4000747627155 13.0453551474629  C 64.3446965566585 12.604499068816  66.2751240309375 12.1636429901691  68.2055515052166 11.7227869115223  C 70.2353392171425 11.9076620412774  72.3981986759165 12.0925371710325  74.4421807075062 12.2774123007877  C 72.824028265831 20.411918010014  70.4908369710911 28.4326544086219  68.021025349587 36.3538426604384  C 69.1565709226924 37.4204299474873  70.4109939229822 38.4727960707089  71.5323451764237 39.5536045215852  C 75.4783660429648 39.9233547810954  79.8502164994204 40.4922013341882  82.7174690715114 37.0791220156317  C 84.9601715783944 37.4630934389693  87.2028740852775 37.8755071899615  89.4455765921605 38.2310362856445  C 90.9785631158528 36.6524871008121  92.5399382788727 35.0739379159797  94.1013134418925 33.523831058802  C 94.2290623188668 31.5897527782866  94.3426168761774 29.641453333944  94.4561714334879 27.6931538896013  C 96.9685660139835 23.6543433626427  100.034539061368 19.9710619313672  102.248852928923 15.7331551108262  C 106.862006819664 15.2069720492154  112.383597168889 14.5385773493314  113.888195053253 9.27674673322342  C 117.536135206854 10.5424303138548  116.32961803543 14.9652122641509  116.92577946131 17.8805508487513  C 117.479357928199 18.4778397294987  118.572320542313 19.6581963271661  119.111704689538 20.2554852079135  C 123.299028990364 20.411918010014  127.528936250181 20.2270428802589  131.50334575605 18.7764841698724  C 132.383393575206 22.1895634884289  132.922777722432 25.716412117604  134.214460811839 29.0157221255419  C 136.371997400739 32.5141284270623  139.948965956021 34.8463992947426  142.262640061223 38.2452574494718  C 142.95816172475 41.6014521127191  141.737450233662 44.7727716462111  139.693468202072 47.4036869542651  C 137.550125932836 46.5646382884533  135.420977983263 45.6971472949869  133.36280163201 44.6874446632472  C 132.965360681423 41.8147695701288  132.09950718193 38.1883727941625  128.877396618244 37.3208818006961  C 124.335214325822 36.1974098583379  119.778837713737 34.6046395096782  115.037934946022 34.9459474415339  C 110.325420817635 35.5858998137632  106.393594270758 31.0635697166758  101.681080142371 32.4856860994077  C 98.1892775050717 33.9931294651035  93.8742043272714 35.8703230903096  93.2780429013911 40.1508934023325  C 91.1063119928271 44.1470404378091  96.0601295554992 46.2659938480796  99.1119082832198 47.1477060053734  C 94.0729248025648 48.8542456646517  93.1928769834082 54.5142688679245  91.0495347141719 58.6952910331563  C 97.2524524072598 63.6442560450632  91.816027976018 71.4943384777432  92.4405780412259 77.8938622000366  C 90.8366199192146 76.7703902576784  89.2326617972033 75.6611394791476  87.6003150358644 74.5803310282714  C 86.9189876920012 75.27716805581  85.5705273239386 76.6850632747145  84.8891999800754 77.3819003022532  C 82.745857710839 75.4762643493924  80.3186290483263 73.9119363283874  77.635902631865 72.9022336966477  C 75.9183899525431 70.4277511906943  74.2292659125489 67.9532686847408  72.5543361922185 65.46456501496  C 70.2264677673526 65.2654687213775  67.7797219153021 65.0379301001404  65.4518534904362 64.8246126427307  C 62.3149088447327 69.745135326983  59.0786039613824 76.1304378854491  62.0310224514563 81.8900092355132  C 61.5484155828865 82.6721732460158  60.5548132064194 84.3840458417293  60.0580120181858 85.1662098522318  C 60.9238655176786 89.4894436557367  62.5846009183452 93.6420234933138  62.8542929919577 98.0932477712646  C 64.8840807038835 101.56321174513  67.0842002517751 105.033175718996  67.5242241613534 109.143092065091  C 65.8634887606869 111.318930130671  63.7059521717867 113.025469789949  61.7613303778438 114.945326906637  C 63.2233453032169 119.012579761251  63.6491748931314 123.534909858338  60.2283438541516 126.763114047139  C 56.7933184955079 135.35269699884  58.6243857321403 144.596453486597  57.8011151916389 153.541565533981  C 55.9274649960151 155.105893554986  53.5428192924938 155.888057565488  51.3143111052746 156.840875541919  C 47.4676504763803 155.646297780424  43.9900421587451 158.163443777859  40.668571357412 159.727771798864  C 32.29392275576 163.894572800269  24.2457435063759 170.663846782072  14.2529424630488 168.971528286621  C 12.3934865870888 164.235880732124  10.0656181622229 159.685108307382  8.34810548290103 154.892576097576  C 7.42547470475293 147.625561381816  11.527633087596 141.126489512731  12.5496241033908 134.115455745863  C 11.5702160465874 133.063089622642  10.6050023094479 132.01072349942  9.62559425264454 130.958357376198  C 8.94426690878134 130.773482246443  7.55322358172729 130.41795315076  6.87189623786408 130.233078021005  C 4.94146876358499 128.185230429871  2.69876625670193 126.49291193442  0.115400077887263 125.369439992062  C 1.12319677401826 121.814149035232  3.0110412893059 118.628608337913  5.793127943414 116.196789323441  C 8.7455464334879 113.836076128106  7.32611446710622 109.555505816084  8.95846122844515 106.49795559321  C 10.051423842559 104.265232872321  10.7753341454137 101.876077349331  11.0024432600348 99.3731525157233  C 13.074813930952 100.553509113391  14.8916868479206 102.772010670452  17.5034416660629 102.587135540697  C 20.4842487954644 102.94266463638  21.6197943685698 99.7002392837516  23.2947240889002 97.8941514776821  C 24.2173548670483 97.8941514776821  26.0626164233444 97.9083726415094  26.9852472014925 97.9083726415094  C 29.1853667493841 96.1733906545766  31.3854862972758 94.4384086676437  33.5430228861759 92.6607631892288  C 33.5004399271845 87.7544616688038  33.6565774434865 82.3735288056421  30.3209123224895 78.3773817701655  C 31.2577374203014 73.6417342156683  27.3117165537603 70.5415205013128  23.0960036136067 69.7593564908103  C 21.4636568522678 64.4690835470477  16.0130381013621 63.50204440679  11.2011637353282 63.2033999664163  C 9.49784537567019 61.0560042284912  7.72355541769309 58.99393547353  5.8782938613969 56.9745302100507  C 4.7001653293001 57.3158381419063  3.50784247753949 57.657146073762  2.31551962577887 57.9842328417903  C 1.5774150032604 54.8697979636075  0.0728171188958123 51.7553630854247  0.512841028474134 48.4987165689687  C 1.64838660157948 46.2091091927703  4.10400390341979 45.0714160865848  6.00604273837125 43.5070880655798  C 5.99184841870743 42.5827124168041  5.97765409904362 40.7481822830799  5.9634597793798 39.8238066343042  C 5.33890971417186 39.2549600812115  4.10400390341979 38.0888246473713  3.47945383821185 37.5057569304512  C 1.22255701166498 31.8599548910057  1.32191724931169 25.5457581516761  4.5298334933343 20.2554852079135  C 4.31691869837705 19.3311095591378  3.89108910846254 17.4965794254137  3.67817431350529 16.572203776638  C 7.65258381937401 15.4913953257617  11.7689365218809 15.1358662300788  15.871094904724 15.3065201960066  C 16.5950052075786 13.9555096324113  17.2905268711056 12.604499068816  17.957659895305 11.2392673413934  C 18.6815701981597 11.1254980307749  20.1435851235328 10.8695170818831  20.8674954263875 10.7415266074373  Z " stroke-width="0.249393203883495" stroke="#ffffff" fill="none" transform="matrix(1 0 0 1 5 315 )" mask="url(#clip3)" />
  </g>
</svg>