<?xml version="1.0" encoding="utf-8"?>
<svg version="1.1" xmlns:xlink="http://www.w3.org/1999/xlink" width="179px" height="230px" xmlns="http://www.w3.org/2000/svg">
  <defs>
    <mask fill="white" id="clip5">
      <path d="M 169.727222766467 0.0741434491435057  C 162.780766982802 2.44673382173382  156.112169430483 6.21496558996559  149.721430109511 10.1227614977615  C 143.74747813556 13.4723008473008  143.469619904213 21.0087643837644  140.691037590747 26.59132996633  C 136.662093236221 34.1277935027935  128.048488064476 38.1751535501536  124.714189288317 46.2698736448736  C 125.26990575101 56.0393634143634  118.462379083019 63.4362628112628  114.989151191186 71.8101111851112  C 111.7937815307 79.3465747215747  103.319105474629 81.5796009546009  97.2062243850034 85.7665251415252  C 88.5926192132587 91.2095265845266  84.294499697116 100.839452214452  77.2091147977776 107.678095053095  C 75.4030362940247 100.699888074888  74.9862489470048 93.0238603988604  71.0962337081523 86.7434741184741  C 66.78943112228 92.1864755614756  62.4826285364076 97.3503487253487  58.1758259505352 102.79335016835  C 55.5361727527425 106.422017797018  50.3957954728304 105.445068820069  46.6447093496512 105.026376401376  C 42.0600485324322 99.3042466792467  40.9486156070458 91.0699624449624  35.1135927487672 86.4643458393458  C 21.9153267598035 90.2325776075776  11.9124304313258 100.699888074888  0.24238471476843 107.398966773967  C 5.24383287900729 118.564097939098  0.79810117746164 131.674404299404  6.49419492006701 142.420843045843  C 11.9124304313258 147.863844488844  18.7199570993176 152.469461094461  21.0817520657637 160.285052910053  C 15.6635165545049 162.936771561772  10.2452810432462 165.448926073926  4.68811641631409 167.821516446516  C 6.35526580439371 177.311877936878  1.77060498717475 188.477009102009  7.60562784545342 196.711293336293  C 15.8024456701782 197.409114034114  24.6939090732695 196.013472638473  30.6678610472215 189.593522218522  C 37.33645859954 186.662675287675  43.8661270361852 196.292600917601  50.3957954728304 190.989163614164  C 55.3972436370692 187.081367706368  61.7879829580411 187.50006012506  67.4840767006465 189.035265660266  C 65.8169273125668 202.014730639731  61.5101247266945 214.296374921375  59.426187991595 227.136275761276  C 62.0658411893877 227.694532319532  64.8444235028537 228.113224738225  67.4840767006465 228.671481296481  C 69.7069425514193 224.763685388685  70.957304592479 219.739376364376  74.9862489470048 217.227221852222  C 81.7937756149965 212.482041107041  89.2872647916252 219.599812224812  96.094791459617 221.135017760018  C 105.403042209728 210.249014874015  110.821277720987 196.990421615422  117.767733504652 184.708777333777  C 122.769181668891 186.104418729419  128.18741718015 188.756137381137  133.327794460062 186.662675287675  C 141.524612284787 175.776672401672  139.162817318341 160.564181189181  143.886407251233 148.282536907537  C 155.000736505097 136.559149184149  167.504356915694 124.70492007992  171.95008861724 108.51547989048  C 174.450812699359 93.8612452362453  176.951536781479 78.9278823028824  175.423316509072 63.9945193695194  C 174.172954468013 51.0150543900544  174.034025352339 38.0355894105895  177.507253244172 25.3352527102528  C 179.174402632251 16.9614043364044  180.841552020331 2.44673382173388  169.727222766467 0.0741434491435057  Z " fill-rule="evenodd" />
    </mask>
  </defs>
  <g transform="matrix(1 0 0 1 -31 -22 )">
    <path d="M 169.727222766467 0.0741434491435057  C 162.780766982802 2.44673382173382  156.112169430483 6.21496558996559  149.721430109511 10.1227614977615  C 143.74747813556 13.4723008473008  143.469619904213 21.0087643837644  140.691037590747 26.59132996633  C 136.662093236221 34.1277935027935  128.048488064476 38.1751535501536  124.714189288317 46.2698736448736  C 125.26990575101 56.0393634143634  118.462379083019 63.4362628112628  114.989151191186 71.8101111851112  C 111.7937815307 79.3465747215747  103.319105474629 81.5796009546009  97.2062243850034 85.7665251415252  C 88.5926192132587 91.2095265845266  84.294499697116 100.839452214452  77.2091147977776 107.678095053095  C 75.4030362940247 100.699888074888  74.9862489470048 93.0238603988604  71.0962337081523 86.7434741184741  C 66.78943112228 92.1864755614756  62.4826285364076 97.3503487253487  58.1758259505352 102.79335016835  C 55.5361727527425 106.422017797018  50.3957954728304 105.445068820069  46.6447093496512 105.026376401376  C 42.0600485324322 99.3042466792467  40.9486156070458 91.0699624449624  35.1135927487672 86.4643458393458  C 21.9153267598035 90.2325776075776  11.9124304313258 100.699888074888  0.24238471476843 107.398966773967  C 5.24383287900729 118.564097939098  0.79810117746164 131.674404299404  6.49419492006701 142.420843045843  C 11.9124304313258 147.863844488844  18.7199570993176 152.469461094461  21.0817520657637 160.285052910053  C 15.6635165545049 162.936771561772  10.2452810432462 165.448926073926  4.68811641631409 167.821516446516  C 6.35526580439371 177.311877936878  1.77060498717475 188.477009102009  7.60562784545342 196.711293336293  C 15.8024456701782 197.409114034114  24.6939090732695 196.013472638473  30.6678610472215 189.593522218522  C 37.33645859954 186.662675287675  43.8661270361852 196.292600917601  50.3957954728304 190.989163614164  C 55.3972436370692 187.081367706368  61.7879829580411 187.50006012506  67.4840767006465 189.035265660266  C 65.8169273125668 202.014730639731  61.5101247266945 214.296374921375  59.426187991595 227.136275761276  C 62.0658411893877 227.694532319532  64.8444235028537 228.113224738225  67.4840767006465 228.671481296481  C 69.7069425514193 224.763685388685  70.957304592479 219.739376364376  74.9862489470048 217.227221852222  C 81.7937756149965 212.482041107041  89.2872647916252 219.599812224812  96.094791459617 221.135017760018  C 105.403042209728 210.249014874015  110.821277720987 196.990421615422  117.767733504652 184.708777333777  C 122.769181668891 186.104418729419  128.18741718015 188.756137381137  133.327794460062 186.662675287675  C 141.524612284787 175.776672401672  139.162817318341 160.564181189181  143.886407251233 148.282536907537  C 155.000736505097 136.559149184149  167.504356915694 124.70492007992  171.95008861724 108.51547989048  C 174.450812699359 93.8612452362453  176.951536781479 78.9278823028824  175.423316509072 63.9945193695194  C 174.172954468013 51.0150543900544  174.034025352339 38.0355894105895  177.507253244172 25.3352527102528  C 179.174402632251 16.9614043364044  180.841552020331 2.44673382173388  169.727222766467 0.0741434491435057  Z " fill-rule="nonzero" fill="#2d882d" stroke="none" transform="matrix(1 0 0 1 31 22 )" />
    <path d="M 169.727222766467 0.0741434491435057  C 162.780766982802 2.44673382173382  156.112169430483 6.21496558996559  149.721430109511 10.1227614977615  C 143.74747813556 13.4723008473008  143.469619904213 21.0087643837644  140.691037590747 26.59132996633  C 136.662093236221 34.1277935027935  128.048488064476 38.1751535501536  124.714189288317 46.2698736448736  C 125.26990575101 56.0393634143634  118.462379083019 63.4362628112628  114.989151191186 71.8101111851112  C 111.7937815307 79.3465747215747  103.319105474629 81.5796009546009  97.2062243850034 85.7665251415252  C 88.5926192132587 91.2095265845266  84.294499697116 100.839452214452  77.2091147977776 107.678095053095  C 75.4030362940247 100.699888074888  74.9862489470048 93.0238603988604  71.0962337081523 86.7434741184741  C 66.78943112228 92.1864755614756  62.4826285364076 97.3503487253487  58.1758259505352 102.79335016835  C 55.5361727527425 106.422017797018  50.3957954728304 105.445068820069  46.6447093496512 105.026376401376  C 42.0600485324322 99.3042466792467  40.9486156070458 91.0699624449624  35.1135927487672 86.4643458393458  C 21.9153267598035 90.2325776075776  11.9124304313258 100.699888074888  0.24238471476843 107.398966773967  C 5.24383287900729 118.564097939098  0.79810117746164 131.674404299404  6.49419492006701 142.420843045843  C 11.9124304313258 147.863844488844  18.7199570993176 152.469461094461  21.0817520657637 160.285052910053  C 15.6635165545049 162.936771561772  10.2452810432462 165.448926073926  4.68811641631409 167.821516446516  C 6.35526580439371 177.311877936878  1.77060498717475 188.477009102009  7.60562784545342 196.711293336293  C 15.8024456701782 197.409114034114  24.6939090732695 196.013472638473  30.6678610472215 189.593522218522  C 37.33645859954 186.662675287675  43.8661270361852 196.292600917601  50.3957954728304 190.989163614164  C 55.3972436370692 187.081367706368  61.7879829580411 187.50006012506  67.4840767006465 189.035265660266  C 65.8169273125668 202.014730639731  61.5101247266945 214.296374921375  59.426187991595 227.136275761276  C 62.0658411893877 227.694532319532  64.8444235028537 228.113224738225  67.4840767006465 228.671481296481  C 69.7069425514193 224.763685388685  70.957304592479 219.739376364376  74.9862489470048 217.227221852222  C 81.7937756149965 212.482041107041  89.2872647916252 219.599812224812  96.094791459617 221.135017760018  C 105.403042209728 210.249014874015  110.821277720987 196.990421615422  117.767733504652 184.708777333777  C 122.769181668891 186.104418729419  128.18741718015 188.756137381137  133.327794460062 186.662675287675  C 141.524612284787 175.776672401672  139.162817318341 160.564181189181  143.886407251233 148.282536907537  C 155.000736505097 136.559149184149  167.504356915694 124.70492007992  171.95008861724 108.51547989048  C 174.450812699359 93.8612452362453  176.951536781479 78.9278823028824  175.423316509072 63.9945193695194  C 174.172954468013 51.0150543900544  174.034025352339 38.0355894105895  177.507253244172 25.3352527102528  C 179.174402632251 16.9614043364044  180.841552020331 2.44673382173388  169.727222766467 0.0741434491435057  Z " stroke-width="0.187728937728938" stroke="#848484" fill="none" transform="matrix(1 0 0 1 31 22 )" mask="url(#clip5)" />
  </g>
</svg>