<?xml version="1.0" encoding="utf-8"?>
<svg version="1.1" xmlns:xlink="http://www.w3.org/1999/xlink" width="70px" height="85px" xmlns="http://www.w3.org/2000/svg">
  <g transform="matrix(1 0 0 1 -68 -350 )">
    <path d="M 38.9476847165992 0.21023283500365  C 35.614891194332 -0.480847008362647  33.1239752024292 2.55990430244906  30.6243800607288 4.21849592652817  C 33.6794407894737 5.46243964458751  36.7258223684211 6.70638336264684  39.780883097166 7.95032708070618  C 37.0035551619433 12.5114540469237  30.902112854251 15.828637295082  30.902112854251 21.7719239480321  C 30.4855136639676 29.6502341624079  30.902112854251 37.7963378160881  29.5134488866397 45.6746480304639  C 23.2644610323887 43.601408500365  16.4600075910931 42.9189671550408  10.7664853238866 39.6017839068826  C 8.9612221659919 36.8374645334174  7.15595900809717 34.0731451599522  5.48956224696356 31.1706098178138  C 4.51749746963563 31.0323938491405  2.71223431174089 30.6177459431207  1.74016953441296 30.3413140057742  C -1.59262398785425 41.5368074683082  0.212639170040487 53.5529582448397  4.3786310728745 64.333803801354  C 7.57255819838057 71.3828182036902  1.04583755060729 77.7407527626601  1.32357034412955 84.7897671649963  C 7.85029099190283 82.4400956975509  15.6268092105263 80.7815040734718  19.6539347165992 74.5617854831752  C 26.0417889676113 65.5777475194133  34.3650936234818 56.7319255243247  45.6132717611336 54.5204700255525  C 53.6675227732793 54.6586859942258  60.8885754048583 58.2523011797305  68.6650936234818 60.0491087724829  C 64.0825025303644 49.959343059335  56.8614498987854 41.1221595622884  52.1399924089069 31.0323938491405  C 49.5015308704453 23.9833794468043  50.0569964574899 16.1050692324285  50.8901948380567 8.64140692407248  C 55.333919534413 7.53567917468641  59.7776442307692 6.42995142530033  64.2213689271255 5.32422367591426  C 56.0282515182186 2.83633623979559  47.4185349190283 2.00704042775603  38.9476847165992 0.21023283500365  Z " fill-rule="nonzero" fill="#2d882d" stroke="none" transform="matrix(1 0 0 1 68 350 )" />
  </g>
</svg>