<?xml version="1.0" encoding="utf-8"?>
<svg version="1.1" xmlns:xlink="http://www.w3.org/1999/xlink" width="227px" height="309px" xmlns="http://www.w3.org/2000/svg">
  <defs>
    <mask fill="white" id="clip4">
      <path d="M 215.324705274599 0.467061892563848  C 210.678528642412 0.467061892563836  209.461672857791 7.84080439316855  205.81110550393 10.465356808638  C 195.412519708082 20.3386730382613  186.009543190559 31.4617761323938  175.721580647858 41.460071048468  C 171.075404015671 48.0839414303671  172.071013293997 57.2073855412848  168.973562205872 64.5811280418895  C 167.314213408662 71.3299771102396  162.999906535917 76.3291245682767  159.238715928908 81.7032080856666  C 154.150046284131 79.7035491024517  149.061376639354 77.578911432786  143.751460488283 76.3291245682767  C 139.658400121832 81.7032080856666  140.54338614701 89.9518013914278  135.565339755381 94.9509488494649  C 128.042958541363 105.07422245199  124.392391187502 117.697069783534  119.967461061609 129.695023682823  C 112.334456594444 130.819831860881  104.597742827453 132.06961872539  97.075361613435 133.569362962801  C 96.743491853993 136.318894064722  96.743491853993 139.193403853093  96.0797523351091 141.942934955014  C 93.7566640190153 143.442679192425  91.212329196627 144.817444743385  88.5573711210913 144.442508684032  C 81.4774829196627 143.317700505974  74.2869714650869 142.192892327915  67.428329769953 139.818297285348  C 64.7733716944173 138.81846779374  62.3396601251762 141.318041522759  59.6847020496405 141.567998895661  C 54.9279021643057 140.193233344701  52.7154371013593 134.69417114086  49.7286092663816 130.819831860881  C 46.409911671962 132.944469530547  43.312460583837 135.444043259565  40.3256327488593 137.943616988584  C 35.3475863572299 134.319235081507  29.7058004467165 132.819490844096  23.7321447767612 133.444384276351  C 24.0640145362032 139.568339912446  24.1746377893505 145.692295548541  25.2808703208237 151.566293811735  C 28.7101911683906 161.939524787162  35.9007026229665 170.305285611471  38.1131676859129 181.303410019152  C 30.8120329781897 181.053452646251  24.7277540550871 173.804688832097  17.2053728410693 176.429241247566  C 9.24049861446216 178.928814976585  2.71372667877023 185.677664044935  0.0587686032345237 194.4261720965  C 4.1518289696854 192.176555740383  7.91301957669431 189.302045952012  11.6742101837032 186.42753616364  C 12.7804427151764 186.927450909444  13.997298499797 187.427365655248  15.1035310312702 187.927280401052  C 16.0991403095961 198.050554003577  15.6566472970068 208.673742351906  18.9753448914264 218.422079895078  C 22.294042485846 223.296248666664  27.4933353837701 226.420715827937  29.4845539404219 232.544671464033  C 34.020107319462 252.916197355534  39.5512699768281 273.537680619937  49.175493000645 291.784568841772  C 47.6267674565825 294.784057316595  46.07804191252 297.783545791417  44.7505628747522 300.90801295269  C 51.3879580635914 303.282607995258  59.0209625307566 312.780988165528  65.3264879601539 304.782352232669  C 70.4151576049306 297.408609732064  73.9551017056449 288.410144307597  81.1456131602208 283.286018163109  C 83.6899479826091 286.285506637931  86.0130362987029 289.284995112754  88.4467478679439 292.284483587576  C 91.4335757029216 287.41031481599  93.97791052531 282.286188671502  96.6328686008457 277.162062527014  C 101.942784751917 281.411337866345  106.588961384105 286.535464010833  111.677631028881 291.159675409518  C 115.549444889038 291.784568841772  117.201879732926 285.660613205677  119.856837808461 283.41099684956  C 124.945507453238 288.910059053401  132.910381679845 290.15984591791  138.884037349801 285.785591892128  C 148.39763712047 298.15848185077  164.216762320537 296.783716299809  177.270306191921 295.908865494653  C 183.133338608729 293.284313079183  184.018324633907 285.035719773422  187.447645481474 280.036572315385  C 193.642547657724 276.162233035406  201.496798631184 275.037424857348  206.474845022814 268.913469221253  C 208.797933338907 266.288916805783  206.032352010224 263.289428330961  205.036742731898 260.789854601942  C 201.718045137479 255.290792398101  202.160538150068 247.667092524595  197.293115011586 243.417817185263  C 191.651329101073 238.543648413677  188.996371025537 230.545012480818  188.222008253506 222.921312607311  C 188.553878012948 207.423955487396  186.894529215738 191.80161968103  188.4432547598 176.179283874664  C 188.775124519242 169.305456119863  196.076259226965 166.430946331492  196.186882480113 159.682097263142  C 196.739998745849 141.435209041307  199.394956821385 123.071153300924  204.041133453573 105.574137197794  C 205.147365985046 95.9507783410723  204.15175670672 85.8275047385472  206.806714782256 76.4541032547276  C 211.452891414443 65.7059362199479  217.979663350135 55.3327052445209  218.20090985643 42.8348365994282  C 221.298360944555 33.3364564291577  223.842695766943 23.5881188859854  225.944537576742 13.7148026563621  C 221.740853957144 9.96544206283432  219.639012147345 4.09144379964074  215.324705274599 0.467061892563848  Z " fill-rule="evenodd" />
    </mask>
  </defs>
  <g transform="matrix(1 0 0 1 -90 -213 )">
    <path d="M 215.324705274599 0.467061892563848  C 210.678528642412 0.467061892563836  209.461672857791 7.84080439316855  205.81110550393 10.465356808638  C 195.412519708082 20.3386730382613  186.009543190559 31.4617761323938  175.721580647858 41.460071048468  C 171.075404015671 48.0839414303671  172.071013293997 57.2073855412848  168.973562205872 64.5811280418895  C 167.314213408662 71.3299771102396  162.999906535917 76.3291245682767  159.238715928908 81.7032080856666  C 154.150046284131 79.7035491024517  149.061376639354 77.578911432786  143.751460488283 76.3291245682767  C 139.658400121832 81.7032080856666  140.54338614701 89.9518013914278  135.565339755381 94.9509488494649  C 128.042958541363 105.07422245199  124.392391187502 117.697069783534  119.967461061609 129.695023682823  C 112.334456594444 130.819831860881  104.597742827453 132.06961872539  97.075361613435 133.569362962801  C 96.743491853993 136.318894064722  96.743491853993 139.193403853093  96.0797523351091 141.942934955014  C 93.7566640190153 143.442679192425  91.212329196627 144.817444743385  88.5573711210913 144.442508684032  C 81.4774829196627 143.317700505974  74.2869714650869 142.192892327915  67.428329769953 139.818297285348  C 64.7733716944173 138.81846779374  62.3396601251762 141.318041522759  59.6847020496405 141.567998895661  C 54.9279021643057 140.193233344701  52.7154371013593 134.69417114086  49.7286092663816 130.819831860881  C 46.409911671962 132.944469530547  43.312460583837 135.444043259565  40.3256327488593 137.943616988584  C 35.3475863572299 134.319235081507  29.7058004467165 132.819490844096  23.7321447767612 133.444384276351  C 24.0640145362032 139.568339912446  24.1746377893505 145.692295548541  25.2808703208237 151.566293811735  C 28.7101911683906 161.939524787162  35.9007026229665 170.305285611471  38.1131676859129 181.303410019152  C 30.8120329781897 181.053452646251  24.7277540550871 173.804688832097  17.2053728410693 176.429241247566  C 9.24049861446216 178.928814976585  2.71372667877023 185.677664044935  0.0587686032345237 194.4261720965  C 4.1518289696854 192.176555740383  7.91301957669431 189.302045952012  11.6742101837032 186.42753616364  C 12.7804427151764 186.927450909444  13.997298499797 187.427365655248  15.1035310312702 187.927280401052  C 16.0991403095961 198.050554003577  15.6566472970068 208.673742351906  18.9753448914264 218.422079895078  C 22.294042485846 223.296248666664  27.4933353837701 226.420715827937  29.4845539404219 232.544671464033  C 34.020107319462 252.916197355534  39.5512699768281 273.537680619937  49.175493000645 291.784568841772  C 47.6267674565825 294.784057316595  46.07804191252 297.783545791417  44.7505628747522 300.90801295269  C 51.3879580635914 303.282607995258  59.0209625307566 312.780988165528  65.3264879601539 304.782352232669  C 70.4151576049306 297.408609732064  73.9551017056449 288.410144307597  81.1456131602208 283.286018163109  C 83.6899479826091 286.285506637931  86.0130362987029 289.284995112754  88.4467478679439 292.284483587576  C 91.4335757029216 287.41031481599  93.97791052531 282.286188671502  96.6328686008457 277.162062527014  C 101.942784751917 281.411337866345  106.588961384105 286.535464010833  111.677631028881 291.159675409518  C 115.549444889038 291.784568841772  117.201879732926 285.660613205677  119.856837808461 283.41099684956  C 124.945507453238 288.910059053401  132.910381679845 290.15984591791  138.884037349801 285.785591892128  C 148.39763712047 298.15848185077  164.216762320537 296.783716299809  177.270306191921 295.908865494653  C 183.133338608729 293.284313079183  184.018324633907 285.035719773422  187.447645481474 280.036572315385  C 193.642547657724 276.162233035406  201.496798631184 275.037424857348  206.474845022814 268.913469221253  C 208.797933338907 266.288916805783  206.032352010224 263.289428330961  205.036742731898 260.789854601942  C 201.718045137479 255.290792398101  202.160538150068 247.667092524595  197.293115011586 243.417817185263  C 191.651329101073 238.543648413677  188.996371025537 230.545012480818  188.222008253506 222.921312607311  C 188.553878012948 207.423955487396  186.894529215738 191.80161968103  188.4432547598 176.179283874664  C 188.775124519242 169.305456119863  196.076259226965 166.430946331492  196.186882480113 159.682097263142  C 196.739998745849 141.435209041307  199.394956821385 123.071153300924  204.041133453573 105.574137197794  C 205.147365985046 95.9507783410723  204.15175670672 85.8275047385472  206.806714782256 76.4541032547276  C 211.452891414443 65.7059362199479  217.979663350135 55.3327052445209  218.20090985643 42.8348365994282  C 221.298360944555 33.3364564291577  223.842695766943 23.5881188859854  225.944537576742 13.7148026563621  C 221.740853957144 9.96544206283432  219.639012147345 4.09144379964074  215.324705274599 0.467061892563848  Z " fill-rule="nonzero" fill="#42c8a0" stroke="none" transform="matrix(1 0 0 1 90 213 )" />
    <path d="M 215.324705274599 0.467061892563848  C 210.678528642412 0.467061892563836  209.461672857791 7.84080439316855  205.81110550393 10.465356808638  C 195.412519708082 20.3386730382613  186.009543190559 31.4617761323938  175.721580647858 41.460071048468  C 171.075404015671 48.0839414303671  172.071013293997 57.2073855412848  168.973562205872 64.5811280418895  C 167.314213408662 71.3299771102396  162.999906535917 76.3291245682767  159.238715928908 81.7032080856666  C 154.150046284131 79.7035491024517  149.061376639354 77.578911432786  143.751460488283 76.3291245682767  C 139.658400121832 81.7032080856666  140.54338614701 89.9518013914278  135.565339755381 94.9509488494649  C 128.042958541363 105.07422245199  124.392391187502 117.697069783534  119.967461061609 129.695023682823  C 112.334456594444 130.819831860881  104.597742827453 132.06961872539  97.075361613435 133.569362962801  C 96.743491853993 136.318894064722  96.743491853993 139.193403853093  96.0797523351091 141.942934955014  C 93.7566640190153 143.442679192425  91.212329196627 144.817444743385  88.5573711210913 144.442508684032  C 81.4774829196627 143.317700505974  74.2869714650869 142.192892327915  67.428329769953 139.818297285348  C 64.7733716944173 138.81846779374  62.3396601251762 141.318041522759  59.6847020496405 141.567998895661  C 54.9279021643057 140.193233344701  52.7154371013593 134.69417114086  49.7286092663816 130.819831860881  C 46.409911671962 132.944469530547  43.312460583837 135.444043259565  40.3256327488593 137.943616988584  C 35.3475863572299 134.319235081507  29.7058004467165 132.819490844096  23.7321447767612 133.444384276351  C 24.0640145362032 139.568339912446  24.1746377893505 145.692295548541  25.2808703208237 151.566293811735  C 28.7101911683906 161.939524787162  35.9007026229665 170.305285611471  38.1131676859129 181.303410019152  C 30.8120329781897 181.053452646251  24.7277540550871 173.804688832097  17.2053728410693 176.429241247566  C 9.24049861446216 178.928814976585  2.71372667877023 185.677664044935  0.0587686032345237 194.4261720965  C 4.1518289696854 192.176555740383  7.91301957669431 189.302045952012  11.6742101837032 186.42753616364  C 12.7804427151764 186.927450909444  13.997298499797 187.427365655248  15.1035310312702 187.927280401052  C 16.0991403095961 198.050554003577  15.6566472970068 208.673742351906  18.9753448914264 218.422079895078  C 22.294042485846 223.296248666664  27.4933353837701 226.420715827937  29.4845539404219 232.544671464033  C 34.020107319462 252.916197355534  39.5512699768281 273.537680619937  49.175493000645 291.784568841772  C 47.6267674565825 294.784057316595  46.07804191252 297.783545791417  44.7505628747522 300.90801295269  C 51.3879580635914 303.282607995258  59.0209625307566 312.780988165528  65.3264879601539 304.782352232669  C 70.4151576049306 297.408609732064  73.9551017056449 288.410144307597  81.1456131602208 283.286018163109  C 83.6899479826091 286.285506637931  86.0130362987029 289.284995112754  88.4467478679439 292.284483587576  C 91.4335757029216 287.41031481599  93.97791052531 282.286188671502  96.6328686008457 277.162062527014  C 101.942784751917 281.411337866345  106.588961384105 286.535464010833  111.677631028881 291.159675409518  C 115.549444889038 291.784568841772  117.201879732926 285.660613205677  119.856837808461 283.41099684956  C 124.945507453238 288.910059053401  132.910381679845 290.15984591791  138.884037349801 285.785591892128  C 148.39763712047 298.15848185077  164.216762320537 296.783716299809  177.270306191921 295.908865494653  C 183.133338608729 293.284313079183  184.018324633907 285.035719773422  187.447645481474 280.036572315385  C 193.642547657724 276.162233035406  201.496798631184 275.037424857348  206.474845022814 268.913469221253  C 208.797933338907 266.288916805783  206.032352010224 263.289428330961  205.036742731898 260.789854601942  C 201.718045137479 255.290792398101  202.160538150068 247.667092524595  197.293115011586 243.417817185263  C 191.651329101073 238.543648413677  188.996371025537 230.545012480818  188.222008253506 222.921312607311  C 188.553878012948 207.423955487396  186.894529215738 191.80161968103  188.4432547598 176.179283874664  C 188.775124519242 169.305456119863  196.076259226965 166.430946331492  196.186882480113 159.682097263142  C 196.739998745849 141.435209041307  199.394956821385 123.071153300924  204.041133453573 105.574137197794  C 205.147365985046 95.9507783410723  204.15175670672 85.8275047385472  206.806714782256 76.4541032547276  C 211.452891414443 65.7059362199479  217.979663350135 55.3327052445209  218.20090985643 42.8348365994282  C 221.298360944555 33.3364564291577  223.842695766943 23.5881188859854  225.944537576742 13.7148026563621  C 221.740853957144 9.96544206283432  219.639012147345 4.09144379964074  215.324705274599 0.467061892563848  Z " stroke-width="0.187316356513222" stroke="#848484" fill="none" transform="matrix(1 0 0 1 90 213 )" mask="url(#clip4)" />
  </g>
</svg>