<?xml version="1.0" encoding="utf-8"?>
<svg version="1.1" xmlns:xlink="http://www.w3.org/1999/xlink" width="207px" height="64px" xmlns="http://www.w3.org/2000/svg">
  <g transform="matrix(1 0 0 1 -99 -256 )">
    <path d="M 179.333152122263 1.94353396464276  C 172.539540406486 -2.63848251194699  164.636767594256 2.22123193292093  157.84315587848 3.74857075845085  C 151.881414985043 5.69245653639802  146.058319228663 1.52698701222551  140.235223472283 0.832742091530096  C 134.828063127073 11.3852648861004  127.618516000127 23.3262775220616  115.279098802084 26.3809551731215  C 107.09903571574 28.0471429827905  100.175444183973 21.9377876806708  92.2726713717433 21.1046937758363  C 84.3698985595134 20.9658447916972  75.6352549249435 17.9111671406374  67.8711272497703 20.8269958075581  C 60.5229349857671 27.6305960303732  56.3635808740671 37.2024978744613  52.8974524476505 46.5053798117799  C 49.1540337471206 49.976604415257  43.608228264854 48.0327186373098  39.1715838790407 49.1435105104225  C 32.5166173003208 51.2262452725087  26.1389409957143 54.0032249552904  19.3453292799377 55.1140168284031  C 16.0178459905778 48.1715676214489  15.6019105794078 40.6737224779384  16.5724265388044 33.1758773344279  C 12.5517175641611 33.8701222551233  8.25371831540455 33.7312732709842  4.37165447781794 34.9809141282359  C 2.15333228491131 37.0636488903222  0.905526051401325 39.979477557243  0.212300366118002 42.8953062241637  C 5.20352530015794 50.115453399396  11.7198467418212 56.641355653933  18.5134584575977 62.6118619719136  C 26.277586132771 64.5557477498607  36.1213908637941 64.8334457181389  42.2217768942874 58.8629394001583  C 48.183517787724 52.8924330821777  56.9181614222938 58.1686944794629  63.9890634121837 58.8629394001583  C 63.2958377269004 51.9204901932041  61.9093863563338 44.97804098625  62.8799023157304 37.8967427951567  C 65.7914501939204 31.5096895247589  73.1396424579236 27.7694450145123  79.9332541737001 27.9082939986514  C 86.17228534125 30.8241226655721  86.17228534125 39.5629306048257  91.57944568646 43.5895511448591  C 94.9069289758199 44.97804098625  98.6503476763499 44.7003430179718  101.97783096571 46.2276818435017  C 105.998539940353 50.3931513676742  108.208196812194 56.0859597173766  111.397034964497 60.9456741622446  C 127.89580627424 55.1140168284031  143.146771350473 45.5334369228063  160.200123208443 41.0902694303556  C 170.459863350636 39.5629306048257  181.551474315169 40.118326541382  190.563408223852 45.8111348910845  C 199.852632406649 36.5082529537659  208.309985767106 23.4651265062007  205.259792751859 9.85792606057052  C 195.970568569062 9.58022809229236  187.097279797436 6.94209739364977  179.333152122263 1.94353396464276  Z " fill-rule="nonzero" fill="#2d882d" stroke="none" transform="matrix(1 0 0 1 99 256 )" />
  </g>
</svg>