<?xml version="1.0" encoding="utf-8"?>
<svg version="1.1" xmlns:xlink="http://www.w3.org/1999/xlink" width="273px" height="307px" xmlns="http://www.w3.org/2000/svg">
  <defs>
    <mask fill="white" id="clip6">
      <path d="M 128.502867545738 0.998270317718425  C 117.653551656544 -1.49841831875362  107.617934459039 14.8687627425628  116.026154273165 22.9136483489726  C 126.197387919285 34.9809767585872  117.789168105159 49.9611085774192  115.754921375935 63.1380763810214  C 117.653551656544 86.44050365476  119.416565488538 110.436455549741  113.313825300866 133.322768050734  C 107.07546866458 148.302899869566  95.9549198781556 160.500264145664  85.3768368861912 172.42888763103  C 80.087795390209 183.525281570905  83.6138230541971 197.39577399575  76.4261512776059 207.798643314383  C 71.1371097816237 211.68238119334  63.9494380050325 208.214758087129  58.1179307145906 209.046987632619  C 55.2699852936771 221.669135739228  48.6247793115456 233.0429395276  38.7247785626559 241.365234982507  C 33.1645041694438 245.110267937215  27.4686133276168 239.28466111878  21.7727224857898 238.313726649041  C 13.771352017509 242.058759603749  12.008338185515 253.987383089115  1.29463874493563 252.877743695128  C 1.29463874493563 254.819612634606  1.29463874493563 258.564645589314  1.43025519355056 260.506514528792  C 3.60011837138941 261.477448998531  5.63436510061334 262.44838346827  7.80422827845219 263.419317938009  C 9.83847500767612 260.64521945304  11.1946394938254 254.126088013364  15.9412151953479 255.513137255848  C 18.9247770648763 258.148530816569  22.0439553830197 262.032268695525  21.0946402427152 266.332121347227  C 18.5179277190315 271.602908468668  14.5850507091986 276.041466044618  11.3302559424403 281.034843317562  C 16.4836809898076 284.502466423773  22.4508047288645 286.305630439003  28.2823120193064 288.108794454232  C 31.9439561319094 293.379581575673  27.1973804303869 301.147057333586  31.4014903374497 306.14043460653  C 36.8261482820469 307.804893697511  41.8439568807992 304.198565667052  46.7261490309366 302.395401651822  C 51.0658753866144 300.592237636592  55.8124510881368 302.672811500319  60.2877938924295 301.008352409338  C 63.2713557619579 295.598860363648  64.7631366967221 289.357138772468  68.5603972579401 284.363761499524  C 71.8151920246984 279.925203923574  74.391904548382 273.267367559649  80.7658776332837 273.267367559649  C 92.4288922141675 272.851252786904  104.091906795051 274.93182665063  115.212455581475 278.676859605338  C 119.959031282998 280.202613772071  125.383689227595 280.202613772071  129.587799134658 277.289810362854  C 137.317936705709 270.770678923177  142.598502173653 262.032268695525  148.565625912709 254.126088013364  C 152.769735819772 254.819612634606  156.83822927822 256.900186498333  161.177955633898 257.177596346829  C 169.043709653564 256.484071725587  176.638230776 251.906809225388  184.63960124428 254.542202786109  C 191.013574329182 257.455006195326  196.709465171009 262.587088392519  204.032753396215 262.864498241016  C 207.558781060203 262.587088392519  212.576589658956 264.667662256245  215.424535079869 261.200039150034  C 227.765631903828 249.271415664668  239.835495830556 237.065382330805  252.719058448974 225.830283466681  C 257.872483496342 218.895037254259  263.432757889554 212.237200890333  271.840977703679 209.463102405365  C 270.620429666145 203.498790662681  266.009470413237 198.089298616992  267.094402002157 191.708872101564  C 268.450566488306 183.247871722409  270.48481321753 173.954641797763  265.602621067393 166.325870964098  C 262.754675646479 155.368181948471  249.735496579446 153.018867294013  245.667003120998 143.309522596622  C 248.650564990527 130.409964641517  260.85604536587 120.978029792623  263.025908543709 107.523652140524  C 261.534127608945 103.501209337319  258.143716393572 100.588405928101  254.888921626813 97.9530123673809  C 246.480701812688 91.8499957004494  238.750564241637 84.9147494880272  230.071111530281 79.0891426695925  C 224.239604239839 74.9279949421392  216.780699566018 74.5118801693939  210.813575826962 70.6281422904374  C 207.965630406048 64.9412403962512  211.762890967266 58.1446991080774  210.135493583887 52.0416824411459  C 209.050561994967 47.4644199409472  205.524534330979 43.9967968347361  201.862890218376 41.5001081982641  C 194.8108348904 43.4419771377424  190.742341431952 50.6546331986615  184.503984795665 53.7061415321272  C 174.739600495391 55.509305547357  164.839599746501 56.6189449413445  155.210831894841 59.254338502065  C 150.057406847474 53.1513218351334  144.903981800106 46.770895319705  142.598502173653 38.8647146375437  C 138.801241612435 31.9294684251215  142.869735070882 23.8845828187117  141.377954136118 16.6719267577926  C 138.12315936936 10.846319939358  134.60560773341 4.18848357543264  128.502867545738 0.998270317718425  Z " fill-rule="evenodd" />
    </mask>
  </defs>
  <g transform="matrix(1 0 0 1 -89 0 )">
    <path d="M 128.502867545738 0.998270317718425  C 117.653551656544 -1.49841831875362  107.617934459039 14.8687627425628  116.026154273165 22.9136483489726  C 126.197387919285 34.9809767585872  117.789168105159 49.9611085774192  115.754921375935 63.1380763810214  C 117.653551656544 86.44050365476  119.416565488538 110.436455549741  113.313825300866 133.322768050734  C 107.07546866458 148.302899869566  95.9549198781556 160.500264145664  85.3768368861912 172.42888763103  C 80.087795390209 183.525281570905  83.6138230541971 197.39577399575  76.4261512776059 207.798643314383  C 71.1371097816237 211.68238119334  63.9494380050325 208.214758087129  58.1179307145906 209.046987632619  C 55.2699852936771 221.669135739228  48.6247793115456 233.0429395276  38.7247785626559 241.365234982507  C 33.1645041694438 245.110267937215  27.4686133276168 239.28466111878  21.7727224857898 238.313726649041  C 13.771352017509 242.058759603749  12.008338185515 253.987383089115  1.29463874493563 252.877743695128  C 1.29463874493563 254.819612634606  1.29463874493563 258.564645589314  1.43025519355056 260.506514528792  C 3.60011837138941 261.477448998531  5.63436510061334 262.44838346827  7.80422827845219 263.419317938009  C 9.83847500767612 260.64521945304  11.1946394938254 254.126088013364  15.9412151953479 255.513137255848  C 18.9247770648763 258.148530816569  22.0439553830197 262.032268695525  21.0946402427152 266.332121347227  C 18.5179277190315 271.602908468668  14.5850507091986 276.041466044618  11.3302559424403 281.034843317562  C 16.4836809898076 284.502466423773  22.4508047288645 286.305630439003  28.2823120193064 288.108794454232  C 31.9439561319094 293.379581575673  27.1973804303869 301.147057333586  31.4014903374497 306.14043460653  C 36.8261482820469 307.804893697511  41.8439568807992 304.198565667052  46.7261490309366 302.395401651822  C 51.0658753866144 300.592237636592  55.8124510881368 302.672811500319  60.2877938924295 301.008352409338  C 63.2713557619579 295.598860363648  64.7631366967221 289.357138772468  68.5603972579401 284.363761499524  C 71.8151920246984 279.925203923574  74.391904548382 273.267367559649  80.7658776332837 273.267367559649  C 92.4288922141675 272.851252786904  104.091906795051 274.93182665063  115.212455581475 278.676859605338  C 119.959031282998 280.202613772071  125.383689227595 280.202613772071  129.587799134658 277.289810362854  C 137.317936705709 270.770678923177  142.598502173653 262.032268695525  148.565625912709 254.126088013364  C 152.769735819772 254.819612634606  156.83822927822 256.900186498333  161.177955633898 257.177596346829  C 169.043709653564 256.484071725587  176.638230776 251.906809225388  184.63960124428 254.542202786109  C 191.013574329182 257.455006195326  196.709465171009 262.587088392519  204.032753396215 262.864498241016  C 207.558781060203 262.587088392519  212.576589658956 264.667662256245  215.424535079869 261.200039150034  C 227.765631903828 249.271415664668  239.835495830556 237.065382330805  252.719058448974 225.830283466681  C 257.872483496342 218.895037254259  263.432757889554 212.237200890333  271.840977703679 209.463102405365  C 270.620429666145 203.498790662681  266.009470413237 198.089298616992  267.094402002157 191.708872101564  C 268.450566488306 183.247871722409  270.48481321753 173.954641797763  265.602621067393 166.325870964098  C 262.754675646479 155.368181948471  249.735496579446 153.018867294013  245.667003120998 143.309522596622  C 248.650564990527 130.409964641517  260.85604536587 120.978029792623  263.025908543709 107.523652140524  C 261.534127608945 103.501209337319  258.143716393572 100.588405928101  254.888921626813 97.9530123673809  C 246.480701812688 91.8499957004494  238.750564241637 84.9147494880272  230.071111530281 79.0891426695925  C 224.239604239839 74.9279949421392  216.780699566018 74.5118801693939  210.813575826962 70.6281422904374  C 207.965630406048 64.9412403962512  211.762890967266 58.1446991080774  210.135493583887 52.0416824411459  C 209.050561994967 47.4644199409472  205.524534330979 43.9967968347361  201.862890218376 41.5001081982641  C 194.8108348904 43.4419771377424  190.742341431952 50.6546331986615  184.503984795665 53.7061415321272  C 174.739600495391 55.509305547357  164.839599746501 56.6189449413445  155.210831894841 59.254338502065  C 150.057406847474 53.1513218351334  144.903981800106 46.770895319705  142.598502173653 38.8647146375437  C 138.801241612435 31.9294684251215  142.869735070882 23.8845828187117  141.377954136118 16.6719267577926  C 138.12315936936 10.846319939358  134.60560773341 4.18848357543264  128.502867545738 0.998270317718425  Z " fill-rule="nonzero" fill="#00cc00" stroke="none" transform="matrix(1 0 0 1 89 0 )" />
    <path d="M 128.502867545738 0.998270317718425  C 117.653551656544 -1.49841831875362  107.617934459039 14.8687627425628  116.026154273165 22.9136483489726  C 126.197387919285 34.9809767585872  117.789168105159 49.9611085774192  115.754921375935 63.1380763810214  C 117.653551656544 86.44050365476  119.416565488538 110.436455549741  113.313825300866 133.322768050734  C 107.07546866458 148.302899869566  95.9549198781556 160.500264145664  85.3768368861912 172.42888763103  C 80.087795390209 183.525281570905  83.6138230541971 197.39577399575  76.4261512776059 207.798643314383  C 71.1371097816237 211.68238119334  63.9494380050325 208.214758087129  58.1179307145906 209.046987632619  C 55.2699852936771 221.669135739228  48.6247793115456 233.0429395276  38.7247785626559 241.365234982507  C 33.1645041694438 245.110267937215  27.4686133276168 239.28466111878  21.7727224857898 238.313726649041  C 13.771352017509 242.058759603749  12.008338185515 253.987383089115  1.29463874493563 252.877743695128  C 1.29463874493563 254.819612634606  1.29463874493563 258.564645589314  1.43025519355056 260.506514528792  C 3.60011837138941 261.477448998531  5.63436510061334 262.44838346827  7.80422827845219 263.419317938009  C 9.83847500767612 260.64521945304  11.1946394938254 254.126088013364  15.9412151953479 255.513137255848  C 18.9247770648763 258.148530816569  22.0439553830197 262.032268695525  21.0946402427152 266.332121347227  C 18.5179277190315 271.602908468668  14.5850507091986 276.041466044618  11.3302559424403 281.034843317562  C 16.4836809898076 284.502466423773  22.4508047288645 286.305630439003  28.2823120193064 288.108794454232  C 31.9439561319094 293.379581575673  27.1973804303869 301.147057333586  31.4014903374497 306.14043460653  C 36.8261482820469 307.804893697511  41.8439568807992 304.198565667052  46.7261490309366 302.395401651822  C 51.0658753866144 300.592237636592  55.8124510881368 302.672811500319  60.2877938924295 301.008352409338  C 63.2713557619579 295.598860363648  64.7631366967221 289.357138772468  68.5603972579401 284.363761499524  C 71.8151920246984 279.925203923574  74.391904548382 273.267367559649  80.7658776332837 273.267367559649  C 92.4288922141675 272.851252786904  104.091906795051 274.93182665063  115.212455581475 278.676859605338  C 119.959031282998 280.202613772071  125.383689227595 280.202613772071  129.587799134658 277.289810362854  C 137.317936705709 270.770678923177  142.598502173653 262.032268695525  148.565625912709 254.126088013364  C 152.769735819772 254.819612634606  156.83822927822 256.900186498333  161.177955633898 257.177596346829  C 169.043709653564 256.484071725587  176.638230776 251.906809225388  184.63960124428 254.542202786109  C 191.013574329182 257.455006195326  196.709465171009 262.587088392519  204.032753396215 262.864498241016  C 207.558781060203 262.587088392519  212.576589658956 264.667662256245  215.424535079869 261.200039150034  C 227.765631903828 249.271415664668  239.835495830556 237.065382330805  252.719058448974 225.830283466681  C 257.872483496342 218.895037254259  263.432757889554 212.237200890333  271.840977703679 209.463102405365  C 270.620429666145 203.498790662681  266.009470413237 198.089298616992  267.094402002157 191.708872101564  C 268.450566488306 183.247871722409  270.48481321753 173.954641797763  265.602621067393 166.325870964098  C 262.754675646479 155.368181948471  249.735496579446 153.018867294013  245.667003120998 143.309522596622  C 248.650564990527 130.409964641517  260.85604536587 120.978029792623  263.025908543709 107.523652140524  C 261.534127608945 103.501209337319  258.143716393572 100.588405928101  254.888921626813 97.9530123673809  C 246.480701812688 91.8499957004494  238.750564241637 84.9147494880272  230.071111530281 79.0891426695925  C 224.239604239839 74.9279949421392  216.780699566018 74.5118801693939  210.813575826962 70.6281422904374  C 207.965630406048 64.9412403962512  211.762890967266 58.1446991080774  210.135493583887 52.0416824411459  C 209.050561994967 47.4644199409472  205.524534330979 43.9967968347361  201.862890218376 41.5001081982641  C 194.8108348904 43.4419771377424  190.742341431952 50.6546331986615  184.503984795665 53.7061415321272  C 174.739600495391 55.509305547357  164.839599746501 56.6189449413445  155.210831894841 59.254338502065  C 150.057406847474 53.1513218351334  144.903981800106 46.770895319705  142.598502173653 38.8647146375437  C 138.801241612435 31.9294684251215  142.869735070882 23.8845828187117  141.377954136118 16.6719267577926  C 138.12315936936 10.846319939358  134.60560773341 4.18848357543264  128.502867545738 0.998270317718425  Z " stroke-width="0.187217762167587" stroke="#848484" fill="none" transform="matrix(1 0 0 1 89 0 )" mask="url(#clip6)" />
  </g>
</svg>