<?xml version="1.0" encoding="utf-8"?>
<svg version="1.1" xmlns:xlink="http://www.w3.org/1999/xlink" width="42px" height="42px" xmlns="http://www.w3.org/2000/svg">
  <g transform="matrix(1 0 0 1 -100 -206 )">
    <path d="M 121 206  C 132.76 206  142 215.24  142 227  C 142 238.76  132.76 248  121 248  C 109.24 248  100 238.76  100 227  C 100 215.24  109.24 206  121 206  Z " fill-rule="nonzero" fill="#bcbcbc" stroke="none" />
    <path d="M 121 206.5  C 132.48 206.5  141.5 215.52  141.5 227  C 141.5 238.48  132.48 247.5  121 247.5  C 109.52 247.5  100.5 238.48  100.5 227  C 100.5 215.52  109.52 206.5  121 206.5  Z " stroke-width="1" stroke="#797979" fill="none" />
  </g>
</svg>