<?xml version="1.0" encoding="utf-8"?>
<svg version="1.1" xmlns:xlink="http://www.w3.org/1999/xlink" width="26px" height="16px" xmlns="http://www.w3.org/2000/svg">
  <g transform="matrix(1 0 0 1 -262 -10 )">
    <path d="M 2.88888888888891 3.2  L 21.6666666666667 3.2  L 21.6666666666667 12.8  L 2.88888888888891 12.8  L 2.88888888888891 3.2  Z M 23.1111111111111 14  L 23.1111111111111 10.4  L 24.5555555555556 10.4  L 24.5555555555556 5.6  L 23.1111111111111 5.6  L 23.1111111111111 2  C 23.1111111111111 1.88333333333333  23.0772569444444 1.7875  23.0095486111111 1.7125  C 22.9418402777778 1.6375  22.8553240740741 1.6  22.75 1.6  L 1.8055555555556 1.6  C 1.70023148148147 1.6  1.61371527777777 1.6375  1.5460069444444 1.7125  C 1.47829861111109 1.7875  1.4444444444444 1.88333333333333  1.4444444444444 2  L 1.4444444444444 14  C 1.4444444444444 14.1166666666667  1.47829861111109 14.2125  1.5460069444444 14.2875  C 1.61371527777777 14.3625  1.70023148148147 14.4  1.8055555555556 14.4  L 22.75 14.4  C 22.8553240740741 14.4  22.9418402777778 14.3625  23.0095486111111 14.2875  C 23.0772569444444 14.2125  23.1111111111111 14.1166666666667  23.1111111111111 14  Z M 25.5768229166667 4.46875  C 25.8589409722222 4.78125  26 5.15833333333333  26 5.6  L 26 10.4  C 26 10.8416666666667  25.8589409722222 11.21875  25.5768229166667 11.53125  C 25.2947048611111 11.84375  24.9542824074074 12  24.5555555555556 12  L 24.5555555555556 14  C 24.5555555555556 14.55  24.3787615740741 15.0208333333333  24.0251736111111 15.4125  C 23.6715856481482 15.8041666666667  23.2465277777778 16  22.75 16  L 1.8055555555556 16  C 1.30902777777777 16  0.88396990740739 15.8041666666667  0.5303819444444 15.4125  C 0.176793981481467 15.0208333333333  0 14.55  0 14  L 0 2  C 0 1.45  0.176793981481467 0.979166666666664  0.5303819444444 0.587499999999999  C 0.88396990740739 0.195833333333333  1.30902777777777 0  1.8055555555556 0  L 22.75 0  C 23.2465277777778 0  23.6715856481482 0.195833333333333  24.0251736111111 0.587499999999999  C 24.3787615740741 0.979166666666664  24.5555555555556 1.45  24.5555555555556 2  L 24.5555555555556 4  C 24.9542824074074 4  25.2947048611111 4.15625  25.5768229166667 4.46875  Z " fill-rule="nonzero" fill="#333333" stroke="none" transform="matrix(1 0 0 1 262 10 )" />
  </g>
</svg>