<svg t="1561961657470" class="icon" viewBox="0 0 1024 1024" version="1.1" xmlns="http://www.w3.org/2000/svg" p-id="1365" width="1000" height="1000"><path d="M362.00448 547.88096c20.86912 29.10208 43.34592 60.37504 71.22944 90.08128C369.664 711.1168 277.02272 777.6768 95.21152 777.6768l0-133.12c144.14848 0 202.53696-47.80032 254.17728-114.176C353.54624 536.10496 357.7344 541.92128 362.00448 547.88096zM504.29952 445.81888c13.02528 18.15552 25.26208 35.18464 37.92896 50.82112 43.91936-48.45568 99.072-83.03616 204.544-89.76384l-32.39936 82.04288c-1.35168 3.39968-0.256 7.26016 2.6624 9.46176 1.44384 1.0752 3.16416 1.6384 4.88448 1.6384 1.7408 0 3.4816-0.5632 4.93568-1.67936L925.62432 345.4976c1.9968-1.51552 3.16416-3.90144 3.16416-6.42048s-1.15712-4.90496-3.16416-6.42048L726.84544 179.82464c-2.89792-2.22208-6.92224-2.24256-9.82016-0.04096-2.9184 2.2016-4.01408 6.06208-2.6624 9.46176l33.30048 84.31616c-142.72512 7.4752-226.88768 56.71936-286.208 115.17952C477.3376 408.27904 491.30496 427.70432 504.29952 445.81888zM726.84544 525.66016c-1.46432-1.11616-3.20512-1.67936-4.93568-1.67936-1.72032 0-3.44064 0.5632-4.88448 1.6384-2.9184 2.2016-4.01408 6.06208-2.6624 9.46176l32.39936 82.04288c-150.94784-9.61536-198.87104-76.27776-258.23232-159.05792-67.65568-94.34112-151.84896-211.74272-393.3184-211.74272l0 133.12c173.11744 0 222.55616 68.9152 285.14304 156.20096 65.32096 91.0848 145.87904 203.20256 367.31904 214.80448l-33.30048 84.31616c-1.35168 3.39968-0.256 7.26016 2.6624 9.46176 2.89792 2.2016 6.92224 2.18112 9.82016-0.04096l198.77888-152.84224c1.9968-1.51552 3.16416-3.90144 3.16416-6.42048s-1.15712-4.90496-3.16416-6.42048L726.84544 525.66016z" p-id="1366" fill="#2c2c2c"></path></svg>