<?xml version="1.0" encoding="utf-8"?>
<svg version="1.1" xmlns:xlink="http://www.w3.org/1999/xlink" width="20px" height="20px" xmlns="http://www.w3.org/2000/svg">
  <g transform="matrix(1 0 0 1 -300 -19 )">
    <path d="M 19.464765625 10.010546875  C 19.464765625 9.732109375  19.2390625 9.50640625  18.958515625 9.50640625  L 10.523125 9.49375  L 10.533671875 1.06046875  C 10.533671875 0.779921875  10.30796875 0.55421875  10.027421875 0.55421875  C 9.748984375 0.55421875  9.521171875 0.779921875  9.521171875 1.06046875  L 9.510625 9.49375  L 1.07734375 9.483203125  C 0.798906250000001 9.483203125  0.571093750000001 9.70890625  0.571093750000001 9.989453125  C 0.571093750000001 10.27  0.796796875000001 10.495703125  1.07734375 10.495703125  L 9.510625 10.50625  L 9.500078125 18.941640625  C 9.500078125 19.2221875  9.72578125 19.447890625  10.006328125 19.447890625  C 10.284765625 19.447890625  10.512578125 19.2221875  10.512578125 18.941640625  L 10.523125 10.50625  L 18.958515625 10.516796875  C 19.236953125 10.516796875  19.464765625 10.29109375  19.464765625 10.010546875  Z " fill-rule="nonzero" fill="#7f7f7f" stroke="none" transform="matrix(1 0 0 1 300 19 )" />
  </g>
</svg>