<?xml version="1.0" encoding="utf-8"?>
<svg version="1.1" xmlns:xlink="http://www.w3.org/1999/xlink" width="29px" height="32px" xmlns="http://www.w3.org/2000/svg">
  <g transform="matrix(1 0 0 1 -343 -412 )">
    <path d="M 29 2.48172672868217  C 28.8631310062268 1.06457976376773  27.6661527468084 -0.0433487342475836  26.23761271875 0  L 2.759535 0  C 1.33099497194155 -0.0433487342475855  0.134016712523186 1.06457976376773  0.0797544062500002 2.48172672868217  L 0.0797544062500002 7.70052424806202  L 2.07959065625 7.70052424806201  C 2.09993239501045 7.69977228101101  2.12028648130793 7.69939619971403  2.14064233206349 7.69939619971403  C 3.02340920895872 7.69939619971403  3.74776710793873 8.39278850534289  3.77945146875 9.26814784496124  C 3.75833673388505 10.1515202324879  3.03057082774781 10.8567208984388  2.14004673822505 10.8567208984388  C 2.11988957219019 10.8567208984388  2.09973411944682 10.8563521228491  2.07959065625 10.8556147596899  L 0.0797544062499997 10.8556147596899  L 0.0797544062499997 14.6060053643411  L 2.07959065625 14.6060053643411  C 2.96317391530649 14.6060053643411  3.679459671875 15.3167385181455  3.679459671875 16.1934722945736  C 3.679459671875 17.0702060710018  2.96317391530649 17.7809392248062  2.07959065625 17.7809392248062  L 0.0797544062499997 17.7809392248062  L 0.0797544062499997 21.5313298294574  L 2.07959065625 21.5313298294574  C 2.96317391530649 21.5313298294574  3.679459671875 22.2420629832618  3.679459671875 23.1187967596899  C 3.679459671875 23.9955305361181  2.96317391530649 24.7062636899225  2.07959065625 24.7062636899225  L 0.0797544062499997 24.7062636899225  L 0.0797544062500002 29.2702311007752  C 0.134016712523187 30.6873780656896  1.33099497194155 31.7953065637049  2.759535 31.7506481550388  L 26.23761271875 31.7506481550388  C 27.6661527468085 31.7953065637049  28.8631310062268 30.6873780656896  29 29.2702311007752  L 29 2.48172672868217  Z M 23.7645999832469 23.3469844842164  C 23.7645999832469 23.9348135656797  23.325305609787 24.4315045974989  22.73789925 24  L 8.73904540625 24  C 8.15163906002641 24.4315045838626  7.71234470339044 23.9348135580543  7.71234470339044 23.3469844881649  C 7.71234470339044 23.2635969888965  7.72132318027358 23.1804481162816  7.73912728125 23.0989534263566  C 7.98964356958591 19.3562211438497  10.4939803556645 16.134443598199  14.07860825 14.9433421085271  C 12.653336223593 14.2982674779311  11.7387998125 12.8869603129249  11.7387998125 11.3325636064016  C 11.7387998125 9.14072916961247  13.5295142004235 7.3638962885721  15.73847234375 7.3638962885721  C 17.9474304870765 7.3638962885721  19.738144875 9.14072916961247  19.738144875 11.3325636064016  C 19.738144875 12.8869603129249  18.823608463907 14.2982674779311  17.3983364375 14.9433421085271  C 20.9829643318355 16.134443598199  23.4873011179141 19.3562211438497  23.73781740625 23.0989534263566  C 23.7556215066546 23.1804481150226  23.7645999832469 23.2635969862986  23.7645999832469 23.3469844842164  Z " fill-rule="nonzero" fill="#aaaaaa" stroke="none" transform="matrix(1 0 0 1 343 412 )" />
  </g>
</svg>