<?xml version="1.0" encoding="utf-8"?>
<svg version="1.1" xmlns:xlink="http://www.w3.org/1999/xlink" width="285px" height="344px" xmlns="http://www.w3.org/2000/svg">
  <defs>
    <mask fill="white" id="clip43">
      <path d="M 270.341590322735 0.519965343177876  C 264.508284859416 0.519965343177863  262.980514380927 8.728921395631  258.397202945462 11.6507532109109  C 245.341709765653 22.6424062302974  233.536210613698 35.0254077331504  220.619605659206 46.1561956008835  C 214.786300195886 53.5303425632566  216.03629422374 63.6871864925631  212.147423914861 71.8961425450162  C 210.064100535104 79.409424355736  204.647459747737 84.9748182896025  199.925260086954 90.9576167685091  C 193.536401722367 88.7314591949625  187.147543357779 86.3661667730692  180.480908542558 84.9748182896025  C 175.342044205824 90.9576167685091  176.453150008361 100.140516759389  170.203179869091 105.705910693255  C 160.758780547526 116.975833409335  156.175469112061 131.028453092348  150.619940099377 144.385398533628  C 141.036652552495 145.637612168748  131.323157294379 147.028960652214  121.878757972815 148.698578832374  C 121.462093296863 151.759545496001  121.462093296863 154.959647007974  120.628763944961 158.020613671601  C 117.712111213301 159.690231851761  114.517682031007 161.220715183574  111.184364623397 160.803310638534  C 102.295518203101 159.551097003414  93.2677835574879 158.298883368294  84.6567135878264 155.655321249708  C 81.3233961802155 154.542242462934  78.2678552232388 157.324939429868  74.9345378156279 157.603209126561  C 68.9623441269917 156.072725794748  66.1845796206493 149.950792467494  62.434597537087 145.637612168748  C 58.2679507775734 148.002904590641  54.379080468694 150.785601557574  50.6290983851318 153.568298524508  C 44.3791282458613 149.533387922454  37.2958287546881 147.863769742294  29.7958645875636 148.559443984028  C 30.212529263515 155.377051553014  30.3514174888321 162.194659122001  31.7402997420033 168.733996994294  C 36.0458347268341 180.282189407067  45.0735693724469 189.595528318272  47.8513338787893 201.839394972778  C 38.6847110078594 201.561125276085  31.0458586154177 193.491304071978  21.6014592938535 196.413135887258  C 11.6015070710208 199.195832854192  3.40710177731064 206.709114664911  0.0737843696997324 216.448554049178  C 5.21264870643321 213.944126778938  9.93484836721532 210.744025266965  14.6570480279974 207.543923754991  C 16.0459302811686 208.100463148378  17.573700759657 208.657002541765  18.9625830128282 209.213541935151  C 20.2125770406823 220.483464651231  19.6570241394138 232.309926760697  23.8236708989274 243.162444931737  C 27.990317658441 248.588704017257  34.5180642483457 252.067075225924  37.0180523040539 258.88468279491  C 42.7124695420559 281.563663075416  49.6568808079119 304.520913052616  61.7401564105014 324.834600911229  C 59.7957212560618 328.173837271549  57.8512861016221 331.513073631868  56.1846273978166 334.991444840535  C 64.5179209168439 337.635006959122  74.1012084637252 348.209255433468  82.0178373068011 339.304625139282  C 88.4066956713887 331.095669086828  92.8511188815366 321.077960005869  101.878853527149 315.373431223656  C 105.073282709443 318.712667583975  107.989935441103 322.051903944295  111.045476398079 325.391140304615  C 114.795458481642 319.964881219095  117.989887663935 314.260352436882  121.323205071546 308.555823654669  C 127.989839886768 313.286408498456  133.823145350087 318.990937280669  140.212003714675 324.138926669495  C 145.073091600774 324.834600911229  147.147734466449 318.016993342242  150.481051874059 315.512566072002  C 156.869910238647 321.634499399255  166.86986246148 323.025847882722  174.369826628604 318.156128190589  C 186.314214005877 331.930478176908  206.175230226225 330.399994845095  222.564040813645 329.426050906669  C 229.925116755453 326.504219091389  231.03622255799 317.321319100509  235.34175754282 311.755925166642  C 243.119498160579 307.442744867896  252.980562158095 306.190531232776  259.230532297365 299.372923663789  C 262.147185029025 296.451091848509  258.674979396097 293.111855488189  257.424985368243 290.329158521256  C 253.258338608729 284.207225194003  253.813891509997 275.719999444856  247.702809596044 270.98941460107  C 240.619510104871 265.56315551555  237.28619269726 256.658525221364  236.31397512004 248.171299472217  C 236.730639795992 230.918578277231  234.647316416235 213.526722233898  236.591751570674 196.134866190565  C 237.008416246626 188.482449531498  246.175039117556 185.282348019525  246.313927342873 177.769066208805  C 247.008368469458 157.455378350193  250.341685877069 137.011251571255  256.174991340388 117.532372802722  C 257.56387359356 106.818989480029  256.313879565706 95.549066763949  259.647196973316 85.1139531379492  C 265.480502436636 73.1483561801362  273.674907730346 61.6001637673631  273.95268418098 47.6866789326968  C 277.841554489859 37.1124304583503  281.035983672153 26.2599122873106  283.674859953178 15.2682592679242  C 278.397107391128 11.0942138175243  275.758231110102 4.55487594523111  270.341590322735 0.519965343177876  Z " fill-rule="evenodd" />
    </mask>
  </defs>
  <g transform="matrix(1 0 0 1 -90 -213 )">
    <path d="M 270.341590322735 0.519965343177876  C 264.508284859416 0.519965343177863  262.980514380927 8.728921395631  258.397202945462 11.6507532109109  C 245.341709765653 22.6424062302974  233.536210613698 35.0254077331504  220.619605659206 46.1561956008835  C 214.786300195886 53.5303425632566  216.03629422374 63.6871864925631  212.147423914861 71.8961425450162  C 210.064100535104 79.409424355736  204.647459747737 84.9748182896025  199.925260086954 90.9576167685091  C 193.536401722367 88.7314591949625  187.147543357779 86.3661667730692  180.480908542558 84.9748182896025  C 175.342044205824 90.9576167685091  176.453150008361 100.140516759389  170.203179869091 105.705910693255  C 160.758780547526 116.975833409335  156.175469112061 131.028453092348  150.619940099377 144.385398533628  C 141.036652552495 145.637612168748  131.323157294379 147.028960652214  121.878757972815 148.698578832374  C 121.462093296863 151.759545496001  121.462093296863 154.959647007974  120.628763944961 158.020613671601  C 117.712111213301 159.690231851761  114.517682031007 161.220715183574  111.184364623397 160.803310638534  C 102.295518203101 159.551097003414  93.2677835574879 158.298883368294  84.6567135878264 155.655321249708  C 81.3233961802155 154.542242462934  78.2678552232388 157.324939429868  74.9345378156279 157.603209126561  C 68.9623441269917 156.072725794748  66.1845796206493 149.950792467494  62.434597537087 145.637612168748  C 58.2679507775734 148.002904590641  54.379080468694 150.785601557574  50.6290983851318 153.568298524508  C 44.3791282458613 149.533387922454  37.2958287546881 147.863769742294  29.7958645875636 148.559443984028  C 30.212529263515 155.377051553014  30.3514174888321 162.194659122001  31.7402997420033 168.733996994294  C 36.0458347268341 180.282189407067  45.0735693724469 189.595528318272  47.8513338787893 201.839394972778  C 38.6847110078594 201.561125276085  31.0458586154177 193.491304071978  21.6014592938535 196.413135887258  C 11.6015070710208 199.195832854192  3.40710177731064 206.709114664911  0.0737843696997324 216.448554049178  C 5.21264870643321 213.944126778938  9.93484836721532 210.744025266965  14.6570480279974 207.543923754991  C 16.0459302811686 208.100463148378  17.573700759657 208.657002541765  18.9625830128282 209.213541935151  C 20.2125770406823 220.483464651231  19.6570241394138 232.309926760697  23.8236708989274 243.162444931737  C 27.990317658441 248.588704017257  34.5180642483457 252.067075225924  37.0180523040539 258.88468279491  C 42.7124695420559 281.563663075416  49.6568808079119 304.520913052616  61.7401564105014 324.834600911229  C 59.7957212560618 328.173837271549  57.8512861016221 331.513073631868  56.1846273978166 334.991444840535  C 64.5179209168439 337.635006959122  74.1012084637252 348.209255433468  82.0178373068011 339.304625139282  C 88.4066956713887 331.095669086828  92.8511188815366 321.077960005869  101.878853527149 315.373431223656  C 105.073282709443 318.712667583975  107.989935441103 322.051903944295  111.045476398079 325.391140304615  C 114.795458481642 319.964881219095  117.989887663935 314.260352436882  121.323205071546 308.555823654669  C 127.989839886768 313.286408498456  133.823145350087 318.990937280669  140.212003714675 324.138926669495  C 145.073091600774 324.834600911229  147.147734466449 318.016993342242  150.481051874059 315.512566072002  C 156.869910238647 321.634499399255  166.86986246148 323.025847882722  174.369826628604 318.156128190589  C 186.314214005877 331.930478176908  206.175230226225 330.399994845095  222.564040813645 329.426050906669  C 229.925116755453 326.504219091389  231.03622255799 317.321319100509  235.34175754282 311.755925166642  C 243.119498160579 307.442744867896  252.980562158095 306.190531232776  259.230532297365 299.372923663789  C 262.147185029025 296.451091848509  258.674979396097 293.111855488189  257.424985368243 290.329158521256  C 253.258338608729 284.207225194003  253.813891509997 275.719999444856  247.702809596044 270.98941460107  C 240.619510104871 265.56315551555  237.28619269726 256.658525221364  236.31397512004 248.171299472217  C 236.730639795992 230.918578277231  234.647316416235 213.526722233898  236.591751570674 196.134866190565  C 237.008416246626 188.482449531498  246.175039117556 185.282348019525  246.313927342873 177.769066208805  C 247.008368469458 157.455378350193  250.341685877069 137.011251571255  256.174991340388 117.532372802722  C 257.56387359356 106.818989480029  256.313879565706 95.549066763949  259.647196973316 85.1139531379492  C 265.480502436636 73.1483561801362  273.674907730346 61.6001637673631  273.95268418098 47.6866789326968  C 277.841554489859 37.1124304583503  281.035983672153 26.2599122873106  283.674859953178 15.2682592679242  C 278.397107391128 11.0942138175243  275.758231110102 4.55487594523111  270.341590322735 0.519965343177876  Z " fill-rule="nonzero" fill="#42c8a0" stroke="none" transform="matrix(1 0 0 1 90 213 )" />
    <path d="M 270.341590322735 0.519965343177876  C 264.508284859416 0.519965343177863  262.980514380927 8.728921395631  258.397202945462 11.6507532109109  C 245.341709765653 22.6424062302974  233.536210613698 35.0254077331504  220.619605659206 46.1561956008835  C 214.786300195886 53.5303425632566  216.03629422374 63.6871864925631  212.147423914861 71.8961425450162  C 210.064100535104 79.409424355736  204.647459747737 84.9748182896025  199.925260086954 90.9576167685091  C 193.536401722367 88.7314591949625  187.147543357779 86.3661667730692  180.480908542558 84.9748182896025  C 175.342044205824 90.9576167685091  176.453150008361 100.140516759389  170.203179869091 105.705910693255  C 160.758780547526 116.975833409335  156.175469112061 131.028453092348  150.619940099377 144.385398533628  C 141.036652552495 145.637612168748  131.323157294379 147.028960652214  121.878757972815 148.698578832374  C 121.462093296863 151.759545496001  121.462093296863 154.959647007974  120.628763944961 158.020613671601  C 117.712111213301 159.690231851761  114.517682031007 161.220715183574  111.184364623397 160.803310638534  C 102.295518203101 159.551097003414  93.2677835574879 158.298883368294  84.6567135878264 155.655321249708  C 81.3233961802155 154.542242462934  78.2678552232388 157.324939429868  74.9345378156279 157.603209126561  C 68.9623441269917 156.072725794748  66.1845796206493 149.950792467494  62.434597537087 145.637612168748  C 58.2679507775734 148.002904590641  54.379080468694 150.785601557574  50.6290983851318 153.568298524508  C 44.3791282458613 149.533387922454  37.2958287546881 147.863769742294  29.7958645875636 148.559443984028  C 30.212529263515 155.377051553014  30.3514174888321 162.194659122001  31.7402997420033 168.733996994294  C 36.0458347268341 180.282189407067  45.0735693724469 189.595528318272  47.8513338787893 201.839394972778  C 38.6847110078594 201.561125276085  31.0458586154177 193.491304071978  21.6014592938535 196.413135887258  C 11.6015070710208 199.195832854192  3.40710177731064 206.709114664911  0.0737843696997324 216.448554049178  C 5.21264870643321 213.944126778938  9.93484836721532 210.744025266965  14.6570480279974 207.543923754991  C 16.0459302811686 208.100463148378  17.573700759657 208.657002541765  18.9625830128282 209.213541935151  C 20.2125770406823 220.483464651231  19.6570241394138 232.309926760697  23.8236708989274 243.162444931737  C 27.990317658441 248.588704017257  34.5180642483457 252.067075225924  37.0180523040539 258.88468279491  C 42.7124695420559 281.563663075416  49.6568808079119 304.520913052616  61.7401564105014 324.834600911229  C 59.7957212560618 328.173837271549  57.8512861016221 331.513073631868  56.1846273978166 334.991444840535  C 64.5179209168439 337.635006959122  74.1012084637252 348.209255433468  82.0178373068011 339.304625139282  C 88.4066956713887 331.095669086828  92.8511188815366 321.077960005869  101.878853527149 315.373431223656  C 105.073282709443 318.712667583975  107.989935441103 322.051903944295  111.045476398079 325.391140304615  C 114.795458481642 319.964881219095  117.989887663935 314.260352436882  121.323205071546 308.555823654669  C 127.989839886768 313.286408498456  133.823145350087 318.990937280669  140.212003714675 324.138926669495  C 145.073091600774 324.834600911229  147.147734466449 318.016993342242  150.481051874059 315.512566072002  C 156.869910238647 321.634499399255  166.86986246148 323.025847882722  174.369826628604 318.156128190589  C 186.314214005877 331.930478176908  206.175230226225 330.399994845095  222.564040813645 329.426050906669  C 229.925116755453 326.504219091389  231.03622255799 317.321319100509  235.34175754282 311.755925166642  C 243.119498160579 307.442744867896  252.980562158095 306.190531232776  259.230532297365 299.372923663789  C 262.147185029025 296.451091848509  258.674979396097 293.111855488189  257.424985368243 290.329158521256  C 253.258338608729 284.207225194003  253.813891509997 275.719999444856  247.702809596044 270.98941460107  C 240.619510104871 265.56315551555  237.28619269726 256.658525221364  236.31397512004 248.171299472217  C 236.730639795992 230.918578277231  234.647316416235 213.526722233898  236.591751570674 196.134866190565  C 237.008416246626 188.482449531498  246.175039117556 185.282348019525  246.313927342873 177.769066208805  C 247.008368469458 157.455378350193  250.341685877069 137.011251571255  256.174991340388 117.532372802722  C 257.56387359356 106.818989480029  256.313879565706 95.549066763949  259.647196973316 85.1139531379492  C 265.480502436636 73.1483561801362  273.674907730346 61.6001637673631  273.95268418098 47.6866789326968  C 277.841554489859 37.1124304583503  281.035983672153 26.2599122873106  283.674859953178 15.2682592679242  C 278.397107391128 11.0942138175243  275.758231110102 4.55487594523111  270.341590322735 0.519965343177876  Z " stroke-width="0.187316356513222" stroke="#848484" fill="none" transform="matrix(1 0 0 1 90 213 )" mask="url(#clip43)" />
  </g>
</svg>