<?xml version="1.0" encoding="utf-8"?>
<svg version="1.1" xmlns:xlink="http://www.w3.org/1999/xlink" width="280px" height="307px" xmlns="http://www.w3.org/2000/svg">
  <defs>
    <mask fill="white" id="clip44">
      <path d="M 131.797812867424 0.998270317718425  C 120.670309391327 -1.49841831875362  110.377368675938 14.8687627425628  119.001183869913 22.9136483489726  C 129.433218378753 34.9809767585872  120.809403184779 49.9611085774192  118.72299628301 63.1380763810214  C 120.670309391327 86.44050365476  122.478528706193 110.436455549741  116.219308000889 133.322768050734  C 109.820993502133 148.302899869566  98.415302439134 160.500264145664  87.5659865499397 172.42888763103  C 82.1413286053426 183.525281570905  85.757767235074 197.39577399575  78.3857961821599 207.798643314383  C 72.9611382375628 211.68238119334  65.5891671846488 208.214758087129  59.6081340662468 209.046987632619  C 56.6871644037714 221.669135739228  49.8715685246622 233.0429395276  39.717721602724 241.365234982507  C 34.0148760712244 245.110267937215  28.1729367462736 239.28466111878  22.3309974213229 238.313726649041  C 14.1244636077016 242.058759603749  12.3162442928359 253.987383089115  1.32783461019039 252.877743695128  C 1.32783461019039 254.819612634606  1.32783461019039 258.564645589314  1.4669284036416 260.506514528792  C 3.69242909886094 261.477448998531  5.77883600062906 262.44838346827  8.0043366958484 263.419317938009  C 10.0907435976165 260.64521945304  11.4816815321286 254.126088013364  16.3499643029209 255.513137255848  C 19.4100277588475 258.148530816569  22.6091850082253 262.032268695525  21.6355284540668 266.332121347227  C 18.9927463784939 271.602908468668  14.9590263684088 276.041466044618  11.6207753255798 281.034843317562  C 16.9063394767258 284.502466423773  23.0264663885789 286.305630439003  29.0074995069809 288.108794454232  C 32.7630319301635 293.379581575673  27.8947491593712 301.147057333586  32.2066567563587 306.14043460653  C 37.770408494407 307.804893697511  42.9168788521018 304.198565667052  47.9242554163453 302.395401651822  C 52.375256806784 300.592237636592  57.2435395775762 302.672811500319  61.8336347614661 301.008352409338  C 64.8936982173927 295.598860363648  66.423729945356 289.357138772468  70.3183561619899 284.363761499524  C 73.6566072048188 279.925203923574  76.2993892803918 273.267367559649  82.8367975725986 273.267367559649  C 94.7988638094026 272.851252786904  106.760930046206 274.93182665063  118.166621109206 278.676859605338  C 123.034903879998 280.202613772071  128.598655618046 280.202613772071  132.910563215034 277.289810362854  C 140.838909441753 270.770678923177  146.254874024259 262.032268695525  152.375000936112 254.126088013364  C 156.6869085331 254.819612634606  160.859722336636 256.900186498333  165.310723727075 257.177596346829  C 173.378163747245 256.484071725587  181.167416180512 251.906809225388  189.373949994134 254.542202786109  C 195.91135828634 257.455006195326  201.753297611291 262.587088392519  209.264362457656 262.864498241016  C 212.880801087388 262.587088392519  218.027271445083 264.667662256245  220.948241107558 261.200039150034  C 233.605776311618 249.271415664668  245.985123928776 237.065382330805  259.19903430664 225.830283466681  C 264.484598457786 218.895037254259  270.187443989286 212.237200890333  278.811259183261 209.463102405365  C 277.5594150422 203.498790662681  272.830226064859 198.089298616992  273.942976412469 191.708872101564  C 275.333914346981 183.247871722409  277.420321248749 173.954641797763  272.412944684505 166.325870964098  C 269.49197502203 155.368181948471  256.138970850714 153.018867294013  251.966157047178 143.309522596622  C 255.026220503104 130.409964641517  267.544661913713 120.978029792623  269.770162608932 107.523652140524  C 268.240130880969 103.501209337319  264.762786044689 100.588405928101  261.42453500186 97.9530123673809  C 252.800719807885 91.8499957004494  244.872373581166 84.9147494880272  235.970370800289 79.0891426695925  C 229.989337681887 74.9279949421392  222.33917904207 74.5118801693939  216.219052130217 70.6281422904374  C 213.298082467742 64.9412403962512  217.192708684375 58.1446991080774  215.523583162961 52.0416824411459  C 214.410832815351 47.4644199409472  210.79439418562 43.9967968347361  207.038861762437 41.5001081982641  C 199.805984502974 43.4419771377424  195.633170699438 50.6546331986615  189.234856200683 53.7061415321272  C 179.220103072195 55.509305547357  169.066256150257 56.6189449413445  159.190596815221 59.254338502065  C 153.905032664076 53.1513218351334  148.61946851293 46.770895319705  146.254874024259 38.8647146375437  C 142.360247807625 31.9294684251215  146.533061611161 23.8845828187117  145.003029883198 16.6719267577926  C 141.664778840369 10.846319939358  138.057033572728 4.18848357543264  131.797812867424 0.998270317718425  Z " fill-rule="evenodd" />
    </mask>
  </defs>
  <g transform="matrix(1 0 0 1 -89 0 )">
    <path d="M 131.797812867424 0.998270317718425  C 120.670309391327 -1.49841831875362  110.377368675938 14.8687627425628  119.001183869913 22.9136483489726  C 129.433218378753 34.9809767585872  120.809403184779 49.9611085774192  118.72299628301 63.1380763810214  C 120.670309391327 86.44050365476  122.478528706193 110.436455549741  116.219308000889 133.322768050734  C 109.820993502133 148.302899869566  98.415302439134 160.500264145664  87.5659865499397 172.42888763103  C 82.1413286053426 183.525281570905  85.757767235074 197.39577399575  78.3857961821599 207.798643314383  C 72.9611382375628 211.68238119334  65.5891671846488 208.214758087129  59.6081340662468 209.046987632619  C 56.6871644037714 221.669135739228  49.8715685246622 233.0429395276  39.717721602724 241.365234982507  C 34.0148760712244 245.110267937215  28.1729367462736 239.28466111878  22.3309974213229 238.313726649041  C 14.1244636077016 242.058759603749  12.3162442928359 253.987383089115  1.32783461019039 252.877743695128  C 1.32783461019039 254.819612634606  1.32783461019039 258.564645589314  1.4669284036416 260.506514528792  C 3.69242909886094 261.477448998531  5.77883600062906 262.44838346827  8.0043366958484 263.419317938009  C 10.0907435976165 260.64521945304  11.4816815321286 254.126088013364  16.3499643029209 255.513137255848  C 19.4100277588475 258.148530816569  22.6091850082253 262.032268695525  21.6355284540668 266.332121347227  C 18.9927463784939 271.602908468668  14.9590263684088 276.041466044618  11.6207753255798 281.034843317562  C 16.9063394767258 284.502466423773  23.0264663885789 286.305630439003  29.0074995069809 288.108794454232  C 32.7630319301635 293.379581575673  27.8947491593712 301.147057333586  32.2066567563587 306.14043460653  C 37.770408494407 307.804893697511  42.9168788521018 304.198565667052  47.9242554163453 302.395401651822  C 52.375256806784 300.592237636592  57.2435395775762 302.672811500319  61.8336347614661 301.008352409338  C 64.8936982173927 295.598860363648  66.423729945356 289.357138772468  70.3183561619899 284.363761499524  C 73.6566072048188 279.925203923574  76.2993892803918 273.267367559649  82.8367975725986 273.267367559649  C 94.7988638094026 272.851252786904  106.760930046206 274.93182665063  118.166621109206 278.676859605338  C 123.034903879998 280.202613772071  128.598655618046 280.202613772071  132.910563215034 277.289810362854  C 140.838909441753 270.770678923177  146.254874024259 262.032268695525  152.375000936112 254.126088013364  C 156.6869085331 254.819612634606  160.859722336636 256.900186498333  165.310723727075 257.177596346829  C 173.378163747245 256.484071725587  181.167416180512 251.906809225388  189.373949994134 254.542202786109  C 195.91135828634 257.455006195326  201.753297611291 262.587088392519  209.264362457656 262.864498241016  C 212.880801087388 262.587088392519  218.027271445083 264.667662256245  220.948241107558 261.200039150034  C 233.605776311618 249.271415664668  245.985123928776 237.065382330805  259.19903430664 225.830283466681  C 264.484598457786 218.895037254259  270.187443989286 212.237200890333  278.811259183261 209.463102405365  C 277.5594150422 203.498790662681  272.830226064859 198.089298616992  273.942976412469 191.708872101564  C 275.333914346981 183.247871722409  277.420321248749 173.954641797763  272.412944684505 166.325870964098  C 269.49197502203 155.368181948471  256.138970850714 153.018867294013  251.966157047178 143.309522596622  C 255.026220503104 130.409964641517  267.544661913713 120.978029792623  269.770162608932 107.523652140524  C 268.240130880969 103.501209337319  264.762786044689 100.588405928101  261.42453500186 97.9530123673809  C 252.800719807885 91.8499957004494  244.872373581166 84.9147494880272  235.970370800289 79.0891426695925  C 229.989337681887 74.9279949421392  222.33917904207 74.5118801693939  216.219052130217 70.6281422904374  C 213.298082467742 64.9412403962512  217.192708684375 58.1446991080774  215.523583162961 52.0416824411459  C 214.410832815351 47.4644199409472  210.79439418562 43.9967968347361  207.038861762437 41.5001081982641  C 199.805984502974 43.4419771377424  195.633170699438 50.6546331986615  189.234856200683 53.7061415321272  C 179.220103072195 55.509305547357  169.066256150257 56.6189449413445  159.190596815221 59.254338502065  C 153.905032664076 53.1513218351334  148.61946851293 46.770895319705  146.254874024259 38.8647146375437  C 142.360247807625 31.9294684251215  146.533061611161 23.8845828187117  145.003029883198 16.6719267577926  C 141.664778840369 10.846319939358  138.057033572728 4.18848357543264  131.797812867424 0.998270317718425  Z " fill-rule="nonzero" fill="#00cc00" stroke="none" transform="matrix(1 0 0 1 89 0 )" />
    <path d="M 131.797812867424 0.998270317718425  C 120.670309391327 -1.49841831875362  110.377368675938 14.8687627425628  119.001183869913 22.9136483489726  C 129.433218378753 34.9809767585872  120.809403184779 49.9611085774192  118.72299628301 63.1380763810214  C 120.670309391327 86.44050365476  122.478528706193 110.436455549741  116.219308000889 133.322768050734  C 109.820993502133 148.302899869566  98.415302439134 160.500264145664  87.5659865499397 172.42888763103  C 82.1413286053426 183.525281570905  85.757767235074 197.39577399575  78.3857961821599 207.798643314383  C 72.9611382375628 211.68238119334  65.5891671846488 208.214758087129  59.6081340662468 209.046987632619  C 56.6871644037714 221.669135739228  49.8715685246622 233.0429395276  39.717721602724 241.365234982507  C 34.0148760712244 245.110267937215  28.1729367462736 239.28466111878  22.3309974213229 238.313726649041  C 14.1244636077016 242.058759603749  12.3162442928359 253.987383089115  1.32783461019039 252.877743695128  C 1.32783461019039 254.819612634606  1.32783461019039 258.564645589314  1.4669284036416 260.506514528792  C 3.69242909886094 261.477448998531  5.77883600062906 262.44838346827  8.0043366958484 263.419317938009  C 10.0907435976165 260.64521945304  11.4816815321286 254.126088013364  16.3499643029209 255.513137255848  C 19.4100277588475 258.148530816569  22.6091850082253 262.032268695525  21.6355284540668 266.332121347227  C 18.9927463784939 271.602908468668  14.9590263684088 276.041466044618  11.6207753255798 281.034843317562  C 16.9063394767258 284.502466423773  23.0264663885789 286.305630439003  29.0074995069809 288.108794454232  C 32.7630319301635 293.379581575673  27.8947491593712 301.147057333586  32.2066567563587 306.14043460653  C 37.770408494407 307.804893697511  42.9168788521018 304.198565667052  47.9242554163453 302.395401651822  C 52.375256806784 300.592237636592  57.2435395775762 302.672811500319  61.8336347614661 301.008352409338  C 64.8936982173927 295.598860363648  66.423729945356 289.357138772468  70.3183561619899 284.363761499524  C 73.6566072048188 279.925203923574  76.2993892803918 273.267367559649  82.8367975725986 273.267367559649  C 94.7988638094026 272.851252786904  106.760930046206 274.93182665063  118.166621109206 278.676859605338  C 123.034903879998 280.202613772071  128.598655618046 280.202613772071  132.910563215034 277.289810362854  C 140.838909441753 270.770678923177  146.254874024259 262.032268695525  152.375000936112 254.126088013364  C 156.6869085331 254.819612634606  160.859722336636 256.900186498333  165.310723727075 257.177596346829  C 173.378163747245 256.484071725587  181.167416180512 251.906809225388  189.373949994134 254.542202786109  C 195.91135828634 257.455006195326  201.753297611291 262.587088392519  209.264362457656 262.864498241016  C 212.880801087388 262.587088392519  218.027271445083 264.667662256245  220.948241107558 261.200039150034  C 233.605776311618 249.271415664668  245.985123928776 237.065382330805  259.19903430664 225.830283466681  C 264.484598457786 218.895037254259  270.187443989286 212.237200890333  278.811259183261 209.463102405365  C 277.5594150422 203.498790662681  272.830226064859 198.089298616992  273.942976412469 191.708872101564  C 275.333914346981 183.247871722409  277.420321248749 173.954641797763  272.412944684505 166.325870964098  C 269.49197502203 155.368181948471  256.138970850714 153.018867294013  251.966157047178 143.309522596622  C 255.026220503104 130.409964641517  267.544661913713 120.978029792623  269.770162608932 107.523652140524  C 268.240130880969 103.501209337319  264.762786044689 100.588405928101  261.42453500186 97.9530123673809  C 252.800719807885 91.8499957004494  244.872373581166 84.9147494880272  235.970370800289 79.0891426695925  C 229.989337681887 74.9279949421392  222.33917904207 74.5118801693939  216.219052130217 70.6281422904374  C 213.298082467742 64.9412403962512  217.192708684375 58.1446991080774  215.523583162961 52.0416824411459  C 214.410832815351 47.4644199409472  210.79439418562 43.9967968347361  207.038861762437 41.5001081982641  C 199.805984502974 43.4419771377424  195.633170699438 50.6546331986615  189.234856200683 53.7061415321272  C 179.220103072195 55.509305547357  169.066256150257 56.6189449413445  159.190596815221 59.254338502065  C 153.905032664076 53.1513218351334  148.61946851293 46.770895319705  146.254874024259 38.8647146375437  C 142.360247807625 31.9294684251215  146.533061611161 23.8845828187117  145.003029883198 16.6719267577926  C 141.664778840369 10.846319939358  138.057033572728 4.18848357543264  131.797812867424 0.998270317718425  Z " stroke-width="0.187217762167587" stroke="#848484" fill="none" transform="matrix(1 0 0 1 89 0 )" mask="url(#clip44)" />
  </g>
</svg>