<?xml version="1.0" encoding="utf-8"?>
<svg version="1.1" xmlns:xlink="http://www.w3.org/1999/xlink" width="23px" height="23px" xmlns="http://www.w3.org/2000/svg">
  <g transform="matrix(1 0 0 1 -102 -126 )">
    <path d="M 113.5 126  C 119.94 126  125 131.06  125 137.5  C 125 143.94  119.94 149  113.5 149  C 107.06 149  102 143.94  102 137.5  C 102 131.06  107.06 126  113.5 126  Z " fill-rule="nonzero" fill="#f7f7f7" stroke="none" />
    <path d="M 113.5 126.5  C 119.66 126.5  124.5 131.34  124.5 137.5  C 124.5 143.66  119.66 148.5  113.5 148.5  C 107.34 148.5  102.5 143.66  102.5 137.5  C 102.5 131.34  107.34 126.5  113.5 126.5  Z " stroke-width="1" stroke="#949494" fill="none" />
  </g>
</svg>