<?xml version="1.0" encoding="utf-8"?>
<svg version="1.1" xmlns:xlink="http://www.w3.org/1999/xlink" width="21px" height="38px" xmlns="http://www.w3.org/2000/svg">
  <g transform="matrix(1 0 0 1 -129 -76 )">
    <path d="M 20.6391752577319 2.28456913827655  C 20.8797250859107 2.53841015364061  21 2.83032732130928  21 3.16032064128257  C 21 3.49031396125584  20.8797250859107 3.78223112892451  20.6391752577319 4.03607214428858  L 6.45876288659795 19  L 20.6391752577319 33.9639278557114  C 20.8797250859107 34.2177688710755  21 34.5096860387442  21 34.8396793587174  C 21 35.1696726786907  20.8797250859107 35.4615898463594  20.6391752577319 35.7154308617235  L 18.8350515463918 37.6192384769539  C 18.5945017182131 37.873079492318  18.3178694158076 38  18.0051546391753 38  C 17.692439862543 38  17.4158075601375 37.873079492318  17.1752577319588 37.6192384769539  L 0.360824742268036 19.875751503006  C 0.12027491408935 19.621910487642  0 19.3299933199733  0 19  C 0 18.6700066800267  0.12027491408935 18.378089512358  0.360824742268036 18.124248496994  L 17.1752577319588 0.38076152304609  C 17.4158075601375 0.12692050768203  17.692439862543 0  18.0051546391753 0  C 18.3178694158076 0  18.5945017182131 0.12692050768203  18.8350515463918 0.38076152304609  L 20.6391752577319 2.28456913827655  Z " fill-rule="nonzero" fill="#333333" stroke="none" transform="matrix(1 0 0 1 129 76 )" />
  </g>
</svg>