<?xml version="1.0" encoding="utf-8"?>
<svg version="1.1" xmlns:xlink="http://www.w3.org/1999/xlink" width="25px" height="43px" xmlns="http://www.w3.org/2000/svg">
  <g transform="matrix(1 0 0 1 -31 -46 )">
    <path d="M 24.5704467353952 2.58517034068136  C 24.8568155784651 2.87241148964596  25 3.20273881095524  25 3.57615230460922  C 25 3.94956579826319  24.8568155784651 4.27989311957248  24.5704467353952 4.56713426853707  L 7.68900343642612 21.5  L 24.5704467353952 38.4328657314629  C 24.8568155784651 38.7201068804275  25 39.0504342017368  25 39.4238476953908  C 25 39.7972611890447  24.8568155784651 40.127588510354  24.5704467353952 40.4148296593186  L 22.4226804123711 42.5691382765531  C 22.1363115693013 42.8563794255177  21.8069873997709 43  21.4347079037801 43  C 21.0624284077892 43  20.7331042382589 42.8563794255177  20.446735395189 42.5691382765531  L 0.429553264604809 22.4909819639279  C 0.143184421534936 22.2037408149633  0 21.873413493654  0 21.5  C 0 21.126586506346  0.143184421534936 20.7962591850367  0.429553264604809 20.5090180360721  L 20.446735395189 0.430861723446895  C 20.7331042382589 0.143620574482298  21.0624284077892 0  21.4347079037801 0  C 21.8069873997709 0  22.1363115693013 0.143620574482298  22.4226804123711 0.430861723446895  L 24.5704467353952 2.58517034068136  Z " fill-rule="nonzero" fill="#333333" stroke="none" transform="matrix(1 0 0 1 31 46 )" />
  </g>
</svg>