<?xml version="1.0" encoding="utf-8"?>
<svg version="1.1" xmlns:xlink="http://www.w3.org/1999/xlink" width="7px" height="12px" xmlns="http://www.w3.org/2000/svg">
  <g transform="matrix(1 0 0 1 -281 -226 )">
    <path d="M 6.87972508591065 5.72344689378758  C 6.95990836197024 5.80360721442887  7 5.89579158316633  7 6  C 7 6.10420841683367  6.95990836197024 6.19639278557113  6.87972508591065 6.27655310621242  L 1.27491408934708 11.8797595190381  C 1.19473081328749 11.9599198396794  1.10252004581901 12  0.998281786941561 12  C 0.894043528064174 12  0.80183276059563 11.9599198396794  0.721649484536101 11.8797595190381  L 0.12027491408935 11.2785571142284  C 0.0400916380297645 11.1983967935872  0 11.1062124248497  0 11.002004008016  C 0 10.8977955911824  0.0400916380297645 10.8056112224449  0.12027491408935 10.7254509018036  L 4.84707903780071 6  L 0.12027491408935 1.27454909819639  C 0.0400916380297645 1.1943887775551  0 1.10220440881764  0 0.99799599198397  C 0 0.893787575150299  0.0400916380297645 0.801603206412807  0.12027491408935 0.721442885771552  L 0.721649484536101 0.12024048096194  C 0.80183276059563 0.0400801603206276  0.894043528064174 0  0.998281786941561 0  C 1.10252004581901 0  1.19473081328749 0.0400801603206276  1.27491408934708 0.12024048096194  L 6.87972508591065 5.72344689378758  Z " fill-rule="nonzero" fill="#333333" stroke="none" transform="matrix(1 0 0 1 281 226 )" />
  </g>
</svg>