<?xml version="1.0" encoding="utf-8"?>
<svg version="1.1" xmlns:xlink="http://www.w3.org/1999/xlink" width="23px" height="17px" xmlns="http://www.w3.org/2000/svg">
  <g transform="matrix(1 0 0 1 -250 -75 )">
    <path d="M 22.5845161290322 2.34680134680134  C 22.8615053763441 2.61391694725026  23 2.93827160493827  23 3.31986531986531  C 23 3.70145903479235  22.8615053763441 4.02581369248037  22.5845161290322 4.29292929292929  L 11.8412903225807 14.6531986531987  L 9.8232258064516 16.5993265993266  C 9.5462365591398 16.8664421997755  9.20989247311826 17  8.8141935483871 17  C 8.41849462365593 17  8.08215053763439 16.8664421997755  7.80516129032259 16.5993265993266  L 5.78709677419357 14.6531986531987  L 0.415483870967762 9.47306397306397  C 0.138494623655902 9.20594837261505  0 8.88159371492705  0 8.5  C 0 8.11840628507295  0.138494623655902 7.79405162738495  0.415483870967762 7.52693602693603  L 2.43354838709678 5.58080808080807  C 2.71053763440858 5.31369248035915  3.04688172043012 5.18013468013469  3.44258064516129 5.18013468013469  C 3.83827956989245 5.18013468013469  4.17462365591399 5.31369248035915  4.45161290322579 5.58080808080807  L 8.8141935483871 9.80218855218854  L 18.5483870967742 0.400673400673384  C 18.825376344086 0.133557800224466  19.1617204301076 0  19.5574193548387 0  C 19.9531182795699 0  20.2894623655914 0.133557800224466  20.5664516129032 0.400673400673384  L 22.5845161290322 2.34680134680134  Z " fill-rule="nonzero" fill="#333333" stroke="none" transform="matrix(1 0 0 1 250 75 )" />
  </g>
</svg>