<?xml version="1.0" encoding="utf-8"?>
<svg version="1.1" xmlns:xlink="http://www.w3.org/1999/xlink" width="18px" height="16px" xmlns="http://www.w3.org/2000/svg">
  <g transform="matrix(1 0 0 1 -219 -20 )">
    <path d="M 2.48102678571428 13.4270833333333  C 2.54129464285714 13.4895833333333  2.57142857142856 13.5694444444444  2.57142857142856 13.6666666666667  L 2.57142857142856 15.6666666666667  C 2.57142857142856 15.7638888888889  2.54129464285714 15.84375  2.48102678571428 15.90625  C 2.42075892857144 15.96875  2.34375 16  2.25 16  L 0.321428571428555 16  C 0.227678571428555 16  0.150669642857139 15.96875  0.0904017857142776 15.90625  C 0.0301339285714448 15.84375  0 15.7638888888889  0 15.6666666666667  L 0 13.6666666666667  C 0 13.5694444444444  0.0301339285714448 13.4895833333333  0.0904017857142776 13.4270833333333  C 0.150669642857139 13.3645833333333  0.227678571428555 13.3333333333333  0.321428571428555 13.3333333333333  L 2.25 13.3333333333333  C 2.34375 13.3333333333333  2.42075892857144 13.3645833333333  2.48102678571428 13.4270833333333  Z M 6.33816964285714 12.09375  C 6.3984375 12.15625  6.42857142857144 12.2361111111111  6.42857142857144 12.3333333333333  L 6.42857142857144 15.6666666666667  C 6.42857142857144 15.7638888888889  6.3984375 15.84375  6.33816964285714 15.90625  C 6.27790178571428 15.96875  6.20089285714286 16  6.10714285714286 16  L 4.17857142857144 16  C 4.08482142857144 16  4.0078125 15.96875  3.94754464285714 15.90625  C 3.88727678571428 15.84375  3.85714285714286 15.7638888888889  3.85714285714286 15.6666666666667  L 3.85714285714286 12.3333333333333  C 3.85714285714286 12.2361111111111  3.88727678571428 12.15625  3.94754464285714 12.09375  C 4.0078125 12.03125  4.08482142857144 12  4.17857142857144 12  L 6.10714285714286 12  C 6.20089285714286 12  6.27790178571428 12.03125  6.33816964285714 12.09375  Z M 10.1953125 9.42708333333334  C 10.2555803571429 9.48958333333334  10.2857142857143 9.56944444444444  10.2857142857143 9.66666666666666  L 10.2857142857143 15.6666666666667  C 10.2857142857143 15.7638888888889  10.2555803571429 15.84375  10.1953125 15.90625  C 10.1350446428571 15.96875  10.0580357142857 16  9.96428571428572 16  L 8.03571428571428 16  C 7.94196428571428 16  7.86495535714286 15.96875  7.8046875 15.90625  C 7.74441964285714 15.84375  7.71428571428572 15.7638888888889  7.71428571428572 15.6666666666667  L 7.71428571428572 9.66666666666666  C 7.71428571428572 9.56944444444444  7.74441964285714 9.48958333333334  7.8046875 9.42708333333334  C 7.86495535714286 9.36458333333334  7.94196428571428 9.33333333333334  8.03571428571428 9.33333333333334  L 9.96428571428572 9.33333333333334  C 10.0580357142857 9.33333333333334  10.1350446428571 9.36458333333334  10.1953125 9.42708333333334  Z M 14.0524553571429 5.42708333333333  C 14.1127232142857 5.48958333333333  14.1428571428571 5.56944444444445  14.1428571428571 5.66666666666667  L 14.1428571428571 15.6666666666667  C 14.1428571428571 15.7638888888889  14.1127232142857 15.84375  14.0524553571429 15.90625  C 13.9921875 15.96875  13.9151785714286 16  13.8214285714286 16  L 11.8928571428571 16  C 11.7991071428571 16  11.7220982142857 15.96875  11.6618303571429 15.90625  C 11.6015625 15.84375  11.5714285714286 15.7638888888889  11.5714285714286 15.6666666666667  L 11.5714285714286 5.66666666666667  C 11.5714285714286 5.56944444444445  11.6015625 5.48958333333333  11.6618303571429 5.42708333333333  C 11.7220982142857 5.36458333333333  11.7991071428571 5.33333333333333  11.8928571428571 5.33333333333333  L 13.8214285714286 5.33333333333333  C 13.9151785714286 5.33333333333333  13.9921875 5.36458333333333  14.0524553571429 5.42708333333333  Z M 17.9095982142857 0.09375  C 17.9698660714286 0.15625  18 0.236111111111111  18 0.333333333333332  L 18 15.6666666666667  C 18 15.7638888888889  17.9698660714286 15.84375  17.9095982142857 15.90625  C 17.8493303571429 15.96875  17.7723214285714 16  17.6785714285714 16  L 15.75 16  C 15.65625 16  15.5792410714286 15.96875  15.5189732142857 15.90625  C 15.4587053571429 15.84375  15.4285714285714 15.7638888888889  15.4285714285714 15.6666666666667  L 15.4285714285714 0.333333333333332  C 15.4285714285714 0.236111111111111  15.4587053571429 0.15625  15.5189732142857 0.09375  C 15.5792410714286 0.03125  15.65625 0  15.75 0  L 17.6785714285714 0  C 17.7723214285714 0  17.8493303571429 0.03125  17.9095982142857 0.09375  Z " fill-rule="nonzero" fill="#ffffff" stroke="none" transform="matrix(1 0 0 1 219 20 )" />
  </g>
</svg>