<?xml version="1.0" encoding="utf-8"?>
<svg version="1.1" xmlns:xlink="http://www.w3.org/1999/xlink" width="27px" height="116px" xmlns="http://www.w3.org/2000/svg">
  <defs>
    <filter x="105px" y="67px" width="27px" height="116px" filterUnits="userSpaceOnUse" id="filter60">
      <feOffset dx="1" dy="1" in="SourceAlpha" result="shadowOffsetInner" />
      <feGaussianBlur stdDeviation="0.5" in="shadowOffsetInner" result="shadowGaussian" />
      <feComposite in2="shadowGaussian" operator="atop" in="SourceAlpha" result="shadowComposite" />
      <feColorMatrix type="matrix" values="0 0 0 0 0.8  0 0 0 0 0.8  0 0 0 0 0.8  0 0 0 0.349019607843137 0  " in="shadowComposite" />
    </filter>
    <g id="widget61">
      <path d="M 8.95833333333337 3.68336025848146  L 12.5 0  L 16.0416666666666 3.68336025848146  L 8.95833333333337 3.68336025848146  Z M 2.08333333333331 4  L 22.9166666666667 4  C 24.0833333333333 3.4991922455573  25 4.30953150242333  25 5.34087237479807  L 25 112.158319870759  C 25 113.189660743134  24.0833333333333 114  22.9166666666667 114  L 2.08333333333331 114  C 0.916666666666686 114  0 113.189660743134  0 112.158319870759  L 0 5.34087237479807  C 0 4.30953150242333  0.916666666666686 3.4991922455573  2.08333333333331 4  Z " fill-rule="nonzero" fill="#ffffff" stroke="none" transform="matrix(1 0 0 1 105 67 )" />
    </g>
  </defs>
  <g transform="matrix(1 0 0 1 -105 -67 )">
    <use xlink:href="#widget61" filter="url(#filter60)" />
    <use xlink:href="#widget61" />
  </g>
</svg>