<?xml version="1.0" encoding="utf-8"?>
<svg version="1.1" xmlns:xlink="http://www.w3.org/1999/xlink" width="12px" height="12px" viewBox="25 129  12 12" xmlns="http://www.w3.org/2000/svg">
  <path d="M 31 129  C 34.36 129  37 131.64  37 135  C 37 138.36  34.36 141  31 141  C 27.64 141  25 138.36  25 135  C 25 131.64  27.64 129  31 129  Z " fill-rule="nonzero" fill="#ffffff" stroke="none" />
  <path d="M 31 129.5  C 34.08 129.5  36.5 131.92  36.5 135  C 36.5 138.08  34.08 140.5  31 140.5  C 27.92 140.5  25.5 138.08  25.5 135  C 25.5 131.92  27.92 129.5  31 129.5  Z " stroke-width="1" stroke="#797979" fill="none" />
  <path d="M 31 138  C 29.32 138  28 136.68  28 135  C 28 133.32  29.32 132  31 132  C 32.68 132  34 133.32  34 135  C 34 136.68  32.68 138  31 138  " fill-rule="nonzero" fill="#797979" stroke="none" />
</svg>