<?xml version="1.0" encoding="utf-8"?>
<svg version="1.1" xmlns:xlink="http://www.w3.org/1999/xlink" width="12px" height="12px" viewBox="25 172  12 12" xmlns="http://www.w3.org/2000/svg">
  <path d="M 31 172  C 34.36 172  37 174.64  37 178  C 37 181.36  34.36 184  31 184  C 27.64 184  25 181.36  25 178  C 25 174.64  27.64 172  31 172  Z " fill-rule="nonzero" fill="#ffffff" stroke="none" />
  <path d="M 31 172.5  C 34.08 172.5  36.5 174.92  36.5 178  C 36.5 181.08  34.08 183.5  31 183.5  C 27.92 183.5  25.5 181.08  25.5 178  C 25.5 174.92  27.92 172.5  31 172.5  Z " stroke-width="1" stroke="#797979" fill="none" />
  <path d="M 31 181  C 29.32 181  28 179.68  28 178  C 28 176.32  29.32 175  31 175  C 32.68 175  34 176.32  34 178  C 34 179.68  32.68 181  31 181  " fill-rule="nonzero" fill="#797979" stroke="none" />
</svg>