<?xml version="1.0" encoding="utf-8"?>
<svg version="1.1" xmlns:xlink="http://www.w3.org/1999/xlink" width="178px" height="10px" preserveAspectRatio="xMinYMid meet" viewBox="506 137.2  178 8" xmlns="http://www.w3.org/2000/svg">
  <path d="M 511.5 193  L 511.5 146.2  A 5 5 0 0 1 516.5 141.7 L 674 141.7  A 5 5 0 0 1 679.5 146.7 L 679.5 224  " stroke-width="1" stroke="#ff0000" fill="none" />
  <path d="M 511.5 188  A 3 3 0 0 0 508.5 191 A 3 3 0 0 0 511.5 194 A 3 3 0 0 0 514.5 191 A 3 3 0 0 0 511.5 188 Z M 673.2 223  L 679.5 229  L 685.8 223  L 673.2 223  Z " fill-rule="nonzero" fill="#ff0000" stroke="none" />
</svg>