<?xml version="1.0" encoding="utf-8"?>
<svg version="1.1" xmlns:xlink="http://www.w3.org/1999/xlink" width="210.6px" height="10px" preserveAspectRatio="xMinYMid meet" viewBox="691.4 416  210.6 8" xmlns="http://www.w3.org/2000/svg">
  <path d="M 696.5 514  L 696.5 504.2  A 0.199999999999989 0.199999999999989 0 0 1 696.7 504.5 A 0.199999999999932 0.199999999999932 0 0 0 696.9 504.3 L 696.9 425  A 5 5 0 0 1 701.9 420.5 L 897 420.5  " stroke-width="1" stroke="#ff0000" fill="none" />
  <path d="M 696.5 509  A 3 3 0 0 0 693.5 512 A 3 3 0 0 0 696.5 515 A 3 3 0 0 0 699.5 512 A 3 3 0 0 0 696.5 509 Z M 896 426.8  L 902 420.5  L 896 414.2  L 896 426.8  Z " fill-rule="nonzero" fill="#ff0000" stroke="none" />
</svg>