<?xml version="1.0" encoding="utf-8"?>
<svg version="1.1" xmlns:xlink="http://www.w3.org/1999/xlink" width="18px" height="18px" preserveAspectRatio="xMinYMid meet" viewBox="728 796  18 16" xmlns="http://www.w3.org/2000/svg">
  <path d="M 737.5 806  L 737.5 737  A 5 5 0 0 1 742.5 732.5 L 911 732.5  A 5 5 0 0 1 916.5 737.5 L 916.5 842  " stroke-width="1" stroke="#ff0000" fill="none" />
  <path d="M 737.5 801  A 3 3 0 0 0 734.5 804 A 3 3 0 0 0 737.5 807 A 3 3 0 0 0 740.5 804 A 3 3 0 0 0 737.5 801 Z M 910.2 841  L 916.5 847  L 922.8 841  L 910.2 841  Z " fill-rule="nonzero" fill="#ff0000" stroke="none" />
</svg>