<?xml version="1.0" encoding="utf-8"?>
<svg version="1.1" xmlns:xlink="http://www.w3.org/1999/xlink" width="10px" height="113px" preserveAspectRatio="xMidYMin meet" viewBox="1269 730  8 113" xmlns="http://www.w3.org/2000/svg">
  <path d="M 1100.5 808  L 1100.5 740  A 5 5 0 0 1 1105.5 735.5 L 1268 735.5  A 5 5 0 0 1 1273.5 740.5 L 1273.5 838  " stroke-width="1" stroke="#ff0000" fill="none" />
  <path d="M 1100.5 803  A 3 3 0 0 0 1097.5 806 A 3 3 0 0 0 1100.5 809 A 3 3 0 0 0 1103.5 806 A 3 3 0 0 0 1100.5 803 Z M 1267.2 837  L 1273.5 843  L 1279.8 837  L 1267.2 837  Z " fill-rule="nonzero" fill="#ff0000" stroke="none" />
</svg>