<?xml version="1.0" encoding="utf-8"?>
<svg version="1.1" xmlns:xlink="http://www.w3.org/1999/xlink" width="15px" height="15px" xmlns="http://www.w3.org/2000/svg">
  <g transform="matrix(1 0 0 1 -102 -407 )">
    <path d="M 109.5 408  C 113.14 408  116 410.86  116 414.5  C 116 418.14  113.14 421  109.5 421  C 105.86 421  103 418.14  103 414.5  C 103 410.86  105.86 408  109.5 408  Z " fill-rule="nonzero" fill="#ffffff" stroke="none" />
    <path d="M 109.5 408  C 113.14 408  116 410.86  116 414.5  C 116 418.14  113.14 421  109.5 421  C 105.86 421  103 418.14  103 414.5  C 103 410.86  105.86 408  109.5 408  Z " stroke-width="2" stroke="#1abc9c" fill="none" />
  </g>
</svg>