<?xml version="1.0" encoding="utf-8"?>
<svg version="1.1" xmlns:xlink="http://www.w3.org/1999/xlink" width="42px" height="72px" xmlns="http://www.w3.org/2000/svg">
  <g transform="matrix(1 0 0 1 -31 -46 )">
    <path d="M 41.2783505154639 4.32865731462925  C 41.7594501718213 4.80961923847694  42 5.36272545090179  42 5.98797595190381  C 42 6.61322645290581  41.7594501718213 7.16633266533066  41.2783505154639 7.64729458917836  L 12.9175257731959 36  L 41.2783505154639 64.3527054108216  C 41.7594501718213 64.8336673346693  42 65.3867735470942  42 66.0120240480962  C 42 66.6372745490982  38.1512027491409 62.7498073069215  37.6701030927835 63.2307692307692  L 37.6701030927835 71.2785571142285  C 37.1890034364261 71.7595190380761  36.6357388316151 72  36.0103092783505 72  C 35.3848797250859 72  34.8316151202749 71.7595190380761  34.3505154639175 71.2785571142285  L 0.721649484536083 37.6593186372745  C 0.240549828178693 37.1783567134268  0 36.625250501002  0 36  C 0 35.374749498998  0.240549828178693 34.8216432865731  0.721649484536083 34.3406813627255  L 34.3505154639175 0.721442885771545  C 34.8316151202749 0.240480961923843  35.3848797250859 0  36.0103092783505 0  C 36.6357388316151 0  37.1890034364261 0.240480961923843  37.6701030927835 0.721442885771545  L 41.2783505154639 4.32865731462925  Z " fill-rule="nonzero" fill="#333333" stroke="none" transform="matrix(1 0 0 1 31 46 )" />
  </g>
</svg>