<?xml version="1.0" encoding="utf-8"?>
<svg version="1.1" xmlns:xlink="http://www.w3.org/1999/xlink" width="24px" height="24px" xmlns="http://www.w3.org/2000/svg">
  <g transform="matrix(1 0 0 1 -376 -226 )">
    <path d="M 388 227  C 394.16 227  399 231.84  399 238  C 399 244.16  394.16 249  388 249  C 381.84 249  377 244.16  377 238  C 377 231.84  381.84 227  388 227  Z " fill-rule="nonzero" fill="#ff0000" stroke="none" />
    <path d="M 388 227  C 394.16 227  399 231.84  399 238  C 399 244.16  394.16 249  388 249  C 381.84 249  377 244.16  377 238  C 377 231.84  381.84 227  388 227  Z " stroke-width="2" stroke="#cccccc" fill="none" />
  </g>
</svg>