<?xml version="1.0" encoding="utf-8"?>
<svg version="1.1" xmlns:xlink="http://www.w3.org/1999/xlink" width="18px" height="11px" xmlns="http://www.w3.org/2000/svg">
  <g transform="matrix(1 0 0 1 -31 -88 )">
    <path d="M 2.00000000000002 2.2  L 15 2.2  L 15 8.8  L 2.00000000000002 8.8  L 2.00000000000002 2.2  Z M 16 9.625  L 16 7.15  L 17 7.15  L 17 3.85  L 16 3.85  L 16 1.375  C 16 1.29479166666667  15.9765625 1.22890625  15.9296875 1.17734375  C 15.8828125 1.12578125  15.8229166666667 1.1  15.75 1.1  L 1.25000000000003 1.1  C 1.17708333333332 1.1  1.1171875 1.12578125  1.07031249999997 1.17734375  C 1.02343749999998 1.22890625  0.999999999999969 1.29479166666667  0.999999999999969 1.375  L 0.999999999999969 9.625  C 0.999999999999969 9.70520833333333  1.02343749999998 9.77109375  1.07031249999997 9.82265625  C 1.1171875 9.87421875  1.17708333333332 9.9  1.25000000000003 9.9  L 15.75 9.9  C 15.8229166666667 9.9  15.8828125 9.87421875  15.9296875 9.82265625  C 15.9765625 9.77109375  16 9.70520833333333  16 9.625  Z M 17.70703125 3.072265625  C 17.90234375 3.287109375  18 3.54635416666667  18 3.85  L 18 7.15  C 18 7.45364583333333  17.90234375 7.712890625  17.70703125 7.927734375  C 17.51171875 8.142578125  17.2760416666667 8.25  17 8.25  L 17 9.625  C 17 10.003125  16.8776041666667 10.3268229166667  16.6328125 10.59609375  C 16.3880208333333 10.8653645833333  16.09375 11  15.75 11  L 1.25000000000003 11  C 0.906249999999996 11  0.611979166666655 10.8653645833333  0.367187499999969 10.59609375  C 0.122395833333323 10.3268229166667  0 10.003125  0 9.625  L 0 1.375  C 0 0.996875  0.122395833333323 0.673177083333332  0.367187499999969 0.403906249999999  C 0.611979166666655 0.134635416666666  0.906249999999996 0  1.25000000000003 0  L 15.75 0  C 16.09375 0  16.3880208333333 0.134635416666666  16.6328125 0.403906249999999  C 16.8776041666667 0.673177083333332  17 0.996875  17 1.375  L 17 2.75  C 17.2760416666667 2.75  17.51171875 2.857421875  17.70703125 3.072265625  Z " fill-rule="nonzero" fill="#999999" stroke="none" transform="matrix(1 0 0 1 31 88 )" />
  </g>
</svg>