<?xml version="1.0" encoding="utf-8"?>
<svg version="1.1" xmlns:xlink="http://www.w3.org/1999/xlink" width="18px" height="13px" xmlns="http://www.w3.org/2000/svg">
  <g transform="matrix(1 0 0 1 -254 -87 )">
    <path d="M 9.85234215885947 12.3150537634409  C 9.4063136456212 12.7716845878136  9.12219959266801 13  9 13  C 8.87780040733199 13  8.59368635437882 12.7716845878136  8.14765784114053 12.3150537634409  C 7.70162932790223 11.8584229390681  7.4786150712831 11.5679808841099  7.4786150712831 11.4437275985663  C 7.4786150712831 11.2449223416965  7.66955193482689 11.0771804062127  8.05142566191446 10.9405017921147  C 8.43329938900203 10.8038231780167  8.74949083503054 10.7354838709677  9 10.7354838709677  C 9.25050916496946 10.7354838709677  9.56670061099797 10.8038231780167  9.94857433808554 10.9405017921147  C 10.3304480651731 11.0771804062127  10.5213849287169 11.2449223416965  10.5213849287169 11.4437275985663  C 10.5213849287169 11.5679808841099  10.2983706720977 11.8584229390681  9.85234215885947 12.3150537634409  Z M 12.331466395112 9.77562724014337  C 11.8701629327902 10.2415770609319  11.5845213849287 10.4745519713262  11.4745417515275 10.4745519713262  C 11.4623217922607 10.4745519713262  11.3401221995927 10.3968936678614  11.1079429735234 10.2415770609319  C 10.8757637474542 10.0862604540024  10.5656822810591 9.93094384707288  10.1776985743381 9.77562724014337  C 9.78971486761708 9.62031063321386  9.3971486761711 9.5426523297491  9 9.5426523297491  C 8.60285132382892 9.5426523297491  8.21028513238289 9.62031063321386  7.82230142566191 9.77562724014337  C 7.43431771894094 9.93094384707288  7.12576374745419 10.0862604540024  6.89663951120162 10.2415770609319  C 6.66751527494908 10.3968936678614  6.54378818737271 10.4745519713262  6.52545824847251 10.4745519713262  C 6.41547861507129 10.4745519713262  6.12983706720979 10.2415770609319  5.66853360488799 9.77562724014337  C 5.20723014256618 9.30967741935484  4.97657841140528 9.02078853046595  4.97657841140528 8.9089605734767  C 4.97657841140528 8.82819593787336  5.0071283095723 8.75675029868578  5.06822810590631 8.69462365591398  C 5.54480651731161 8.21624850657109  6.14358452138494 7.84038231780167  6.86456211812627 7.56702508960574  C 7.58553971486763 7.2936678614098  8.29735234215886 7.15698924731183  9 7.15698924731183  C 9.70264765784111 7.15698924731183  10.4144602851324 7.2936678614098  11.1354378818737 7.56702508960574  C 11.8564154786151 7.84038231780167  12.4551934826884 8.21624850657109  12.9317718940937 8.69462365591398  C 12.9928716904277 8.75675029868578  13.0234215885947 8.82819593787336  13.0234215885947 8.9089605734767  C 13.0234215885947 9.02078853046595  12.7927698574338 9.30967741935484  12.331466395112 9.77562724014337  Z M 14.8197556008147 7.24086021505376  C 14.3615071283096 7.70681003584229  14.0804480651731 7.93978494623656  13.9765784114053 7.93978494623656  C 13.9093686354379 7.93978494623656  13.8391038696537 7.91493428912784  13.7657841140529 7.8652329749104  C 12.9348268839104 7.21290322580645  12.1649694501019 6.73297491039427  11.4562118126273 6.42544802867384  C 10.7474541751528 6.1179211469534  9.92871690427699 5.96415770609319  9 5.96415770609319  C 8.48065173116091 5.96415770609319  7.95977596741344 6.03249701314218  7.43737270875763 6.16917562724014  C 6.91496945010184 6.30585424133811  6.45977596741345 6.47048984468339  6.07179226069247 6.66308243727599  C 5.68380855397149 6.85567502986858  5.33706720977596 7.04826762246117  5.03156822810591 7.24086021505376  C 4.72606924643585 7.43345280764636  4.48472505091649 7.59808841099164  4.30753564154786 7.73476702508961  C 4.13034623217922 7.87144563918757  4.03564154786151 7.93978494623656  4.02342158859472 7.93978494623656  C 3.91955193482688 7.93978494623656  3.63849287169043 7.70681003584229  3.18024439918534 7.24086021505376  C 2.72199592668024 6.77491039426523  2.49287169042769 6.48602150537635  2.49287169042769 6.3741935483871  C 2.49287169042769 6.29964157706093  2.52342158859471 6.23130227001195  2.58452138492871 6.16917562724014  C 3.39103869653769 5.34910394265233  4.36863543788186 4.71230585424134  5.51731160896129 4.25878136200717  C 6.66598778004074 3.805256869773  7.82688391038696 3.57849462365592  9 3.57849462365592  C 10.1731160896131 3.57849462365592  11.3340122199593 3.805256869773  12.4826883910387 4.25878136200717  C 13.6313645621181 4.71230585424134  14.6089613034623 5.34910394265233  15.4154786150713 6.16917562724014  C 15.4765784114053 6.23130227001195  15.5071283095723 6.29964157706093  15.5071283095723 6.3741935483871  C 15.5071283095723 6.48602150537635  15.2780040733197 6.77491039426523  14.8197556008147 7.24086021505376  Z M 17.3080448065173 4.71541218637993  C 16.8467413441955 5.18136200716846  16.5641547861507 5.41433691756272  16.4602851323829 5.41433691756272  C 16.3930753564155 5.41433691756272  16.3258655804481 5.38637992831541  16.2586558044807 5.33046594982079  C 15.1649694501018 4.35507765830346  14.0300407331976 3.62043010752688  12.8538696537678 3.12652329749104  C 11.6776985743381 2.6326164874552  10.3930753564155 2.38566308243728  9 2.38566308243728  C 7.60692464358452 2.38566308243728  6.32230142566191 2.6326164874552  5.14613034623218 3.12652329749104  C 3.96995926680245 3.62043010752688  2.83503054989817 4.35507765830346  1.74134419551934 5.33046594982079  C 1.67413441955193 5.38637992831541  1.60692464358451 5.41433691756272  1.5397148676171 5.41433691756272  C 1.43584521384929 5.41433691756272  1.15325865580448 5.18136200716846  0.691955193482678 4.71541218637993  C 0.2306517311609 4.2494623655914  0 3.96057347670251  0 3.84874551971326  C 0 3.76798088410992  0.030549898167015 3.69653524492234  0.0916496945010217 3.63440860215054  C 1.23421588594704 2.47885304659498  2.59368635437881 1.584229390681  4.17006109979634 0.950537634408604  C 5.74643584521386 0.3168458781362  7.35641547861506 0  9 0  C 10.6435845213849 0  12.2535641547861 0.3168458781362  13.8299389002037 0.950537634408604  C 15.4063136456212 1.584229390681  16.765784114053 2.47885304659498  17.908350305499 3.63440860215054  C 17.969450101833 3.69653524492234  18 3.76798088410992  18 3.84874551971326  C 18 3.96057347670251  17.7693482688391 4.2494623655914  17.3080448065173 4.71541218637993  Z " fill-rule="nonzero" fill="#999999" stroke="none" transform="matrix(1 0 0 1 254 87 )" />
  </g>
</svg>