<?xml version="1.0" encoding="utf-8"?>
<svg version="1.1" xmlns:xlink="http://www.w3.org/1999/xlink" width="18px" height="18px" xmlns="http://www.w3.org/2000/svg">
  <g transform="matrix(1 0 0 1 -277 -44 )">
    <path d="M 17.595703125 10.6044242029928  C 17.669921875 10.6785946649317  17.70703125 10.7664281067014  17.70703125 10.8679245283019  C 17.70703125 10.9069616135329  17.703125 10.9342875731945  17.6953125 10.9499024072869  C 17.1953125 13.0422901756669  16.1484375 14.7384515289525  14.5546875 16.0383864671438  C 12.9609375 17.3383214053351  11.09375 17.9882888744307  8.953125 17.9882888744307  C 7.8125 17.9882888744307  6.708984375 17.7735849056604  5.642578125 17.3441769681197  C 4.576171875 16.914769030579  3.625 16.3018867924528  2.7890625 15.5055302537411  L 1.27734375 17.0162654521796  C 1.12890625 17.1646063760573  0.953125 17.2387768379961  0.75 17.2387768379961  C 0.546875 17.2387768379961  0.37109375 17.1646063760573  0.22265625 17.0162654521796  C 0.07421875 16.8679245283019  0 16.6922576447625  0 16.4892648015615  L 0 11.2426805465192  C 0 11.0396877033182  0.07421875 10.8640208197788  0.22265625 10.7156798959011  C 0.37109375 10.5673389720234  0.546875 10.4931685100846  0.75 10.4931685100846  L 6 10.4931685100846  C 6.203125 10.4931685100846  6.37890625 10.5673389720234  6.52734375 10.7156798959011  C 6.67578125 10.8640208197788  6.75 11.0396877033182  6.75 11.2426805465192  C 6.75 11.4456733897202  6.67578125 11.6213402732596  6.52734375 11.7696811971373  L 4.921875 13.3741054001301  C 5.4765625 13.8893949251789  6.10546875 14.2875731945348  6.80859375 14.5686402081978  C 7.51171875 14.8497072218608  8.2421875 14.9902407286923  9 14.9902407286923  C 10.046875 14.9902407286923  11.0234375 14.736499674691  11.9296875 14.2290175666884  C 12.8359375 13.7215354586858  13.5625 13.0227716330514  14.109375 12.1327260897853  C 14.1953125 12  14.40234375 11.5432661027977  14.73046875 10.7625243981783  C 14.79296875 10.5829538061158  14.91015625 10.4931685100846  15.08203125 10.4931685100846  L 17.33203125 10.4931685100846  C 17.43359375 10.4931685100846  17.521484375 10.530253741054  17.595703125 10.6044242029928  Z M 17.77734375 0.972023422251139  C 17.92578125 1.12036434612882  18 1.29603122966818  18 1.49902407286923  L 18 6.74560832791152  C 18 6.94860117111256  17.92578125 7.12426805465192  17.77734375 7.2726089785296  C 17.62890625 7.42094990240729  17.453125 7.49512036434613  17.25 7.49512036434613  L 12 7.49512036434613  C 11.796875 7.49512036434613  11.62109375 7.42094990240729  11.47265625 7.2726089785296  C 11.32421875 7.12426805465192  11.25 6.94860117111256  11.25 6.74560832791152  C 11.25 6.54261548471047  11.32421875 6.36694860117111  11.47265625 6.21860767729343  L 13.08984375 4.6024723487313  C 11.93359375 3.53285621340273  10.5703125 2.99804814573845  9 2.99804814573845  C 7.953125 2.99804814573845  6.9765625 3.25178919973975  6.0703125 3.75927130774236  C 5.1640625 4.26675341574496  4.4375 4.96551724137931  3.890625 5.85556278464541  C 3.8046875 5.98828887443071  3.59765625 6.44502277163305  3.26953125 7.22576447625244  C 3.20703125 7.4053350683149  3.08984375 7.49512036434613  2.91796875 7.49512036434613  L 0.5859375 7.49512036434613  C 0.484375 7.49512036434613  0.396484375 7.45803513337671  0.322265625 7.38386467143787  C 0.248046875 7.30969420949902  0.2109375 7.22186076772934  0.2109375 7.12036434612882  L 0.2109375 7.03838646714379  C 0.71875 4.94599869876382  1.7734375 3.24983734547821  3.375 1.94990240728692  C 4.9765625 0.649967469095641  6.8515625 0  9 0  C 10.140625 0  11.25 0.216655823031881  12.328125 0.649967469095641  C 13.40625 1.0832791151594  14.36328125 1.69420949902407  15.19921875 2.48275862068966  L 16.72265625 0.972023422251139  C 16.87109375 0.823682498373455  17.046875 0.749512036434613  17.25 0.749512036434613  C 17.453125 0.749512036434613  17.62890625 0.823682498373455  17.77734375 0.972023422251139  Z " fill-rule="nonzero" fill="#333333" stroke="none" transform="matrix(1 0 0 1 277 44 )" />
  </g>
</svg>