<?xml version="1.0" encoding="utf-8"?>
<svg version="1.1" xmlns:xlink="http://www.w3.org/1999/xlink" width="14px" height="22px" xmlns="http://www.w3.org/2000/svg">
  <g transform="matrix(1 0 0 1 -349 -474 )">
    <path d="M 13.4166666666667 11  C 13.4166666666667 10.725  13.325 10.45  13.1416666666667 10.2666666666667  L 2.14166666666667 0.275000000000001  C 1.775 -0.0916666666666662  1.225 -0.0916666666666662  0.858333333333334 0.275000000000001  C 0.491666666666667 0.641666666666668  0.491666666666667 1.19166666666667  0.858333333333334 1.55833333333333  L 11.2166666666667 11  L 0.858333333333334 20.4416666666667  C 0.491666666666667 20.8083333333333  0.491666666666667 21.3583333333333  0.858333333333334 21.725  C 1.225 22.0916666666667  1.775 22.0916666666667  2.14166666666667 21.725  L 13.1416666666667 11.7333333333333  C 13.325 11.55  13.4166666666667 11.275  13.4166666666667 11  Z " fill-rule="nonzero" fill="#000000" stroke="none" transform="matrix(1 0 0 1 349 474 )" />
  </g>
</svg>