<?xml version="1.0" encoding="utf-8"?>
<svg version="1.1" xmlns:xlink="http://www.w3.org/1999/xlink" width="41px" height="35px" xmlns="http://www.w3.org/2000/svg">
  <g transform="matrix(1 0 0 1 -41 -61 )">
    <path d="M 30.5901537698413 27.7377653301887  C 30.5754588293651 25.3176334021226  29.1108630952381 23.2538399174528  27.0339781746032 22.3283497936321  C 24.9815848214286 21.5513340212264  22.8214285714286 20.9772331957547  20.5877976190476 20.6258438974057  C 20.690662202381 20.6258438974057  20.7984250992063 20.6307930424528  20.8865947420635 20.6505896226415  C 20.3526785714286 20.5516067216981  19.9510168650794 20.0715396521226  19.9510168650794 19.4974388266509  C 19.9510168650794 19.2054392688679  20.0538814484127 18.9381854363208  20.230220734127 18.7352704893868  C 20.2204241071429 18.7501179245283  20.2008308531746 18.7550670695755  20.1861359126984 18.7600162146226  C 20.773933531746 18.1215765035377  21.307849702381 17.3891030365566  21.7584945436508 16.5873415389151  C 22.5030381944445 16.4339180424528  23.3063616071429 15.8301223466981  23.8402777777778 14.9095813679245  C 24.6484995039683 13.523820754717  24.5407366071429 11.9648400648585  23.6149553571429 11.425383254717  C 23.5561755952381 11.3907392393868  23.4924975198413 11.3758918042453  23.4239211309524 11.3511460790094  C 23.4288194444445 11.3115529186321  23.4239211309524 11.2769089033019  23.4288194444445 11.2373157429245  L 23.4875992063492 11.2373157429245  L 23.4875992063492 7.66403301886793  L 23.4582093253968 7.66403301886793  C 23.472904265873 7.52050781250001  23.4875992063492 7.37203346108492  23.4875992063492 7.22355910966982  C 23.4875992063492 4.52627505896228  21.3421378968254 2.33875294811322  18.6823536706349 2.29915978773586  C 17.4920634920635 1.18065300707548  15.9050099206349 0.48777270047171  14.1563120039683 0.48777270047171  C 10.4776785714286 0.48777270047171  7.49460565476191 3.49685288915095  7.49460565476191 7.21860996462265  C 7.49460565476191 7.36708431603775  7.5093005952381 7.52050781250001  7.51909722222223 7.66898216391511  L 7.49460565476191 7.66898216391511  L 7.49460565476191 11.2422648879717  L 7.55338541666668 11.2422648879717  C 7.55828373015874 11.2818580483491  7.55338541666668 11.3165020636793  7.55828373015874 11.3560952240566  C 7.49460565476191 11.3808409492925  7.43092757936509 11.395688384434  7.36724950396826 11.4303323997642  C 6.4365699404762 11.9648400648585  6.33860367063493 13.523820754717  7.14192708333334 14.9145305129717  C 7.67584325396826 15.8350714917453  8.46937003968255 16.4388671875  9.22371031746033 16.5922906839623  C 9.67435515873017 17.3891030365566  10.203373015873 18.1314747936321  10.7960689484127 18.7649653596698  C 10.7813740079365 18.7550670695755  10.7617807539683 18.7501179245283  10.7519841269841 18.740219634434  C 10.9283234126984 18.9480837264151  11.0311879960318 19.2103884139151  11.0311879960318 19.5023879716981  C 11.0311879960318 20.0764887971698  10.6295262896826 20.5516067216981  10.0956101190476 20.6555387676887  C 10.1886780753968 20.6357421875  10.2915426587302 20.6307930424528  10.3993055555556 20.6307930424528  C 8.17547123015874 20.9772331957547  6.0202132936508 21.5513340212264  3.97271825396826 22.3234006485849  C 1.87624007936508 23.2439416273585  0.406746031746032 25.3126842570755  0.406746031746032 27.7377653301887  L 0.406746031746032 28.5197302476415  C 0.406746031746032 30.311320754717  1.60683283730159 31.8059625589623  3.23797123015873 32.3008770636792  C 7.18111359126984 33.1917231721698  11.281001984127 33.6668410966981  15.4984499007937 33.6668410966981  C 19.7061011904762 33.6668410966981  23.8010912698413 33.1917231721698  27.7393353174603 32.3008770636792  C 29.3802703373016 31.8158608490566  30.5901537698413 30.3162698997641  30.5901537698413 28.5197302476415  L 30.5901537698413 27.7377653301887  Z M 23.3455481150794 18.1809662441038  L 23.3406498015873 18.1413730837264  C 23.4875992063492 18.3244914504717  23.5855654761905 18.5571012676887  23.5855654761905 18.8194059551887  C 23.5855654761905 19.0272700471698  23.5218874007937 19.2103884139151  23.4141245039683 19.3737102004717  C 27.0878596230159 20.2497088738208  28.6945064484127 21.0861143867925  28.3859126984127 20.9623857606132  C 30.7126116071429 22.0709942511793  32.34375 24.5505159198113  32.34375 27.4507149174528  L 32.34375 28.3960016214623  C 32.34375 29.2472545695755  32.1282242063492 30.0341686320755  31.7657490079365 30.7171506485849  C 33.578125 30.5191848466981  35.356212797619 30.2172869988208  37.1000124007937 29.8114571049528  C 38.4519469246032 29.3957289209906  39.44140625 28.1089512087264  39.44140625 26.5697670990566  L 39.44140625 25.8966833726415  C 39.44140625 23.8229915978774  38.2364211309524 22.0511976709906  36.5269097222222 21.2593344634434  C 34.8076016865079 20.5813015919811  33.0001240079365 20.0863870872642  31.1338665674603 19.7844892393868  C 31.2465277777778 19.7844892393868  31.574714781746 19.8587264150943  31.6775793650794 19.878522995283  C 31.2122395833333 19.789438384434  30.644035218254 19.2895747346698  30.644035218254 18.7847619398585  C 30.644035218254 18.5274063974057  30.8840525793651 17.8741192511793  31.035900297619 17.6959500294811  C 30.9722222222222 17.7701872051887  30.6783234126984 18.1908645341981  30.4774925595238 18.1611696639151  C 33.1519717261905 17.7305940448113  35.0035342261905 16.8100530660377  35.0035342261905 15.7360885908019  C 35.0035342261905 15.5133770636793  34.9251612103175 15.3055129716981  34.7733134920635 15.1025980247642  C 34.7929067460317 15.12734375  34.8222966269841 15.1421911851415  34.8369915674603 15.1768352004717  C 34.3765500992063 14.2958873820755  34.116939484127 13.2961600825472  34.116939484127 12.2370430424528  L 34.116939484127 11.2571123231132  C 34.116939484127 7.29779628537736  30.9379340277778 4.08580114976415  27.019283234127 4.08580114976415  C 26.3041294642857 4.08580114976415  25.6232638888889 4.20458063089623  24.9717881944444 4.40254643278302  C 25.1579241071429 5.01624041863207  25.2558903769841 5.66952756485849  25.2558903769841 6.34261129127358  C 25.2558903769841 6.49108564268868  25.2362971230159 6.63955999410377  25.2265004960317 6.7830852004717  L 25.2558903769841 6.7830852004717  L 25.2558903769841 10.3019273290094  C 26.4608754960317 11.5540610259434  26.4314856150794 13.9791420990566  25.0403645833333 16.1765625  C 24.550533234127 16.9486291273585  23.9921254960317 17.6712043042453  23.3455481150794 18.1809662441038  Z " fill-rule="nonzero" fill="#555555" stroke="none" transform="matrix(1 0 0 1 41 61 )" />
  </g>
</svg>