<?xml version="1.0" encoding="utf-8"?>
<svg version="1.1" xmlns:xlink="http://www.w3.org/1999/xlink" width="30px" height="30px" xmlns="http://www.w3.org/2000/svg">
  <g transform="matrix(1 0 0 1 -213 -59 )">
    <path d="M 0.0131146784481055 15.0110215041036  C 0.0131146784481055 23.2730207334604  6.73784106971999 29.9950999582319  15.003690700675 29.9950999582319  C 18.7927265080109 29.9977471247323  22.4412227186185 28.5608253628991  25.2103833718256 25.9745587240005  L 27.8758238781857 28.6387959952628  L 28.6377221252345 27.8771384445187  L 25.9725222535727 25.2129011732564  C 28.5592701618678 22.4456656592421  29.9971545241005 18.7986134416434  29.9945073576002 15.0110215041036  C 29.9945073576002 6.74878164004854  23.2697809663283 0.0269429883688859  15.003690700675 0.0269429883688859  C 6.73808170441827 0.0269429883688859  0.0131146784481055 6.74878164004854  0.0131146784481055 15.0110215041036  Z M 2.12770712156608 15.0112621388019  C 2.12770712156608 7.91473135860458  7.90403148458073 2.14081346578559  15.003690700675 2.14081346578559  C 22.103590613074 2.14081346578559  27.8796742797839 7.91449066229987  27.8796742797839 15.0110215041036  C 27.8796742797839 22.1077929189992  22.103590613074 27.8814701155135  15.003690700675 27.8814701155135  C 7.90403148458073 27.8814701155135  2.12770712156608 22.1080336153039  2.12770712156608 15.0112621388019  Z " fill-rule="nonzero" fill="#555555" stroke="none" transform="matrix(1 0 0 1 213 59 )" />
  </g>
</svg>