<?xml version="1.0" encoding="utf-8"?>
<svg version="1.1" xmlns:xlink="http://www.w3.org/1999/xlink" width="8px" height="8px" xmlns="http://www.w3.org/2000/svg">
  <g transform="matrix(1 0 0 1 -225 -69 )">
    <path d="M 0.0294443805631455 7.54202826562037  C 0.043588749174219 7.77649308929433  0.224353262952226 7.96318027702616  0.449813975747707 7.97438736562978  C 0.660847378969847 7.97438736562978  0.843309321264512 7.74346155898799  0.843309321264512 7.51194594134106  L 0.843309321264512 3.57942432637087  C 0.843309321264512 3.21460288998765  1.12676170638276 2.91908862574671  1.4766924718932 2.91908862574671  C 1.82634036886035 2.91908862574671  2.10979282639758 3.21460288998765  2.10979282639758 3.57942432637087  L 2.10979282639758 5.94442293030421  C 2.10979282639758 5.96772189951981  2.11092437298971 5.98246815615688  2.11177297861957 6.00635701187827  L 2.11912806767788 6.37117844826149  L 5.90952628275905 6.37117844826149  L 5.90952628275905 3.57942432637087  C 5.90952628275905 3.21460288998765  6.19354447738286 2.91908862574671  6.54290943338774 2.91908862574671  C 6.89284027131716 2.91908862574671  7.1762926564354 3.21460288998765  7.1762926564354 3.57942432637087  L 7.1762926564354 5.94943662585055  C 7.1762926564354 5.9839427591704  7.18308193598816 6.01844889249025  7.18195038939604 6.05413472332105  L 7.1762926564354 6.25615797869511  L 7.1762926564354 7.54084856810943  C 7.18760812235667 7.76676060370423  7.36639248391269 7.9440101358479  7.58336656105773 7.9440101358479  C 7.80034063820277 7.9440101358479  7.97940786830208 7.76676060370423  7.99044046568006 7.54084856810943  L 7.99044046568006 1.6223061557204  C 7.99044046568006 1.60018680851511  7.97346726679816 1.57747765030466  7.97573035998241 1.55565320860194  C 8.04277447746117 0.813918379722873  7.5267892314514 0.153582754599348  6.8167437086824 0.0724785318470209  C 6.77402787914385 0.0680546473058325  6.72141092640047 0.0515388821526655  6.67841215589965 0.0515388821526655  L 5.95620256157953 0.0515388821526655  L 4.44275895840058 1.5468055150202  C 4.43794990348878 1.55122939956139  4.43314084857699 1.56892478672486  4.42804892512191 1.57305376576347  C 4.42041096752031 1.58042685633169  4.41277300991871 1.58750504139734  4.40485218377382 1.5942883209604  C 4.39664848908565 1.6007766950209  4.38731324780535 1.60814978558911  4.37826087506834 1.61522797065476  C 4.36920850233132 1.62171626921461  4.36185341327301 1.62731985126674  4.35336685004155 1.63292343331887  C 4.34488021439111 1.63882192087357  4.33441342651868 1.64501531393085  4.3250781128194 1.65091380148555  C 4.31546000299581 1.65681228904026  4.30810498635648 1.66094119257823  4.29961835070604 1.66565998262199  C 4.29084884651231 1.67008386716318  4.27953338059104 1.67598235471788  4.26906659271862 1.68070114476164  C 4.26058002948716 1.68483012380026  4.25209339383672 1.68866412183565  4.24360675818628 1.69220321436847  C 4.23313997031385 1.69662709890966  4.22210744535485 1.70075600244763  4.21164058506344 1.70429509498046  C 4.20230534378315 1.70724437650813  4.19466738618154 1.71019358253516  4.18561501344453 1.71284788305962  C 4.17486535702882 1.71609207008986  4.16383275965084 1.71904135161753  4.15251729372957 1.72169565214199  C 4.14346492099255 1.72376014166129  4.13526122630438 1.7258246311806  4.12649172211065 1.72759413969669  C 4.11517625618939 1.729658629216  4.10414365881141 1.73172304323466  4.09282819289014 1.73319772174882  C 4.08349295160984 1.73408243825655  4.07472344741611 1.73526221126813  4.0656710746791 1.73644183327843  C 4.0546385497201 1.73703171978422  4.04332308379883 1.73791651179258  4.03229048642085 1.73821141729516  C 4.02323811368384 1.73821141729516  4.01390287240354 1.73909620930352  4.00456755870426 1.73821141729516  C 3.99381790228854 1.73821141729516  3.98278530491056 1.73821141729516  3.97231851703814 1.73703171978422  C 3.96128591966016 1.73614692777585  3.95308222497198 1.73614692777585  3.94374698369168 1.73496723026491  C 3.93412880144911 1.73378753275397  3.92253046698456 1.73231292974045  3.91234654765542 1.73054342122436  C 3.90159681882073 1.72906874271021  3.892827314627 1.72729923419412  3.88320920480341 1.72523474467481  C 3.87359109497983 1.7231702551555  3.86284136614513 1.72051595463105  3.85237457827271 1.71786165410659  C 3.84219065894357 1.71491237257892  3.83342115474984 1.71284788305962  3.82408591346954 1.70960377153001  C 3.81475067218924 1.70665449000234  3.80371807481126 1.70282049196694  3.7938170240254 1.69928139943412  C 3.78363310469626 1.69515249589614  3.77571227855138 1.6919083088659  3.76665990581436 1.6880743108305  C 3.75732466453406 1.68424023729446  3.74657493569937 1.67863673074298  3.73667388491351 1.67421284620179  C 3.72818732168206 1.6697889616606  3.7197007584506 1.66536507711942  3.71121412280016 1.66064628707565  C 3.70074733492773 1.65504278052417  3.69084628414187 1.64884931196625  3.68151104286157 1.64236101340639  C 3.67330727575442 1.63764222336263  3.6656693905718 1.6320386413105  3.65774856442691 1.62673004026159  C 3.64784751364106 1.61965185519595  3.63822940381747 1.61139389711872  3.62889409011819 1.6040208065505  C 3.62125613251659 1.5981223189958  3.61390111587726 1.59074922842758  3.60682896778121 1.5845558353703  C 3.59805946358748 1.5765928582963  3.58872422230719 1.56479588318689  3.57967184957017 1.55624309510773  C 3.57571140028824 1.55270400257491  3.57146808246301 1.54179181947387  3.56750770560006 1.53795774593783  L 2.11545055935822 0.0515388821526655  L 1.340906880838 0.0515388821526655  C 0.592954583442242 0.111998436213851  0.0223722324671001 0.773808664350891  0.0438716177175061 1.55506339759679  C 0.0461347109017588 1.57747765030466  0.0294443805631455 1.59959692200932  0.0294443805631455 1.6223061557204  L 0.0294443805631455 7.54202826562037  Z " fill-rule="nonzero" fill="#555555" stroke="none" transform="matrix(1 0 0 1 225 69 )" />
  </g>
</svg>