<?xml version="1.0" encoding="utf-8"?>
<svg version="1.1" xmlns:xlink="http://www.w3.org/1999/xlink" width="3px" height="9px" xmlns="http://www.w3.org/2000/svg">
  <g transform="matrix(1 0 0 1 -227 -75 )">
    <path d="M 0.026953134734739 0.027570059874242  L 0.251598927747226 8.58493176129744  C 0.258830986401251 8.81274160889929  0.424264328112125 8.99453184954121  0.627214003018997 8.99682010182758  C 0.726880796880691 8.99682010182758  0.822253599308911 8.95207173890578  0.892540125960386 8.8724908597545  C 0.96282671046833 8.79316421639314  1.00215100047137 8.68586981366139  1.00192501310255 8.57374467056699  L 1.00192501310255 1.07356307571543  C 1.00192501310255 0.759053291224729  1.22860486600383 0.50429269250071  1.50771714414681 0.50429269250071  C 1.78728139702743 0.50429269250071  2.01373526255989 0.759053291224729  2.01373526255989 1.07356307571543  L 2.01373526255989 8.57374467056698  C 2.01441322466635 8.8063852585315  2.18120260630309 8.99580309357935  2.38844627264344 8.99809134586572  C 2.59546395161497 8.99987112657224  2.76541732998461 8.81401285293743  2.76925934668044 8.58137219988439  L 2.99593919958173 0.027570059874242  L 0.026953134734739 0.027570059874242  Z " fill-rule="nonzero" fill="#555555" stroke="none" transform="matrix(1 0 0 1 227 75 )" />
  </g>
</svg>