<?xml version="1.0" encoding="utf-8"?>
<svg version="1.1" xmlns:xlink="http://www.w3.org/1999/xlink" width="35px" height="35px" xmlns="http://www.w3.org/2000/svg">
  <g transform="matrix(1 0 0 1 -300 -61 )">
    <path d="M 23.8504 28.6975111111111  L 23.8690666666667 35  L 0.0777777777777775 35  L 0.0777777777777775 28.6975111111111  C 0.0777777777777775 25.7556444444444  2.21697777777778 23.1933333333333  5.20737777777778 22.5673777777778  L 7.40257777777778 22.1119111111111  L 11.9634666666667 31.2212444444444  L 16.5256 22.1119111111111  L 18.7208 22.5673777777778  C 21.7112 23.1933333333333  23.8504 25.7369777777778  23.8504 28.6975111111111  Z M 34.9222222222222 7.61164444444444  C 34.9222222222222 3.43777777777778  31.0047111111111 0.0777777777777775  26.1775111111111 0.0777777777777789  C 21.3515555555556 0.0777777777777789  17.4340444444444 3.45644444444445  17.4340444444444 7.61164444444444  C 17.4340444444444 9.92755555555556  18.6448888888889 11.9958222222222  20.5576 13.3821333333333  L 21.5407111111111 16.3613333333333  C 21.6166222222222 16.6077333333333  21.8057777777778 16.8168  22.0509333333333 16.9113777777778  C 22.2985777777778 17.0059555555556  22.5624 17.0059555555556  22.7901333333333 16.8740444444444  L 26.1775111111111 15.1467555555556  C 31.0047111111111 15.1467555555556  34.9222222222222 11.7680888888889  34.9222222222222 7.61164444444444  Z M 27.0112888888889 11.2752888888889  C 26.9913777777778 12.8681777777778  24.6642666666667 12.8681777777778  24.6642666666667 11.2752888888889  C 24.6642666666667 9.69982222222222  26.9727111111111 9.64257777777778  27.0112888888889 11.2752888888889  Z M 26.7449777777778 9.45342222222222  L 26.7462222222222 9.45342222222222  L 25.004 9.45342222222222  C 24.9666666666667 8.54248888888889  25.004 7.97253333333333  25.7618666666667 7.04293333333333  C 27.692 4.74693333333333  25.3636444444444 4.5192  24.2660444444445 5.27831111111111  L 23.8118222222222 3.83475555555556  C 25.3636444444444 2.92506666666667  28.5245333333333 3.00097777777778  28.5245333333333 5.35297777777778  C 28.5245333333333 7.36524444444444  26.7449777777778 7.17608888888889  26.7449777777778 9.45342222222222  Z " fill-rule="nonzero" fill="#555555" stroke="none" transform="matrix(1 0 0 1 300 61 )" />
  </g>
</svg>