<?xml version="1.0" encoding="utf-8"?>
<svg version="1.1" xmlns:xlink="http://www.w3.org/1999/xlink" width="12px" height="14px" xmlns="http://www.w3.org/2000/svg">
  <g transform="matrix(1 0 0 1 -306 -69 )">
    <path d="M 1.017 5.32635675675676  L 1.017 5.32756756756757  C 1.2126 2.27874594594594  2.8338 0.266378378378379  5.9886 0.266378378378379  C 9.2322 0.266378378378379  10.6566 2.58023783783784  10.8174 5.32756756756757  C 11.637 5.32756756756757  11.691 6.45604324324324  11.5842 7.32056216216216  C 11.4762 8.12938378378378  10.8534 9.12709189189189  10.2654 9.44674594594595  C 8.4474 15.2780108108108  3.369 15.2973837837838  1.551 9.44674594594595  C 0.945000000000004 9.10771891891892  0.339000000000004 8.12938378378379  0.232200000000002 7.32056216216217  C 0.143400000000002 6.45604324324325  0.196200000000004 5.32635675675676  1.017 5.32635675675676  Z " fill-rule="nonzero" fill="#555555" stroke="none" transform="matrix(1 0 0 1 306 69 )" />
  </g>
</svg>