<?xml version="1.0" encoding="utf-8"?>
<svg version="1.1" xmlns:xlink="http://www.w3.org/1999/xlink" width="24px" height="24px" xmlns="http://www.w3.org/2000/svg">
  <g transform="matrix(1 0 0 1 -216 -62 )">
    <path d="M 0.0110732208061282 12.0112030347594  C 0.0110732208061282 18.6206665217179  5.39086337793682 23.9984997688598  12.0037514886861 23.9984997688598  C 18.6168841975287 23.9984997688598  23.9966743546594 18.6211557179045  23.9966743546594 12.0114476328528  C 23.9966743546594 5.40198414589431  18.6168841975287 0.0241508987523556  12.0037514886861 0.0241508987523556  C 5.39086337793682 0.0241508987523556  0.0110732208061282 5.40149494970769  0.0110732208061282 12.0112030347594  Z M 7.49454161582885 12.9377999144263  L 7.49454161582885 8.05359718063264  C 7.49454161582885 7.98926374909764  7.50139086341055 7.91905958759643  7.50139086341055 7.85497081677586  C 7.51729074141376 6.63336972499637  8.50308411692934 5.64659789448641  9.72419594990109 5.62996415958215  L 10.6170361635728 5.62996415958215  C 10.6698727332687 5.63412257765293  10.7222200441568 5.6451301806843  10.7721212488696 5.66298703129736  C 10.1889620722261 5.26769121357253  9.83989829995099 4.60870174355487  9.8416105492253 3.90421414760963  L 9.8416105492253 3.26528303628707  C 9.8416105492253 2.07719407503054  10.8046549243982 1.11390516438542  11.9927438856548 1.11390516438542  C 13.1810774450046 1.11390516438542  14.1441217575564 2.07719407503054  14.1441217575564 3.26528303628707  L 14.1441217575564 3.90421414760963  C 14.1372726352169 5.09010160078411  13.1737390638574 6.04800904027076  11.9876069499685 6.04751984408414  C 11.6473492726427 6.04751984408414  11.311494611481 5.96753113263924  11.0074397063258 5.81440295733115  L 12.0384866096756 6.81438396157564  L 13.1238378591446 5.78969692175751  C 13.2241294647568 5.6908729673263  13.357933200892 5.63412257765293  13.4985861219877 5.6294749007744  L 14.3398127564301 5.6294749007744  C 14.4136861398154 5.6294749007744  14.504193195484 5.64537484139873  14.577821980776 5.65246862445262  C 15.778386258866 5.77477549874867  16.6474988919585 6.85474521443805  16.5694670905023 8.05359718063264  L 16.5694670905023 12.9368214594319  C 16.5611502543607 13.7288807460626  15.916348413072 14.3665888042975  15.1242890638202 14.3663442062041  C 14.9811900365491 14.3663442062041  14.8390694642724 14.346285847509  14.7018411043464 14.3066584515477  L 14.4929409943593 21.334411417288  C 14.4738611532797 21.9068075889935  14.1314019052507 22.4182949529549  13.6096407325379 22.6538580085044  C 13.0878796224463 22.8894210014327  12.4775683040537 22.8079646388068  12.0355513073137 22.4437347828085  C 11.5952465598479 22.8079646388068  10.9859136964497 22.8903995190482  10.4646417825446 22.6563041146797  C 9.94288067245299 22.4222087729324  9.59944296942968 21.9126783189598  9.57865075383351 21.3410160041553  L 9.36975064384642 14.308370700822  C 9.24034998649648 14.3511781224809  9.1060570541747 14.374905640439  8.97005174733638 14.3785748623232  L 8.95439646742648 14.3917840360577  C 8.15426494274758 14.3822440842073  7.50701693266233 13.7376868410119  7.49454161582885 12.9377999144263  Z " fill-rule="nonzero" fill="#555555" stroke="none" transform="matrix(1 0 0 1 216 62 )" />
  </g>
</svg>