<?xml version="1.0" encoding="utf-8"?>
<svg version="1.1" xmlns:xlink="http://www.w3.org/1999/xlink" width="36px" height="31px" xmlns="http://www.w3.org/2000/svg">
  <g transform="matrix(1 0 0 1 -127 -64 )">
    <path d="M 9.85808983752787 12.1594984573615  C 9.89815355208665 8.44751721584598  12.275644472762 6.04862297914353  15.9675922268238 6.01679279279279  C 19.0563517043644 5.99016561767247  22.1464874163746 5.96430359126249  25.2334424976107 6.03530939158336  C 26.3394762663269 6.06086535850919  26.5538324307104 5.64590990990991  26.4127225230965 4.67383438232753  C 26.0330653074227 2.0498946069357  23.8096820643517 0.0991938788103182  20.9733545715196 0.0789939528569674  C 15.9538298821281 0.0428789337282496  10.9344886906658 0.0442562014068873  5.91496400127429 0.0762394174996922  C 2.62025868110863 0.097510551647539  0.403756610385473 2.26976774034308  0.321029627269831 5.5484605701592  C 0.263839439311883 7.81024015796618  0.266133163427843 10.0755394298408  0.321641287034087 12.3373190176478  C 0.389382605925454 15.1066370480069  1.9352914941064 17.0403514747624  4.63249697355846 17.644727138097  C 5.47646511627907 17.8336882636061  5.61118317935648 18.0448387017154  5.27877668047149 18.809130445514  C 4.67286651799936 20.2021295816364  4.15148773494743 21.6321313093916  3.59496909843899 23.0465546094039  C 3.70733099713284 23.1356179192892  3.8201822236381 23.224803652968  3.93239120739089 23.3135609033691  C 5.51347053201657 22.3298551153894  7.0679426568971 21.2995058620264  8.68694488690666 20.3822149821054  C 9.55813188913666 19.8887552758238  9.91791016247212 19.3074871035419  9.87723478814909 18.2850647908182  C 9.79600637145588 16.2463719610021  9.83622300095572 14.2015579415031  9.85808983752787 12.1594984573615  Z M 31.1664810449188 7.15854769838332  C 26.0370410958904 7.05004961125509  20.9024020388659 7.0552526224855  15.7729620898375 7.15686437122054  C 12.9704287989806 7.21226113785018  11.1237668047149 9.09838331482167  11.0127505575024 11.8915739849438  C 10.9034163746416 14.6483435764532  10.8974526919401 17.4165597926694  11.0156559413826 20.1724112057263  C 11.1416272698312 23.1034510675059  13.1253010512902 24.8682512649636  16.1122191780822 24.9135480686166  C 17.7671564192418 24.938338886832  19.4258859509398 24.9804220659015  21.077459063396 24.8979390349253  C 22.3510570245301 24.8341256324818  23.4095648295636 25.1738210539306  24.4741586492514 25.8723100086388  C 26.9196967187002 27.4769186720968  29.4355756610386 28.9733353079107  32.3191538706594 30.7586414908059  C 31.7971634278433 29.4320572627422  31.4566830200701 28.5732237442922  31.1215240522459 27.7124008391954  C 30.784101943294 26.8465279526101  30.4518483593501 25.9785126496359  30.0913360942975 25.0434703196347  C 30.4024874163746 24.9911341478465  30.6102682382925 24.938338886832  30.8203427843262 24.9230665185734  C 34.2520598916853 24.6745768233987  35.910177763619 22.9423719610021  35.9441248805352 19.5138936196471  C 35.9679796113412 17.0842710107368  35.9895406180312 14.6537302233741  35.9370907932463 12.2251788226583  C 35.8717961134119 9.20596322349747  34.1064848677923 7.22067777366408  31.1664810449188 7.15854769838332  Z " fill-rule="nonzero" fill="#555555" stroke="none" transform="matrix(1 0 0 1 127 64 )" />
  </g>
</svg>