<?xml version="1.0" encoding="utf-8"?>
<svg version="1.1" xmlns:xlink="http://www.w3.org/1999/xlink" width="60px" height="60px" xmlns="http://www.w3.org/2000/svg">
  <g transform="matrix(1 0 0 1 -31 -48 )">
    <path d="M 61 51  C 76.12 51  88 62.88  88 78  C 88 93.12  76.12 105  61 105  C 45.88 105  34 93.12  34 78  C 34 62.88  45.88 51  61 51  Z " fill-rule="nonzero" fill="#ffffff" stroke="none" fill-opacity="0" />
    <path d="M 61 50  C 76.68 50  89 62.32  89 78  C 89 93.68  76.68 106  61 106  C 45.32 106  33 93.68  33 78  C 33 62.32  45.32 50  61 50  Z " stroke-width="4" stroke="#797979" fill="none" />
  </g>
</svg>