<?xml version="1.0" encoding="utf-8"?>
<svg version="1.1" xmlns:xlink="http://www.w3.org/1999/xlink" width="37px" height="21px" xmlns="http://www.w3.org/2000/svg">
  <g transform="matrix(1 0 0 1 -241 -117 )">
    <path d="M 0.92138671875 14.576953125  C 0.30712890625 13.280859375  0 11.921875  0 10.5  C 0 9.078125  0.30712890625 7.719140625  0.92138671875 6.423046875  C 1.53564453125 5.126953125  2.357666015625 4.011328125  3.387451171875 3.076171875  C 4.417236328125 2.141015625  5.645751953125 1.39453125  7.072998046875 0.836718749999999  C 8.500244140625 0.27890625  9.99674479166667 0  11.5625 0  L 25.4375 0  C 27.0032552083333 0  28.499755859375 0.27890625  29.927001953125 0.836718749999999  C 31.354248046875 1.39453125  32.582763671875 2.141015625  33.612548828125 3.076171875  C 34.642333984375 4.011328125  35.46435546875 5.126953125  36.07861328125 6.423046875  C 36.69287109375 7.719140625  37 9.078125  37 10.5  C 37 11.921875  36.69287109375 13.280859375  36.07861328125 14.576953125  C 35.46435546875 15.873046875  34.642333984375 16.988671875  33.612548828125 17.923828125  C 32.582763671875 18.858984375  31.354248046875 19.60546875  29.927001953125 20.16328125  C 28.499755859375 20.72109375  27.0032552083333 21  25.4375 21  L 11.5625 21  C 9.99674479166667 21  8.500244140625 20.72109375  7.072998046875 20.16328125  C 5.645751953125 19.60546875  4.417236328125 18.858984375  3.387451171875 17.923828125  C 2.357666015625 16.988671875  1.53564453125 15.873046875  0.92138671875 14.576953125  Z M 21.851318359375 18.235546875  C 22.989501953125 18.678515625  24.1848958333333 18.9  25.4375 18.9  C 26.6901041666667 18.9  27.885498046875 18.678515625  29.023681640625 18.235546875  C 30.161865234375 17.792578125  31.146484375 17.19375  31.9775390625 16.4390625  C 32.80859375 15.684375  33.468017578125 14.790234375  33.955810546875 13.756640625  C 34.443603515625 12.723046875  34.6875 11.6375  34.6875 10.5  C 34.6875 9.3625  34.443603515625 8.276953125  33.955810546875 7.243359375  C 33.468017578125 6.209765625  32.80859375 5.315625  31.9775390625 4.5609375  C 31.146484375 3.80625  30.161865234375 3.207421875  29.023681640625 2.764453125  C 27.885498046875 2.321484375  26.6901041666667 2.1  25.4375 2.1  C 24.1848958333333 2.1  22.989501953125 2.321484375  21.851318359375 2.764453125  C 20.713134765625 3.207421875  19.728515625 3.80625  18.8974609375 4.5609375  C 18.06640625 5.315625  17.406982421875 6.209765625  16.919189453125 7.243359375  C 16.431396484375 8.276953125  16.1875 9.3625  16.1875 10.5  C 16.1875 11.6375  16.431396484375 12.723046875  16.919189453125 13.756640625  C 17.406982421875 14.790234375  18.06640625 15.684375  18.8974609375 16.4390625  C 19.728515625 17.19375  20.713134765625 17.792578125  21.851318359375 18.235546875  Z " fill-rule="nonzero" fill="#333333" stroke="none" transform="matrix(1 0 0 1 241 117 )" />
  </g>
</svg>