<?xml version="1.0" encoding="utf-8"?>
<svg version="1.1" xmlns:xlink="http://www.w3.org/1999/xlink" width="12px" height="12px" viewBox="74 169  12 12" xmlns="http://www.w3.org/2000/svg">
  <path d="M 80 169  C 83.36 169  86 171.64  86 175  C 86 178.36  83.36 181  80 181  C 76.64 181  74 178.36  74 175  C 74 171.64  76.64 169  80 169  Z " fill-rule="nonzero" fill="#ffffff" stroke="none" />
  <path d="M 80 169.5  C 83.08 169.5  85.5 171.92  85.5 175  C 85.5 178.08  83.08 180.5  80 180.5  C 76.92 180.5  74.5 178.08  74.5 175  C 74.5 171.92  76.92 169.5  80 169.5  Z " stroke-width="1" stroke="#797979" fill="none" />
  <path d="M 80 178  C 78.32 178  77 176.68  77 175  C 77 173.32  78.32 172  80 172  C 81.68 172  83 173.32  83 175  C 83 176.68  81.68 178  80 178  " fill-rule="nonzero" fill="#797979" stroke="none" />
</svg>